<svg width="24" height="24" viewBox="0 0 24 24" fill="none" xmlns="http://www.w3.org/2000/svg">
<path d="M13.35 16.8H13.4C13.74 16.8 14.05 16.61 14.2 16.3L15.95 12.8H17.89C18.39 12.8 18.79 12.4 18.79 11.9C18.79 11.4 18.39 11 17.89 11H15.39C15.05 11 14.74 11.2 14.59 11.5L13.51 13.65L11.23 7.58C11.1 7.25 10.79 7.02 10.43 7C10.08 6.98 9.74 7.18 9.58 7.5L7.83 11H5.89C5.39 11 4.99 11.4 4.99 11.9C4.99 12.4 5.39 12.8 5.89 12.8H8.39C8.73 12.8 9.04 12.6 9.19 12.3L10.27 10.15L12.55 16.22C12.68 16.55 12.99 16.78 13.35 16.8Z" fill="#181D27"/>
<path fill-rule="evenodd" clip-rule="evenodd" d="M3.58 20.22C5.16 21.8 7.41 21.8 11.9 21.8C16.39 21.8 18.64 21.8 20.22 20.22C21.8 18.64 21.8 16.39 21.8 11.9C21.8 7.41 21.8 5.16 20.22 3.58C18.64 2 16.38 2 11.9 2C7.42 2 5.16 2 3.58 3.58C2 5.16 2 7.41 2 11.9C2 16.39 2 18.64 3.58 20.22ZM4.86 4.85C5.91 3.8 7.91 3.8 11.9 3.8V3.79L12.0106 3.79C15.9173 3.78991 17.8998 3.78986 18.94 4.84C19.99 5.9 19.99 7.9 19.99 11.89C19.99 15.88 19.99 17.88 18.94 18.94C17.89 19.99 15.88 19.99 11.9 19.99C7.92 19.99 5.91 19.99 4.86 18.94C3.81 17.89 3.81 15.89 3.81 11.9C3.81 7.91 3.81 5.9 4.86 4.85Z" fill="#181D27"/>
</svg>
