<svg width="24" height="24" viewBox="0 0 24 24" fill="none" xmlns="http://www.w3.org/2000/svg">
<path d="M11.91 9.9C11.36 9.9 10.91 10.35 10.91 10.9C10.91 11.45 11.36 11.9 11.91 11.9C12.46 11.9 12.91 11.45 12.91 10.9C12.91 10.35 12.46 9.9 11.91 9.9Z" fill="#181D27"/>
<path fill-rule="evenodd" clip-rule="evenodd" d="M6.52 9.99C7.23 8.98 9.19 6.65 11.9 6.65C14.61 6.65 16.56 8.99 17.28 9.99L17.2851 9.99715C17.4636 10.245 17.65 10.5038 17.65 10.9C17.65 11.2962 17.4636 11.555 17.2851 11.8029L17.28 11.81C16.57 12.82 14.6 15.15 11.9 15.15C9.2 15.15 7.24 12.81 6.52 11.81L6.51485 11.8029C6.3364 11.555 6.15 11.2962 6.15 10.9C6.15 10.5038 6.3364 10.245 6.51485 9.99715L6.52 9.99ZM11.9 13.65C13.91 13.65 15.48 11.75 16.06 10.94C16.07 10.93 16.09 10.91 16.09 10.9C16.08 10.89 16.06 10.86 16.06 10.86C15.48 10.04 13.91 8.15 11.9 8.15C9.89 8.15 8.32 10.05 7.74 10.86C7.73 10.87 7.71 10.89 7.71 10.9C7.715 10.905 7.72 10.9125 7.725 10.92C7.73 10.9275 7.735 10.935 7.74 10.94C8.32 11.76 9.89 13.65 11.9 13.65Z" fill="#181D27"/>
<path fill-rule="evenodd" clip-rule="evenodd" d="M19.66 2.15C18.52 1 16.88 1 13.9 1H9.9C6.92 1 5.28 1 4.14 2.15C3 3.3 3 4.96 3 7.95V18.54C3 20.26 3 21.3 3.88 21.86C5.01 22.59 6.29 21.7 7.05 21.17C7.16 21.09 7.26 21.02 7.35 20.96C7.53 20.84 7.84 20.65 7.88 20.63C7.94168 20.6454 8.11036 20.75 8.28979 20.8613C8.34307 20.8943 8.39734 20.9279 8.45 20.96L10.37 22.17C10.97 22.55 11.36 22.79 11.91 22.79C12.4553 22.79 12.8434 22.5442 13.4347 22.1697L15.36 20.95C15.54 20.83 15.85 20.64 15.89 20.62C15.9517 20.6354 16.1204 20.74 16.2998 20.8513C16.3531 20.8843 16.4073 20.9179 16.46 20.95C16.55 21.01 16.65 21.08 16.76 21.16C17.52 21.69 18.8 22.58 19.93 21.85C20.81 21.29 20.81 20.25 20.81 18.53V7.95C20.81 4.95 20.81 3.3 19.67 2.15H19.66ZM19 18.55C19 19.29 19 20.05 18.92 20.34C18.63 20.3 18.02 19.87 17.78 19.7C17.64 19.6 17.51 19.51 17.41 19.45L17.3644 19.4215C16.8296 19.087 16.4658 18.8595 15.96 18.84C15.4067 18.8037 15.0179 19.0472 14.54 19.3465C14.491 19.3771 14.4411 19.4084 14.39 19.44L12.47 20.65C12.3322 20.7382 12.1884 20.8294 12.082 20.8968C11.9955 20.9517 11.9335 20.991 11.92 21C11.8466 20.9837 11.6602 20.8676 11.4529 20.7386C11.406 20.7094 11.358 20.6795 11.31 20.65L9.4 19.44L9.35581 19.4124C8.82025 19.0774 8.4562 18.8497 7.95 18.84H7.89C7.34 18.84 6.91 19.11 6.38 19.45C6.32667 19.4839 6.27099 19.5226 6.21182 19.5636C6.14895 19.6073 6.08211 19.6536 6.01 19.7C5.77 19.87 5.16 20.29 4.87 20.34C4.79 20.05 4.79 19.29 4.79 18.55V7.95C4.79 5.17 4.81 4.02 5.41 3.42C6 2.82 7.14 2.8 9.89 2.8H13.89C16.64 2.8 17.78 2.82 18.37 3.42C18.96 4.02 18.99 5.17 18.99 7.95V18.54L19 18.55Z" fill="#181D27"/>
</svg>
