<svg xmlns="http://www.w3.org/2000/svg" width="24" height="24" fill="currentColor" viewBox="0 0 24 24">
  <path fill-rule="evenodd" d="M9.22 1.46a.9.9 0 1 0-1.44 1.08l1.05 1.4A6.398 6.398 0 0 0 5.6 9.5v.488a1.039 1.039 0 0 0 0 .024V18c0 1.05.85 1.9 1.9 1.9h.6V22a.9.9 0 1 0 1.8 0v-2.1h4.2V22a.9.9 0 0 0 1.8 0v-2.1h.6a1.9 1.9 0 0 0 1.9-1.9V9.5c0-2.381-1.3-4.458-3.23-5.56l1.05-1.4a.9.9 0 0 0-1.44-1.08l-1.35 1.8a6.42 6.42 0 0 0-2.86 0l-1.35-1.8ZM16.5 18.1a.1.1 0 0 0 .1-.1v-7.1H7.4V18a.1.1 0 0 0 .1.1h9Zm-9.083-9h9.165a4.6 4.6 0 0 0-9.165 0Z" clip-rule="evenodd"/>
  <path d="M4 10.1a.9.9 0 0 1 .9.9v6a.9.9 0 1 1-1.8 0v-6a.9.9 0 0 1 .9-.9Zm16 0a.9.9 0 0 1 .9.9v6a.9.9 0 1 1-1.8 0v-6a.9.9 0 0 1 .9-.9Z"/>
</svg>
