<svg width="24" height="24" viewBox="0 0 24 24" fill="none" xmlns="http://www.w3.org/2000/svg">
<path fill-rule="evenodd" clip-rule="evenodd" d="M16.2998 1.9C16.2998 4.27 14.5298 6.8 11.8998 6.8C11.3998 6.8 10.9998 6.4 10.9998 5.9C10.9998 3.53 12.7698 1 15.3998 1C15.8998 1 16.2998 1.4 16.2998 1.9ZM14.2598 3.13C14.0098 3.77 13.5898 4.34 13.0298 4.68C13.2798 4.04 13.6998 3.47 14.2598 3.13Z" fill="#181D27"/>
<path fill-rule="evenodd" clip-rule="evenodd" d="M18.1398 12.9C18.1398 14.4 18.9498 15.67 20.2498 16.22L20.2698 16.23C20.7098 16.42 20.9298 16.91 20.7698 17.36C19.7598 20.23 17.9398 23.31 15.8098 23.31C14.9498 23.31 14.2298 23 13.5998 22.72C13.1498 22.52 12.7398 22.34 12.4098 22.34C12.0977 22.34 11.705 22.51 11.2911 22.6891C11.2674 22.6994 11.2436 22.7097 11.2198 22.72C10.5898 23 9.86977 23.31 9.00977 23.31C6.20977 23.31 3.00977 17.57 3.00977 12.91C3.00977 8.25 6.55977 6.51 8.79977 6.51C10.0198 6.51 10.7798 6.82 11.3898 7.07C11.4111 7.07855 11.4322 7.08698 11.4529 7.09529C11.8199 7.24248 12.0879 7.35 12.4098 7.35C12.6298 7.35 12.7298 7.31 12.9898 7.19L13.2598 7.07C13.8698 6.82 14.6298 6.51 15.8498 6.51C16.4798 6.51 18.6598 6.68 20.1498 8.91C20.2798 9.11 20.3298 9.36 20.2798 9.6C20.2298 9.84 20.0798 10.04 19.8698 10.17C18.6698 10.9 18.1398 11.74 18.1398 12.9ZM15.7831 21.5C15.3052 21.4981 14.8174 21.2889 14.2998 21.06C13.7098 20.8 13.0998 20.54 12.3998 20.54C11.734 20.54 11.1497 20.7842 10.5779 21.0232C10.5485 21.0355 10.5191 21.0478 10.4898 21.06C9.96977 21.29 9.47977 21.5 8.99977 21.5C7.81977 21.5 4.79977 17.41 4.79977 12.9C4.79977 9.55 7.24977 8.3 8.78977 8.3C9.64482 8.3 10.1425 8.50285 10.672 8.71868C10.6812 8.72245 10.6905 8.72622 10.6998 8.73L10.7092 8.73386C11.1963 8.93269 11.7042 9.14 12.3898 9.14C12.9705 9.14 13.3451 8.98075 13.6678 8.84358C13.6785 8.83903 13.6892 8.8345 13.6998 8.83L13.9298 8.73C14.4598 8.51 14.9698 8.3 15.8298 8.3C16.1698 8.3 17.1798 8.38 18.0798 9.23C16.9098 10.2 16.3298 11.44 16.3298 12.9C16.3298 14.8 17.2698 16.51 18.7698 17.48C17.7217 20.1053 16.4045 21.495 15.7831 21.5Z" fill="#181D27"/>
</svg>
