<svg width="24" height="24" viewBox="0 0 24 24" fill="none" xmlns="http://www.w3.org/2000/svg">
<path fill-rule="evenodd" clip-rule="evenodd" d="M5.99961 1.10001C3.29341 1.10001 1.09961 3.29381 1.09961 6.00001C1.09961 8.7062 3.29341 10.9 5.99961 10.9C8.70581 10.9 10.8996 8.7062 10.8996 6.00001C10.8996 3.29381 8.70581 1.10001 5.99961 1.10001ZM2.89961 6.00001C2.89961 4.28792 4.28753 2.90001 5.99961 2.90001C7.71169 2.90001 9.09961 4.28792 9.09961 6.00001C9.09961 7.71209 7.71169 9.10001 5.99961 9.10001C4.28753 9.10001 2.89961 7.71209 2.89961 6.00001Z" fill="#181D27"/>
<path fill-rule="evenodd" clip-rule="evenodd" d="M5.99961 13.1C3.29341 13.1 1.09961 15.2939 1.09961 18C1.09961 20.7062 3.29341 22.9 5.99961 22.9C8.70581 22.9 10.8996 20.7062 10.8996 18C10.8996 15.2939 8.70581 13.1 5.99961 13.1ZM2.89961 18C2.89961 16.288 4.28753 14.9 5.99961 14.9C7.71169 14.9 9.09961 16.288 9.09961 18C9.09961 19.7121 7.71169 21.1 5.99961 21.1C4.28753 21.1 2.89961 19.7121 2.89961 18Z" fill="#181D27"/>
<path fill-rule="evenodd" clip-rule="evenodd" d="M13.0996 6.00001C13.0996 3.2938 15.2935 1.10001 17.9996 1.10001C20.7058 1.10001 22.8996 3.2938 22.8996 6.00001C22.8996 8.70621 20.7058 10.9 17.9996 10.9C15.2935 10.9 13.0996 8.70621 13.0996 6.00001ZM17.9996 2.90001C16.2876 2.90001 14.8996 4.28793 14.8996 6.00001C14.8996 7.71208 16.2876 9.10001 17.9996 9.10001C19.7117 9.10001 21.0996 7.71208 21.0996 6.00001C21.0996 4.28793 19.7117 2.90001 17.9996 2.90001Z" fill="#181D27"/>
<path fill-rule="evenodd" clip-rule="evenodd" d="M17.9996 13.1C15.2935 13.1 13.0996 15.2938 13.0996 18C13.0996 20.7062 15.2935 22.9 17.9996 22.9C20.7058 22.9 22.8996 20.7062 22.8996 18C22.8996 15.2938 20.7058 13.1 17.9996 13.1ZM14.8996 18C14.8996 16.288 16.2876 14.9 17.9996 14.9C19.7117 14.9 21.0996 16.288 21.0996 18C21.0996 19.712 19.7117 21.1 17.9996 21.1C16.2876 21.1 14.8996 19.712 14.8996 18Z" fill="#181D27"/>
</svg>
