<svg width="24" height="24" viewBox="0 0 24 24" fill="none" xmlns="http://www.w3.org/2000/svg">
<path fill-rule="evenodd" clip-rule="evenodd" d="M9.25 1.48C8.47 1 7.56 1 5.9 1C4.24 1 3.34 1 2.55 1.48C2.11 1.75 1.74 2.12 1.48 2.55C1 3.33 1 4.24 1 5.9C1 7.56 1 8.46 1.48 9.25C1.75 9.68 2.12 10.06 2.55 10.33C3.33 10.81 4.24 10.81 5.9 10.81C7.56 10.81 8.46 10.81 9.25 10.33C9.69 10.06 10.06 9.69 10.32 9.26C10.8 8.48 10.8 7.57 10.8 5.91C10.8 4.25 10.8 3.35 10.32 2.56C10.05 2.12 9.68 1.75 9.25 1.49V1.48ZM8.79 8.31C8.67 8.5 8.5 8.67 8.31 8.79C7.96 9 7.23 9 5.9 9C4.57 9 3.84 9 3.49 8.79C3.3 8.67 3.13 8.5 3.01 8.31C2.8 7.96 2.8 7.23 2.8 5.9C2.8 4.57 2.8 3.84 3.01 3.49C3.13 3.3 3.29 3.13 3.49 3.01C3.84 2.8 4.57 2.8 5.9 2.8C7.23 2.8 7.96 2.8 8.31 3.01C8.5 3.13 8.67 3.3 8.79 3.49C9 3.84 9 4.57 9 5.9C9 7.23 9 7.96 8.79 8.31Z" fill="#181D27"/>
<path fill-rule="evenodd" clip-rule="evenodd" d="M5.9 13C7.56 13 8.47 13 9.25 13.48V13.49C9.68 13.75 10.05 14.12 10.32 14.56C10.8 15.34 10.8 16.25 10.8 17.91C10.8 19.57 10.8 20.48 10.32 21.26C10.06 21.69 9.69 22.06 9.25 22.33C8.46 22.81 7.56 22.81 5.9 22.81C4.24 22.81 3.33 22.81 2.55 22.33C2.12 22.06 1.75 21.68 1.48 21.25C1 20.46 1 19.56 1 17.9C1 16.24 1 15.33 1.48 14.55C1.74 14.12 2.11 13.75 2.55 13.48C3.34 13 4.24 13 5.9 13ZM8.31 20.79C8.5 20.67 8.67 20.5 8.79 20.31C9 19.96 9 19.23 9 17.9C9 16.57 9 15.84 8.79 15.49C8.67 15.3 8.5 15.13 8.31 15.01C7.96 14.8 7.23 14.8 5.9 14.8C4.57 14.8 3.84 14.8 3.49 15.01C3.29 15.13 3.13 15.3 3.01 15.49C2.8 15.84 2.8 16.57 2.8 17.9C2.8 19.23 2.8 19.96 3.01 20.31C3.13 20.5 3.3 20.67 3.49 20.79C3.84 21 4.57 21 5.9 21C7.23 21 7.96 21 8.31 20.79Z" fill="#181D27"/>
<path fill-rule="evenodd" clip-rule="evenodd" d="M17.9 13C19.56 13 20.47 13 21.25 13.48V13.49C21.68 13.75 22.05 14.12 22.32 14.56C22.8 15.34 22.8 16.25 22.8 17.91C22.8 19.57 22.8 20.48 22.32 21.26C22.06 21.69 21.69 22.06 21.25 22.33C20.46 22.81 19.56 22.81 17.9 22.81C16.24 22.81 15.33 22.81 14.55 22.33C14.12 22.06 13.75 21.68 13.48 21.25C13 20.46 13 19.56 13 17.9C13 16.24 13 15.33 13.48 14.55C13.74 14.12 14.11 13.75 14.55 13.48C15.34 13 16.24 13 17.9 13ZM20.31 20.79C20.5 20.67 20.67 20.5 20.79 20.31C21 19.96 21 19.23 21 17.9C21 16.57 21 15.84 20.79 15.49C20.67 15.3 20.5 15.13 20.31 15.01C19.96 14.8 19.23 14.8 17.9 14.8C16.57 14.8 15.84 14.8 15.49 15.01C15.29 15.13 15.13 15.3 15.01 15.49C14.8 15.84 14.8 16.57 14.8 17.9C14.8 19.23 14.8 19.96 15.01 20.31C15.13 20.5 15.3 20.67 15.49 20.79C15.84 21 16.57 21 17.9 21C19.23 21 19.96 21 20.31 20.79Z" fill="#181D27"/>
<path fill-rule="evenodd" clip-rule="evenodd" d="M17.9 10.8C16.24 10.8 15.33 10.8 14.55 10.32V10.33C14.12 10.06 13.75 9.68 13.48 9.25C13 8.46 13 7.56 13 5.9C13 4.24 13 3.33 13.48 2.55C13.74 2.12 14.11 1.75 14.55 1.48C15.34 1 16.24 1 17.9 1C19.56 1 20.47 1 21.25 1.48C21.68 1.74 22.05 2.11 22.32 2.55C22.8 3.34 22.8 4.24 22.8 5.9C22.8 7.56 22.8 8.47 22.32 9.25C22.06 9.68 21.69 10.05 21.25 10.32C20.46 10.8 19.56 10.8 17.9 10.8ZM15.49 3.01C15.29 3.13 15.13 3.3 15.01 3.49C14.8 3.84 14.8 4.57 14.8 5.9C14.8 7.23 14.8 7.96 15.01 8.31C15.13 8.5 15.3 8.67 15.49 8.79C15.84 9 16.57 9 17.9 9C19.23 9 19.96 9 20.31 8.79C20.5 8.67 20.67 8.5 20.79 8.31C21 7.96 21 7.23 21 5.9C21 4.57 21 3.84 20.79 3.49C20.67 3.3 20.5 3.13 20.31 3.01C19.96 2.8 19.23 2.8 17.9 2.8C16.57 2.8 15.84 2.8 15.49 3.01Z" fill="#181D27"/>
</svg>
