<svg width="24" height="24" viewBox="0 0 24 24" fill="none" xmlns="http://www.w3.org/2000/svg">
<path d="M18.9004 18.1545C18.9029 18.1516 18.9054 18.1487 18.9079 18.1457C19.1606 17.8474 19.4081 17.5321 19.6396 17.2373L19.6934 17.1688C19.9241 16.8751 20.1667 16.5666 20.3552 16.3727C20.7017 16.0163 21.2715 16.0082 21.6279 16.3547C21.9843 16.7011 21.9924 17.2709 21.6459 17.6273C21.5395 17.7368 21.3648 17.955 21.1089 18.2807L21.0524 18.3527C20.8243 18.6432 20.5568 18.9841 20.2811 19.3094C19.9857 19.6581 19.655 20.0202 19.3244 20.3018C19.1588 20.4428 18.9721 20.582 18.7712 20.6895C18.5775 20.7932 18.3105 20.9 18.0006 20.9C17.6906 20.9 17.4237 20.7932 17.23 20.6895C17.0291 20.582 16.8424 20.4428 16.6767 20.3018C16.3462 20.0202 16.0155 19.6581 15.72 19.3094C15.4444 18.9841 15.1769 18.6433 14.9488 18.3527L14.8922 18.2807C14.6364 17.955 14.4617 17.7368 14.3552 17.6273C14.0088 17.2709 14.0169 16.7011 14.3733 16.3547C14.7297 16.0082 15.2995 16.0163 15.6459 16.3727C15.8344 16.5666 16.0771 16.8751 16.3078 17.1688L16.3615 17.2373C16.593 17.5321 16.8405 17.8474 17.0933 18.1457C17.0956 18.1484 17.0979 18.1511 17.1002 18.1538C17.0979 16.3039 17.0823 14.8133 16.9772 14.0861C16.2963 9.3734 12.9412 5.75758 8.76205 5.03208C8.02059 4.90335 7.11606 4.90001 5.07749 4.90001L3.00059 4.90001C2.50353 4.90001 2.10059 4.49707 2.10059 4.00001C2.10059 3.50295 2.50353 3.10001 3.00059 3.10001L5.19414 3.10001C7.08465 3.09994 8.15583 3.09991 9.06992 3.2586C14.1069 4.13302 17.98 8.43976 18.7587 13.8287C18.8841 14.6961 18.8987 16.3327 18.9004 18.1545Z" fill="#181D27"/>
</svg>
