<svg width="24" height="24" viewBox="0 0 24 24" fill="none" xmlns="http://www.w3.org/2000/svg">
<path d="M20.7997 14.9224C20.7938 15.2646 20.655 16.2363 17.43 18.6C17.27 18.72 17.08 18.78 16.9 18.78V18.8C16.62 18.8 16.35 18.67 16.17 18.43C15.88 18.03 15.96 17.47 16.36 17.17C16.9639 16.7225 17.562 16.2313 18.0399 15.8H8.4C5.42 15.8 3 13.38 3 10.4C3 7.42 5.42 5 8.4 5H12.9C13.4 5 13.8 5.4 13.8 5.9C13.8 6.4 13.4 6.8 12.9 6.8H8.4C6.41 6.8 4.8 8.42 4.8 10.4C4.8 12.38 6.41 14 8.4 14H18.0616C17.5798 13.5638 16.9714 13.0631 16.36 12.61C15.96 12.32 15.87 11.75 16.17 11.35C16.46 10.95 17.03 10.86 17.43 11.16C20.8 13.64 20.8 14.58 20.8 14.88C20.8 14.8848 20.8 14.8898 20.8 14.8949L20.8 14.9C20.8 14.9075 20.7999 14.915 20.7997 14.9224Z" fill="#181D27"/>
</svg>
