<svg width="24" height="24" viewBox="0 0 24 24" fill="none" xmlns="http://www.w3.org/2000/svg">
<path d="M11.043 5.2246C11.4356 4.99252 11.9482 5.09082 12.2246 5.46581C12.5008 5.84088 12.4432 6.35973 12.1055 6.66601L12.0342 6.7246L12.0332 6.72558C12.0326 6.726 12.0314 6.72667 12.0303 6.72753C12.0277 6.72942 12.0237 6.73248 12.0186 6.73632C12.0079 6.74419 11.9917 6.75581 11.9707 6.77148C11.9282 6.80315 11.8646 6.8504 11.7842 6.91113C11.6234 7.0326 11.3931 7.20875 11.1162 7.4248C10.5613 7.85788 9.8241 8.44941 9.08984 9.08691C8.35129 9.72815 7.63602 10.3985 7.1123 10.9912C6.8495 11.2886 6.6533 11.5456 6.52832 11.7529C6.44695 11.8879 6.41726 11.9676 6.40625 12C6.41727 12.0324 6.44696 12.1121 6.52832 12.2471C6.65331 12.4544 6.8495 12.7113 7.1123 13.0088C7.63602 13.6015 8.3513 14.2718 9.08984 14.9131C9.82409 15.5506 10.5613 16.1421 11.1162 16.5752C11.3931 16.7912 11.6234 16.9674 11.7842 17.0889C11.8646 17.1496 11.9282 17.1968 11.9707 17.2285C11.9917 17.2442 12.0079 17.2558 12.0186 17.2637C12.0237 17.2675 12.0277 17.2706 12.0303 17.2725C12.0314 17.2733 12.0326 17.274 12.0332 17.2744L12.0342 17.2754L12.1055 17.334C12.4432 17.6403 12.5008 18.1591 12.2246 18.5342C11.9482 18.9092 11.4356 19.0075 11.043 18.7754L10.9658 18.7246L10.9648 18.7236C10.964 18.723 10.9625 18.7219 10.9609 18.7207C10.9578 18.7184 10.9531 18.7153 10.9473 18.7109C10.9352 18.702 10.9172 18.6888 10.8945 18.6719C10.8492 18.6381 10.7837 18.5884 10.7002 18.5254C10.5329 18.399 10.2943 18.2169 10.0088 17.9941C9.43879 17.5493 8.6758 16.9372 7.91016 16.2725C7.14891 15.6115 6.3639 14.8806 5.7627 14.2002C5.46322 13.8612 5.19036 13.5135 4.9873 13.1768C4.82253 12.9034 4.64993 12.5503 4.60938 12.166L4.59961 12L4.60938 11.834C4.64992 11.4496 4.82253 11.0966 4.9873 10.8232C5.19035 10.4865 5.46323 10.1388 5.7627 9.7998C6.3639 9.11937 7.1489 8.38848 7.91016 7.72753C8.6758 7.06278 9.43878 6.45068 10.0088 6.00585C10.2943 5.78305 10.5329 5.60095 10.7002 5.4746C10.7836 5.41157 10.8492 5.36189 10.8945 5.32812C10.9172 5.3112 10.9352 5.29797 10.9473 5.28906C10.9531 5.28473 10.9578 5.28162 10.9609 5.27929C10.9625 5.2781 10.964 5.27702 10.9648 5.27636L10.9658 5.27538L11.043 5.2246Z" fill="#181D27"/>
<path d="M18.043 5.2246C18.4356 4.99252 18.9482 5.09082 19.2246 5.46581C19.5008 5.84088 19.4432 6.35973 19.1055 6.66601L19.0342 6.7246L19.0332 6.72558C19.0326 6.726 19.0314 6.72667 19.0303 6.72753C19.0277 6.72942 19.0237 6.73248 19.0186 6.73632C19.0079 6.74419 18.9917 6.75581 18.9707 6.77148C18.9282 6.80315 18.8646 6.8504 18.7842 6.91113C18.6234 7.0326 18.3931 7.20875 18.1162 7.4248C17.5613 7.85788 16.8241 8.44941 16.0898 9.08691C15.3513 9.72815 14.636 10.3985 14.1123 10.9912C13.8495 11.2886 13.6533 11.5456 13.5283 11.7529C13.447 11.8879 13.4173 11.9676 13.4062 12C13.4173 12.0324 13.447 12.1121 13.5283 12.2471C13.6533 12.4544 13.8495 12.7113 14.1123 13.0088C14.636 13.6015 15.3513 14.2718 16.0898 14.9131C16.8241 15.5506 17.5613 16.1421 18.1162 16.5752C18.3931 16.7912 18.6234 16.9674 18.7842 17.0889C18.8646 17.1496 18.9282 17.1968 18.9707 17.2285C18.9917 17.2442 19.0079 17.2558 19.0186 17.2637C19.0237 17.2675 19.0277 17.2706 19.0303 17.2725C19.0314 17.2733 19.0326 17.274 19.0332 17.2744L19.0342 17.2754L19.1055 17.334C19.4432 17.6403 19.5008 18.1591 19.2246 18.5342C18.9482 18.9092 18.4356 19.0075 18.043 18.7754L17.9658 18.7246L17.9648 18.7236C17.964 18.723 17.9625 18.7219 17.9609 18.7207C17.9578 18.7184 17.9531 18.7153 17.9473 18.7109C17.9352 18.702 17.9172 18.6888 17.8945 18.6719C17.8492 18.6381 17.7837 18.5884 17.7002 18.5254C17.5329 18.399 17.2943 18.2169 17.0088 17.9941C16.4388 17.5493 15.6758 16.9372 14.9102 16.2725C14.1489 15.6115 13.3639 14.8806 12.7627 14.2002C12.4632 13.8612 12.1904 13.5135 11.9873 13.1768C11.8225 12.9034 11.6499 12.5503 11.6094 12.166L11.5996 12L11.6094 11.834C11.6499 11.4496 11.8225 11.0966 11.9873 10.8232C12.1904 10.4865 12.4632 10.1388 12.7627 9.7998C13.3639 9.11937 14.1489 8.38848 14.9102 7.72753C15.6758 7.06278 16.4388 6.45068 17.0088 6.00585C17.2943 5.78305 17.5329 5.60095 17.7002 5.4746C17.7837 5.41157 17.8492 5.36189 17.8945 5.32812C17.9172 5.3112 17.9352 5.29797 17.9473 5.28906C17.9531 5.28473 17.9578 5.28162 17.9609 5.27929C17.9625 5.2781 17.964 5.27702 17.9648 5.27636L17.9658 5.27538L18.043 5.2246Z" fill="#181D27"/>
</svg>
