<svg width="24" height="24" viewBox="0 0 24 24" fill="none" xmlns="http://www.w3.org/2000/svg">
<path d="M10.5 3.09961C13.4823 3.09963 15.9004 5.51768 15.9004 8.5V18.1543C15.9723 18.0747 16.0451 17.9931 16.1172 17.9102C16.429 17.551 16.7191 17.1887 16.9326 16.915C17.0389 16.7788 17.126 16.6657 17.1855 16.5869C17.2151 16.5478 17.2376 16.5166 17.2529 16.4961C17.2605 16.4859 17.2668 16.4776 17.2705 16.4727C17.2721 16.4705 17.2736 16.4688 17.2744 16.4678L17.2754 16.4668L17.334 16.3945C17.6403 16.0569 18.1592 15.9992 18.5342 16.2754C18.909 16.5518 19.0073 17.0645 18.7754 17.457L18.7246 17.5342L18.7236 17.5352L18.7227 17.5371C18.7214 17.5388 18.719 17.541 18.7168 17.5439C18.7121 17.5503 18.705 17.5596 18.6963 17.5713C18.6789 17.5946 18.6541 17.6286 18.6221 17.6709C18.5577 17.7561 18.4646 17.8777 18.3516 18.0225C18.1262 18.3112 17.8147 18.6993 17.4756 19.0898C17.1403 19.476 16.7605 19.8862 16.3984 20.2061C16.2185 20.3651 16.0211 20.5205 15.8203 20.6416C15.6598 20.7383 15.4006 20.8712 15.0918 20.8945C15.0616 20.8976 15.031 20.9004 15 20.9004L14.8711 20.8936C14.5784 20.8629 14.3338 20.7345 14.1797 20.6416C13.9789 20.5205 13.7815 20.3651 13.6016 20.2061C13.2395 19.8862 12.8597 19.476 12.5244 19.0898C12.1853 18.6993 11.8738 18.3112 11.6484 18.0225C11.5354 17.8777 11.4423 17.7561 11.3779 17.6709C11.346 17.6286 11.3211 17.5946 11.3037 17.5713C11.295 17.5597 11.2879 17.5503 11.2832 17.5439C11.281 17.541 11.2786 17.5388 11.2773 17.5371L11.2764 17.5352L11.2754 17.5342L11.2246 17.457C10.9925 17.0644 11.0908 16.5518 11.4658 16.2754C11.8409 15.9993 12.3598 16.0569 12.666 16.3945L12.7246 16.4658L12.7256 16.4678C12.7264 16.4689 12.7279 16.4705 12.7295 16.4727C12.7332 16.4777 12.7395 16.4859 12.7471 16.4961C12.7624 16.5166 12.7849 16.5478 12.8145 16.5869C12.874 16.6657 12.9611 16.7788 13.0674 16.915C13.281 17.1887 13.571 17.551 13.8828 17.9102C13.9551 17.9934 14.0275 18.0754 14.0996 18.1553V8.5C14.0996 6.51179 12.4882 4.90041 10.5 4.90039C8.51182 4.90039 6.90039 6.51177 6.90039 8.5V20C6.90039 20.4971 6.49706 20.9004 6 20.9004C5.50294 20.9004 5.09961 20.4971 5.09961 20V8.5C5.09961 5.51767 7.5177 3.09961 10.5 3.09961Z" fill="#181D27"/>
</svg>
