<svg width="24" height="24" viewBox="0 0 24 24" fill="none" xmlns="http://www.w3.org/2000/svg">
<path fill-rule="evenodd" clip-rule="evenodd" d="M18.636 6.63639C18.9875 6.28492 18.9875 5.71507 18.636 5.3636C18.2845 5.01213 17.7147 5.01213 17.3632 5.3636L6.96004 15.7668C6.91062 15.2196 6.89549 14.5758 6.90054 13.9307C6.90631 13.1928 6.93818 12.4777 6.96882 11.9453C6.9841 11.6797 6.99901 11.4608 7.01005 11.309C7.01556 11.2331 7.02011 11.174 7.02324 11.1342L7.02683 11.0894L7.02772 11.0785L7.02797 11.0755C7.06968 10.5803 6.70202 10.1449 6.20675 10.1032C5.71145 10.0614 5.27604 10.4296 5.23428 10.9249L5.23389 10.9296L5.2328 10.9429L5.22881 10.9927C5.2254 11.0359 5.22058 11.0987 5.21478 11.1785C5.20318 11.3381 5.18767 11.566 5.17179 11.8419C5.1401 12.3925 5.10668 13.1392 5.10059 13.9166C5.09455 14.6885 5.11515 15.5156 5.19719 16.2183C5.23808 16.5685 5.29703 16.9135 5.38542 17.2163C5.46603 17.4926 5.60392 17.854 5.87478 18.1249C6.14566 18.3958 6.50709 18.5336 6.7833 18.6142C7.08618 18.7026 7.43112 18.7616 7.7813 18.8024C8.48399 18.8845 9.31111 18.9051 10.0831 18.899C10.8604 18.8929 11.6071 18.8595 12.1578 18.8278C12.4336 18.8119 12.6616 18.7964 12.8211 18.7848C12.901 18.779 12.9637 18.7741 13.0069 18.7707L13.0567 18.7668L13.07 18.7657L13.0753 18.7652C13.0753 18.7652 13.0753 18.7652 12.9996 17.8684L13.0753 18.7652C13.5706 18.7235 13.9382 18.2881 13.8965 17.7928C13.8547 17.2975 13.4188 16.9299 12.9236 16.9716L12.9102 16.9727L12.8654 16.9763C12.8257 16.9794 12.7666 16.984 12.6907 16.9895C12.5388 17.0005 12.3199 17.0155 12.0543 17.0307C11.5219 17.0614 10.8068 17.0933 10.0689 17.0991C9.42381 17.1041 8.78001 17.089 8.23281 17.0396M6.13115 11L5.23428 10.9249C5.23428 10.9249 5.23433 10.9244 6.13115 11Z" fill="#181D27"/>
</svg>
