<svg width="24" height="24" viewBox="0 0 24 24" fill="none" xmlns="http://www.w3.org/2000/svg">
<path fill-rule="evenodd" clip-rule="evenodd" d="M11.9997 3.10001C11.5843 3.1 11.2088 3.28317 10.9419 3.44407C10.6502 3.61987 10.3527 3.85399 10.0666 4.10681C9.4923 4.61426 8.87838 5.27371 8.32597 5.90996C7.76967 6.55068 7.2578 7.18876 6.88611 7.66505C6.69989 7.90367 6.548 8.10279 6.4423 8.24273C6.38943 8.31272 6.34807 8.36798 6.31971 8.40605L6.28707 8.44997L6.27839 8.46169L6.27499 8.4663C5.98023 8.86653 6.06573 9.42993 6.46596 9.72468C6.86617 10.0194 7.42989 9.93346 7.72466 9.53329L7.7263 9.53107L7.73348 9.52136L7.76298 9.48166C7.7892 9.44648 7.82824 9.39432 7.87864 9.32759C7.97947 9.1941 8.12555 9.00259 8.30514 8.77246C8.66507 8.31124 9.15615 7.69933 9.68515 7.09005C10.1609 6.54214 10.6532 6.01272 11.0996 5.59948V20C11.0996 20.4971 11.5026 20.9 11.9996 20.9C12.4967 20.9 12.8996 20.4971 12.8996 20V5.59941C13.3461 6.01266 13.8384 6.54211 14.3142 7.09004C14.8432 7.69931 15.3342 8.31122 15.6942 8.77243C15.8738 9.00256 16.0199 9.19407 16.1207 9.32756C16.1711 9.39429 16.2101 9.44645 16.2363 9.48163L16.2658 9.52133L16.275 9.53369C16.5697 9.9339 17.1331 10.0194 17.5334 9.72464C17.9336 9.42988 18.0187 8.86601 17.724 8.46578L17.7209 8.46165L17.7122 8.44992L17.6796 8.406C17.6512 8.36794 17.6099 8.31268 17.557 8.24269C17.4513 8.10275 17.2994 7.90363 17.1132 7.66502C16.7415 7.18873 16.2296 6.55065 15.6733 5.90994C15.1209 5.27369 14.507 4.61426 13.9327 4.10681C13.6466 3.85399 13.3491 3.61987 13.0574 3.44408C12.7905 3.28317 12.415 3.10001 11.9997 3.10001ZM16.9996 8.99997L17.724 8.46578C17.724 8.46578 17.7243 8.46625 16.9996 8.99997ZM6.99967 9.00001C6.27499 8.4663 6.27499 8.4663 6.27499 8.4663L6.99967 9.00001Z" fill="#181D27"/>
</svg>
