<svg width="24" height="24" viewBox="0 0 24 24" fill="none" xmlns="http://www.w3.org/2000/svg">
<path fill-rule="evenodd" clip-rule="evenodd" d="M18.6158 13.063L18.6162 13.058L18.6173 13.0449L18.6212 12.9955C18.6246 12.9526 18.6294 12.8901 18.6352 12.8106C18.6468 12.6517 18.6622 12.4245 18.6781 12.1495C18.7097 11.6004 18.743 10.8563 18.7491 10.0822C18.7551 9.31269 18.7345 8.49269 18.6535 7.79906C18.6131 7.45322 18.5554 7.1174 18.4703 6.82569C18.3916 6.55621 18.2624 6.22476 18.0189 5.98121C17.7753 5.73768 17.4439 5.60843 17.1744 5.52978C16.8827 5.44465 16.5468 5.38693 16.201 5.34655C15.5073 5.26556 14.6874 5.24493 13.9178 5.25095C13.1437 5.25701 12.3996 5.29031 11.8505 5.32191C11.5755 5.33773 11.3483 5.3532 11.1894 5.36475C11.1099 5.37052 11.0475 5.37533 11.0046 5.37871L10.9552 5.38266L10.9421 5.38374L10.937 5.38416C10.5243 5.41896 10.2179 5.78176 10.2527 6.19451C10.2875 6.60724 10.6503 6.91363 11.063 6.87887L11.0662 6.8786L11.0773 6.87769L11.1225 6.87407C11.1625 6.87091 11.2219 6.86634 11.2981 6.8608C11.4506 6.84972 11.6702 6.83477 11.9367 6.81943C12.4706 6.7887 13.1883 6.75671 13.9295 6.75091C14.6752 6.74507 15.4239 6.76601 16.027 6.83643C16.0499 6.8391 16.0725 6.84183 16.0947 6.84462L5.46967 17.4697C5.17678 17.7626 5.17678 18.2374 5.46967 18.5303C5.76256 18.8232 6.23744 18.8232 6.53033 18.5303L17.1554 7.90524C17.1582 7.92749 17.1609 7.95007 17.1636 7.97299C17.234 8.57609 17.255 9.32478 17.2491 10.0705C17.2433 10.8117 17.2113 11.5294 17.1805 12.0633C17.1652 12.3298 17.1502 12.5494 17.1392 12.7019C17.1336 12.7781 17.129 12.8375 17.1259 12.8776L17.1223 12.9228L17.1214 12.9339L17.1211 12.9364C17.0863 13.3492 17.3927 13.7125 17.8054 13.7474C18.2182 13.7822 18.581 13.4758 18.6158 13.063ZM11 6.13151L10.937 5.38416C10.937 5.38416 10.937 5.38416 11 6.13151ZM17.8684 13C18.6158 13.063 18.6158 13.063 18.6158 13.063L17.8684 13Z" fill="#181D27"/>
</svg>
