<svg width="24" height="24" viewBox="0 0 24 24" fill="none" xmlns="http://www.w3.org/2000/svg">
<path d="M12.4 21.8C7.77 21.8 4 18.03 4 13.4V7.9C4 4.65 6.65 2 9.9 2C13.15 2 15.8 4.65 15.8 7.9V13.4C15.8 15.28 14.28 16.8 12.4 16.8C10.52 16.8 9 15.27 9 13.4V9.4C9 8.9 9.4 8.5 9.9 8.5C10.4 8.5 10.8 8.9 10.8 9.4V13.4C10.8 14.28 11.52 15 12.4 15C13.28 15 14 14.28 14 13.4V7.9C14 5.64 12.16 3.8 9.9 3.8C7.64 3.8 5.8 5.64 5.8 7.9V13.4C5.8 17.04 8.76 20 12.4 20C16.04 20 19 17.04 19 13.4V11.9C19 11.4 19.4 11 19.9 11C20.4 11 20.8 11.4 20.8 11.9V13.4C20.8 18.03 17.03 21.8 12.4 21.8Z" fill="#181D27"/>
</svg>
