<svg width="24" height="24" viewBox="0 0 24 24" fill="none" xmlns="http://www.w3.org/2000/svg">
<path fill-rule="evenodd" clip-rule="evenodd" d="M12 6.09961C12.4968 6.09987 12.9004 6.50311 12.9004 7V7.74316C13.2841 7.86853 13.6324 8.07201 13.9268 8.33398L14.5469 7.97266C14.9761 7.72268 15.527 7.86772 15.7773 8.29688C16.0274 8.72604 15.8821 9.27688 15.4531 9.52734L14.834 9.8877C14.8766 10.0854 14.9004 10.2902 14.9004 10.5C14.9004 10.7095 14.8764 10.9139 14.834 11.1113L15.4531 11.4727L15.5303 11.5234C15.8987 11.7919 16.0117 12.3008 15.7773 12.7031C15.5425 13.1057 15.0432 13.2583 14.6279 13.0693L14.5469 13.0273L13.9268 12.665C13.6324 12.9272 13.2842 13.1304 12.9004 13.2559V14C12.9004 14.4969 12.4968 14.9001 12 14.9004C11.503 14.9004 11.0996 14.497 11.0996 14V13.2559C10.7155 13.1304 10.3668 12.9274 10.0723 12.665L9.45312 13.0273C9.02389 13.2776 8.47312 13.1322 8.22266 12.7031C7.9724 12.2738 8.11762 11.7231 8.54688 11.4727L9.16504 11.1113C9.12262 10.9139 9.09961 10.7094 9.09961 10.5C9.09961 10.2903 9.12248 10.0854 9.16504 9.8877L8.54688 9.52734L8.46973 9.47656C8.101 9.20814 7.98804 8.69935 8.22266 8.29688C8.4576 7.89436 8.95682 7.74149 9.37207 7.93066L9.45312 7.97266L10.0723 8.33398C10.3668 8.0718 10.7156 7.86856 11.0996 7.74316V7C11.0996 6.50295 11.503 6.09962 12 6.09961ZM12 9.40039C11.6466 9.4004 11.3311 9.56657 11.1289 9.82812L11.0488 9.94629C10.9543 10.1081 10.9004 10.2964 10.9004 10.5C10.9004 10.7037 10.9543 10.892 11.0488 11.0537L11.1289 11.1719C11.3311 11.4334 11.6467 11.5996 12 11.5996C12.404 11.5994 12.7591 11.3823 12.9512 11.0537L13.0137 10.9277C13.069 10.7969 13.0996 10.6527 13.0996 10.5C13.0996 10.3473 13.069 10.2031 13.0137 10.0723L12.9512 9.94629C12.7591 9.6177 12.404 9.40056 12 9.40039Z" fill="#181D27"/>
<path fill-rule="evenodd" clip-rule="evenodd" d="M13.9004 1C16.8801 1 18.5202 1.00044 19.6602 2.15039C20.7999 3.30038 20.7998 4.95043 20.7998 7.9502V18.54C20.7998 20.26 20.7999 21.3004 19.9199 21.8604C18.7954 22.5966 17.522 21.7086 16.7607 21.1777L16.75 21.1699C16.6401 21.09 16.5402 21.0199 16.4502 20.96L16.3779 20.915C16.1619 20.7797 15.9518 20.6479 15.8799 20.6299C15.861 20.6393 15.787 20.6867 15.6934 20.7461C15.5875 20.8132 15.4555 20.8964 15.3496 20.96L13.4248 22.1797C12.8336 22.5542 12.4455 22.7997 11.9004 22.7998C11.3551 22.7998 10.9664 22.5543 10.375 22.1797L8.4502 20.96L8.37793 20.915C8.16184 20.7796 7.95186 20.6479 7.87988 20.6299C7.86103 20.6393 7.78706 20.6867 7.69336 20.7461C7.58745 20.8133 7.45554 20.8964 7.34961 20.96C7.25967 21.0199 7.1597 21.09 7.0498 21.1699L7.0293 21.1846C6.26708 21.7162 5.00947 22.5935 3.87988 21.8604C2.99989 21.3004 3 20.26 3 18.54V7.9502C3 4.96052 3.00002 3.30038 4.13965 2.15039C5.27965 1.00039 6.92039 1 9.90039 1H13.9004ZM9.90039 2.7998C7.15039 2.7998 6.00992 2.81992 5.41992 3.41992C4.81992 4.01992 4.7998 5.1702 4.7998 7.9502V18.5498C4.7998 19.2897 4.79993 20.0497 4.87988 20.3398C5.16972 20.2899 5.77925 19.8704 6.01953 19.7002C6.0916 19.6539 6.15885 19.6071 6.22168 19.5635C6.28068 19.5225 6.33646 19.4841 6.38965 19.4502C6.93965 19.1002 7.35039 18.8398 7.90039 18.8398H7.95996C8.46573 18.8593 8.82946 19.0874 9.36426 19.4219L9.41016 19.4502L11.3203 20.6602C11.3865 20.6999 11.4542 20.7418 11.5195 20.7822C11.7001 20.894 11.8634 20.9948 11.9297 21.0098C11.9597 20.9898 12.2205 20.8202 12.4805 20.6602L14.3896 19.4502C14.9696 19.0802 15.4 18.8199 15.96 18.8398C16.4657 18.8593 16.8295 19.0874 17.3643 19.4219L17.4102 19.4502C17.4522 19.4796 17.4996 19.5112 17.5508 19.5449C17.6211 19.5913 17.6994 19.6424 17.7803 19.7002C18.0204 19.8703 18.63 20.2998 18.9199 20.3398C18.9999 20.0497 19 19.2897 19 18.5498V7.9502C19 5.1702 18.9699 4.01992 18.3799 3.41992C17.7899 2.82005 16.65 2.79981 13.9004 2.7998H9.90039Z" fill="#181D27"/>
</svg>
