<svg width="24" height="24" viewBox="0 0 24 24" fill="none" xmlns="http://www.w3.org/2000/svg">
<path fill-rule="evenodd" clip-rule="evenodd" d="M9.86763 1.60001C8.9221 1.60001 8.12044 2.29526 7.98672 3.23131L7.71976 5.10001H3.49961C2.45027 5.10001 1.59961 5.95067 1.59961 7.00001V10C1.59961 10.1397 1.63214 10.2775 1.69462 10.4025C3.26845 13.5501 7.11203 15.6364 11.0996 15.8773V16.5C11.0996 16.9971 11.5026 17.4 11.9996 17.4C12.4967 17.4 12.8996 16.9971 12.8996 16.5V15.8773C16.8872 15.6364 20.7308 13.5501 22.3046 10.4025C22.3671 10.2775 22.3996 10.1397 22.3996 10V7.00001C22.3996 5.95068 21.549 5.10001 20.4996 5.10001H16.2809L16.014 3.23132C15.8802 2.29532 15.0786 1.60001 14.133 1.60001H9.86763ZM14.4626 5.10001L14.2321 3.4859C14.225 3.43663 14.1828 3.40001 14.133 3.40001H9.86763C9.81785 3.40001 9.77567 3.4366 9.76864 3.48585L9.53804 5.10001H14.4626ZM12.0104 14.1001C15.7282 14.1405 19.2215 12.2996 20.5996 9.77909V7.00001C20.5996 6.94477 20.5548 6.90001 20.4996 6.90001H3.49961C3.44439 6.90001 3.39961 6.94478 3.39961 7.00001V9.77909C4.77772 12.2995 8.27086 14.1404 11.9886 14.1001C11.989 14.1001 11.9894 14.1001 11.9898 14.1001L12.0104 14.1001C12.0106 14.1001 12.0101 14.1001 12.0104 14.1001Z" fill="#181D27"/>
<path d="M21.897 15.069C21.9352 14.5734 21.5643 14.1408 21.0687 14.1027C20.5731 14.0645 20.1405 14.4354 20.1023 14.931L19.7443 19.5844C19.7003 20.1574 19.2224 20.6 18.6476 20.6H5.35171C4.77691 20.6 4.29903 20.1575 4.25495 19.5844L3.897 14.931C3.85888 14.4354 3.42622 14.0645 2.93063 14.1027C2.43503 14.1408 2.06418 14.5734 2.1023 15.069L2.46025 19.7224C2.57647 21.2333 3.83636 22.4 5.35171 22.4H18.6476C20.1629 22.4 21.4229 21.2334 21.539 19.7224L21.897 15.069Z" fill="#181D27"/>
</svg>
