<svg width="24" height="24" viewBox="0 0 24 24" fill="none" xmlns="http://www.w3.org/2000/svg">
<path fill-rule="evenodd" clip-rule="evenodd" d="M6.74023 20.82C7.74023 20.98 9.05023 21 10.9002 21L10.8902 21.03C11.3902 21.03 11.7902 21.43 11.7902 21.93C11.7902 22.43 11.3902 22.83 10.8902 22.83C9.07024 22.82 7.61023 22.81 6.44023 22.62C5.24023 22.42 4.26023 22.02 3.48023 21.18C2.67023 20.3 2.32023 19.21 2.15023 17.86C1.99023 16.55 1.99023 14.87 1.99023 12.74V12.1C1.99023 9.96999 1.99023 8.28999 2.15023 6.97999C2.32023 5.62999 2.67023 4.52999 3.48023 3.65999C4.04023 3.04999 4.72023 2.68999 5.49023 2.44999V1.90999C5.49023 1.40999 5.89023 1.00999 6.39023 1.00999C6.89023 1.00999 7.29023 1.40999 7.29023 1.90999V2.11999C8.41023 2.00999 9.75023 2.00999 11.3702 2.00999H13.4102C15.0302 2.00999 16.3702 2.01999 17.4902 2.11999V1.90999C17.4902 1.40999 17.8902 1.00999 18.3902 1.00999C18.8902 1.00999 19.2902 1.40999 19.2902 1.90999V2.44999C20.0702 2.68999 20.7402 3.04999 21.3002 3.65999C22.0602 4.47999 22.4202 5.49999 22.6002 6.73999C22.7702 7.95999 22.7902 9.48999 22.7902 11.41C22.7902 11.91 22.3902 12.31 21.8902 12.31C21.3902 12.31 20.9902 11.91 20.9902 11.41C20.9902 10.41 20.9902 9.54999 20.9602 8.80999H3.83023C3.80023 9.72999 3.80023 10.82 3.80023 12.15V12.66C3.80023 14.86 3.80023 16.43 3.95023 17.62C4.09023 18.79 4.37023 19.46 4.81023 19.94C5.22023 20.39 5.78023 20.66 6.74023 20.82ZM6.40023 4.79999C6.05023 4.79999 5.76023 4.58999 5.61023 4.29999H5.60023C5.28023 4.43999 5.02023 4.62999 4.81023 4.85999C4.39023 5.31999 4.13023 5.94999 3.98023 6.99999H20.8202V6.97999C20.6702 5.92999 20.4002 5.30999 19.9802 4.85999C19.7702 4.62999 19.5202 4.44999 19.1902 4.29999C19.0502 4.58999 18.7502 4.79999 18.4002 4.79999C17.9002 4.79999 17.5002 4.39999 17.5002 3.90999C16.4702 3.79999 15.1502 3.79999 13.3502 3.79999H11.4502C9.66023 3.79999 8.33023 3.79999 7.30023 3.90999C7.29023 4.39999 6.89023 4.79999 6.40023 4.79999Z" fill="#181D27"/>
<path fill-rule="evenodd" clip-rule="evenodd" d="M21.1899 14.97C21.8099 15.08 22.4999 15.41 22.7299 16.14H22.6899C22.9199 16.87 22.5499 17.54 22.1099 17.98L21.0199 19.08V19.12L21.3299 20.48C21.4799 21.1 21.4999 22 20.7999 22.51C20.0999 23.02 19.2499 22.73 18.6999 22.4L17.3899 21.62H17.3599L16.0499 22.4C15.4999 22.73 14.6499 23.02 13.9499 22.5C13.2499 21.99 13.2699 21.1 13.4099 20.47L13.7199 19.11V19.07L12.6299 17.97C12.1899 17.53 11.8299 16.86 12.0599 16.13C12.2999 15.4 12.9799 15.06 13.5999 14.96L14.9999 14.73H15.0099L15.0199 14.72L15.7999 13.15C16.0799 12.59 16.5999 12 17.3899 12C18.1799 12 18.6999 12.59 18.9799 13.15L19.7599 14.72L19.7699 14.73L19.7899 14.74L21.1899 14.97ZM19.3199 18.61C19.3999 18.36 19.5299 18.07 19.7599 17.84L19.7399 17.83L20.8299 16.73L19.4399 16.5C19.1399 16.45 18.8799 16.31 18.6799 16.16C18.4799 16.02 18.2699 15.8 18.1399 15.53L17.3799 13.99L16.6099 15.53C16.4699 15.8 16.2599 16.02 16.0699 16.16C15.8799 16.31 15.6199 16.45 15.3199 16.5L13.9299 16.73L15.0199 17.83C15.2499 18.06 15.3899 18.35 15.4599 18.6C15.5399 18.85 15.5699 19.16 15.4999 19.48L15.1899 20.82L16.4899 20.05C16.7799 19.88 17.1099 19.82 17.3899 19.82C17.6699 19.82 18.0099 19.88 18.2999 20.06L19.5899 20.83L19.2799 19.49C19.2099 19.18 19.2499 18.86 19.3199 18.61Z" fill="#181D27"/>
</svg>
