<svg width="24" height="24" viewBox="0 0 24 24" fill="none" xmlns="http://www.w3.org/2000/svg">
<path d="M7.50977 12.9C7.50977 12.4 7.90977 12 8.40977 12C8.90977 12 9.30976 12.4 9.30976 12.9C9.30976 13.4 8.89977 13.8 8.40977 13.8C7.91977 13.8 7.50977 13.4 7.50977 12.9Z" fill="#181D27"/>
<path d="M7.50977 16.9C7.50977 16.4 7.90977 16 8.40977 16C8.90977 16 9.30976 16.4 9.30976 16.9C9.30976 17.4 8.89977 17.8 8.40977 17.8C7.91977 17.8 7.50977 17.4 7.50977 16.9Z" fill="#181D27"/>
<path d="M16.4 12C15.9 12 15.5 12.4 15.5 12.9C15.5 13.4 15.91 13.8 16.4 13.8C16.89 13.8 17.3 13.4 17.3 12.9C17.3 12.4 16.9 12 16.4 12Z" fill="#181D27"/>
<path d="M11.5 12.9C11.5 12.4 11.9 12 12.4 12C12.9 12 13.3 12.4 13.3 12.9C13.3 13.4 12.89 13.8 12.4 13.8C11.91 13.8 11.5 13.4 11.5 12.9Z" fill="#181D27"/>
<path d="M12.4 16C11.9 16 11.5 16.4 11.5 16.9C11.5 17.4 11.91 17.8 12.4 17.8C12.89 17.8 13.3 17.4 13.3 16.9C13.3 16.4 12.9 16 12.4 16Z" fill="#181D27"/>
<path fill-rule="evenodd" clip-rule="evenodd" d="M19.3 2.43C20.1 2.67 20.76 3.05 21.31 3.64C22.8 5.25 22.8 7.55 22.8 12.14V12.65C22.8 17.24 22.8 19.54 21.31 21.15C19.79 22.79 17.5 22.79 13.35 22.79H11.45C7.3 22.79 5.01 22.79 3.49 21.15C2 19.54 2 17.24 2 12.65V12.14C2 7.55 2 5.25 3.49 3.64C4.04 3.05 4.7 2.67 5.5 2.43V1.9C5.5 1.4 5.9 1 6.4 1C6.9 1 7.3 1.4 7.3 1.9V2.11C8.43 2 9.79 2 11.45 2H13.35C15.01 2 16.37 2 17.5 2.11V1.9C17.5 1.4 17.9 1 18.4 1C18.9 1 19.3 1.4 19.3 1.9V2.43ZM6.4 4.8C6.05 4.8 5.76 4.6 5.61 4.31C5.29 4.46 5.03 4.63 4.81 4.87C4.36 5.36 4.12 6.05 3.98 7.01H20.82C20.68 6.05 20.44 5.35 19.99 4.87C19.77 4.63 19.5 4.45 19.19 4.31C19.04 4.6 18.75 4.8 18.4 4.8C17.91 4.8 17.51 4.41 17.5 3.92C16.5 3.81 15.17 3.8 13.35 3.8H11.45C9.63 3.8 8.31 3.82 7.3 3.92C7.29 4.41 6.89 4.8 6.4 4.8ZM19.99 19.94C21 18.84 21 16.78 21 12.66H21.01V12.15C21.01 10.83 21 9.74 20.97 8.81H3.84C3.8 9.74 3.8 10.83 3.8 12.15V12.66C3.8 16.78 3.8 18.85 4.81 19.94C5.76 20.96 7.43 21 11.45 21H13.35C17.37 21 19.04 20.96 19.99 19.94Z" fill="#181D27"/>
</svg>
