<svg width="24" height="24" viewBox="0 0 24 24" fill="none" xmlns="http://www.w3.org/2000/svg">
<path fill-rule="evenodd" clip-rule="evenodd" d="M18.9098 21.8C18.5898 21.8 18.2298 21.77 17.7798 21.72C8.27976 20.8 2.99976 15.52 2.07976 6.03C1.98976 5.11 1.93976 4.56 2.13976 3.96C2.39976 3.23 2.97976 2.58 3.67976 2.26C4.25976 2 4.82976 2 5.87976 2C6.58976 2 6.98976 2 7.39976 2.13C7.91976 2.29 8.38976 2.59 8.73976 3C9.01976 3.33 9.17976 3.69 9.46976 4.34L9.86976 5.25L9.04976 5.62L9.87976 5.26C10.1898 5.96 10.3598 6.35 10.4098 6.82C10.4498 7.27 10.3898 7.73 10.2198 8.15C10.0498 8.59 9.77976 8.92 9.27976 9.51C8.87976 9.99 8.70976 10.2 8.63976 10.38C8.58976 10.53 8.55976 10.76 8.57976 10.92C8.60976 11.1 8.69976 11.28 8.95976 11.77C9.75976 13.26 10.5298 14.04 12.0198 14.83C12.5098 15.09 12.6798 15.18 12.8698 15.21C13.0298 15.24 13.2598 15.21 13.4098 15.16C13.5798 15.1 13.7998 14.92 14.2698 14.53C14.8798 14.03 15.1998 13.76 15.6398 13.59C16.0598 13.43 16.5198 13.36 16.9698 13.4C17.4398 13.45 17.8298 13.62 18.5398 13.93L19.4498 14.33C20.1098 14.62 20.4598 14.78 20.7898 15.07C21.1998 15.43 21.4998 15.89 21.6598 16.41C21.7898 16.83 21.7898 17.22 21.7898 17.93C21.7898 18.97 21.7898 19.55 21.5298 20.13C21.2098 20.83 20.5598 21.42 19.8398 21.67C19.5298 21.78 19.2398 21.81 18.8998 21.81L18.9098 21.8ZM5.87976 3.8C5.08976 3.8 4.64976 3.8 4.42976 3.9C4.18976 4.01 3.92976 4.29 3.84976 4.54C3.76976 4.76 3.79976 5.08 3.87976 5.85C4.70976 14.49 9.31976 19.09 17.9598 19.93C18.7298 20 19.0498 20.03 19.2698 19.96C19.5198 19.87 19.7998 19.62 19.9098 19.37C20.0098 19.15 20.0098 18.69 20.0098 17.92C20.0098 17.38 20.0098 17.08 19.9598 16.92C19.8998 16.72 19.7798 16.55 19.6298 16.41C19.5098 16.3 19.2198 16.18 18.7498 15.97L17.8298 15.56C17.2998 15.32 16.9998 15.19 16.8198 15.17C16.6498 15.15 16.4698 15.17 16.3198 15.24C16.1498 15.31 15.8898 15.52 15.4698 15.87C14.8798 16.36 14.5298 16.65 14.0598 16.83C13.6198 16.99 13.0898 17.04 12.6398 16.97C12.1398 16.9 11.7698 16.7 11.2098 16.4C9.39976 15.43 8.36976 14.4 7.40976 12.6C7.09976 12.02 6.90976 11.67 6.83976 11.17C6.76976 10.71 6.82976 10.18 6.98976 9.75C7.15976 9.27 7.44976 8.92 7.93976 8.35C8.29976 7.92 8.51976 7.65 8.58976 7.49C8.64976 7.33 8.67976 7.15 8.65976 6.98C8.63976 6.8 8.50976 6.51 8.27976 5.98L7.87976 5.07C7.66976 4.59 7.53976 4.3 7.42976 4.18C7.28976 4.02 7.11976 3.91 6.91976 3.85C6.75976 3.8 6.43976 3.8 5.91976 3.8H5.87976Z" fill="#181D27"/>
</svg>
