<svg width="24" height="24" viewBox="0 0 24 24" fill="none" xmlns="http://www.w3.org/2000/svg">
<path fill-rule="evenodd" clip-rule="evenodd" d="M11.9 9.5C9.47 9.5 7.5 11.47 7.5 13.9C7.5 16.33 9.47 18.3 11.9 18.3C14.33 18.3 16.3 16.33 16.3 13.9C16.3 11.47 14.33 9.5 11.9 9.5ZM11.9 16.5C10.47 16.5 9.3 15.33 9.3 13.9C9.3 12.47 10.47 11.3 11.9 11.3C13.33 11.3 14.5 12.47 14.5 13.9C14.5 15.33 13.33 16.5 11.9 16.5Z" fill="#181D27"/>
<path d="M12.8098 5.9C12.8098 6.4 12.4098 6.8 11.9098 6.8C11.4198 6.8 11.0098 6.4 11.0098 5.9C11.0098 5.4 11.4098 5 11.9098 5C12.4098 5 12.8098 5.4 12.8098 5.9Z" fill="#181D27"/>
<path fill-rule="evenodd" clip-rule="evenodd" d="M21.99 6.53C21.78 6.26 21.54 6.02 21.27 5.81C20.25 5.03 19.36 5.01 17.11 5.01L16.74 4.08L16.7349 4.06696C16.3657 3.12912 15.9045 1.95728 14.72 1.37C14.01 1.02 13.26 1.02 11.9 1.02C10.54 1.02 9.8 1.02 9.08 1.37C7.89736 1.95147 7.44318 3.10599 7.07611 4.03907L7.06 4.08L6.69 5.01C4.44 5.01 3.54 5.03 2.53 5.82C2.26 6.03 2.02 6.27 1.81 6.54C1 7.59 1 8.95 1 11.41V15.91C1 18.89 1 20.53 2.14 21.67C3.28 22.81 4.92 22.81 7.9 22.81H15.9C18.88 22.81 20.52 22.81 21.66 21.67C22.8 20.53 22.8 18.89 22.8 15.91V11.41C22.8 8.94 22.8 7.59 21.99 6.54V6.53ZM21 15.9C21 18.65 20.98 19.79 20.39 20.38C19.8 20.97 18.66 21 15.9 21H7.9C5.15 21 4.01 20.98 3.42 20.38C2.83 19.79 2.8 18.65 2.8 15.9V11.4C2.8 9.33 2.8 8.19 3.23 7.62C3.34 7.47 3.47 7.34 3.62 7.23C4.09 6.87 4.49 6.81 6.02 6.8C5.98 7.19 6.18 7.58 6.56 7.73C6.67 7.77 6.78 7.79 6.89 7.79C7.25 7.79 7.59 7.58 7.73 7.22L8.73 4.7C9.02 3.94 9.3 3.23 9.87 2.95C10.21 2.78 10.8 2.78 11.89 2.78C12.98 2.78 13.57 2.78 13.91 2.95C14.48 3.23 14.76 3.95 15.05 4.7L16.05 7.21C16.23 7.67 16.76 7.9 17.22 7.71C17.6 7.56 17.81 7.17 17.76 6.78C19.29 6.79 19.69 6.85 20.16 7.21C20.31 7.32 20.44 7.45 20.55 7.6C20.98 8.17 20.98 9.31 20.98 11.38V15.88L21 15.9Z" fill="#181D27"/>
</svg>
