<svg xmlns="http://www.w3.org/2000/svg" width="24" height="24" fill="currentColor" viewBox="0 0 24 24">
  <path d="M8.854 5.63a.9.9 0 0 0-1.286-1.26L5.282 6.705c-.32.327-.624.638-.825.91-.19.258-.52.789-.266 1.415.257.635.874.776 1.192.822.332.048.765.048 1.216.048H19a.9.9 0 0 0 0-1.8H6.436l.174-.178L8.854 5.63Zm8.709 10.27-.173.178-2.244 2.292a.9.9 0 1 0 1.286 1.26l2.285-2.335c.32-.327.625-.638.825-.91.19-.258.52-.789.267-1.414-.258-.636-.874-.777-1.192-.823-.333-.048-.765-.048-1.216-.048H5a.9.9 0 1 0 0 1.8h12.563Z"/>
</svg>
