<svg width="24" height="24" viewBox="0 0 24 24" fill="none" xmlns="http://www.w3.org/2000/svg">
<path d="M8.85423 5.62958C9.20193 5.27438 9.19586 4.70456 8.84067 4.35686C8.48547 4.00915 7.91565 4.01522 7.56795 4.37042L5.28214 6.70546C4.9624 7.03196 4.6577 7.34311 4.45737 7.61516C4.26748 7.87305 3.93707 8.4036 4.19085 9.02951C4.44846 9.66488 5.06494 9.80624 5.3829 9.85217C5.71532 9.90019 6.14819 9.9001 6.59887 9.90001L19.0002 9.9C19.4972 9.9 19.9002 9.49706 19.9002 9C19.9002 8.50294 19.4972 8.1 19.0002 8.1L6.43644 8.09985C6.48989 8.04494 6.54753 7.98597 6.60969 7.92247L8.85423 5.62958Z" fill="#181D27"/>
<path d="M17.5633 15.9001C17.5099 15.9551 17.4522 16.014 17.3901 16.0775L15.1456 18.3704C14.7979 18.7256 14.8039 19.2954 15.1591 19.6431C15.5143 19.9909 16.0842 19.9848 16.4319 19.6296L18.7174 17.2947C19.0372 16.9682 19.342 16.6569 19.5424 16.3849C19.7322 16.127 20.0627 15.5965 19.809 14.9706C19.5513 14.3353 18.9349 14.1938 18.6169 14.1478C18.2844 14.0998 17.8515 14.0999 17.4009 14.1L4.99961 14.1C4.50255 14.1 4.09961 14.5029 4.09961 15C4.09961 15.4971 4.50255 15.9 4.99961 15.9L17.5633 15.9001Z" fill="#181D27"/>
</svg>
