<svg xmlns="http://www.w3.org/2000/svg" width="24" height="24" fill="currentColor" viewBox="0 0 24 24">
  <path d="M15.6 3a.9.9 0 0 1 .9-.9h3a.9.9 0 0 1 .9.9v3a.9.9 0 1 1-1.8 0v-.791c-.561.525-1.346 1.2-2.382 1.956-2.385 1.74-6.092 3.908-11.434 5.689a.9.9 0 1 1-.569-1.708c5.16-1.72 8.702-3.8 10.942-5.436a23.462 23.462 0 0 0 2.207-1.81H16.5a.9.9 0 0 1-.9-.9Z"/>
  <path fill-rule="evenodd" d="M18.975 8.1h.05c.21 0 .412 0 .583.012.185.012.399.042.619.133a1.9 1.9 0 0 1 1.028 1.028c.091.22.12.433.133.619.012.17.012.372.012.583v9.05c0 .211 0 .413-.012.583a1.93 1.93 0 0 1-.133.619 1.901 1.901 0 0 1-1.028 1.028 1.93 1.93 0 0 1-.619.133c-.17.012-.372.012-.584.012h-.05c-.21 0-.412 0-.583-.012a1.927 1.927 0 0 1-.618-.133 1.9 1.9 0 0 1-1.029-1.028 1.931 1.931 0 0 1-.133-.619c-.011-.17-.011-.372-.011-.583v-9.05c0-.211 0-.413.011-.583a1.93 1.93 0 0 1 .133-.619 1.9 1.9 0 0 1 1.029-1.028c.22-.091.433-.12.618-.133.17-.012.372-.012.584-.012Zm-.526 1.814a.1.1 0 0 0-.036.035.876.876 0 0 0-.006.065 8.24 8.24 0 0 0-.007.486v9c0 .245 0 .384.007.486a.879.879 0 0 0 .006.065.1.1 0 0 0 .036.035.879.879 0 0 0 .065.007c.102.006.24.007.486.007.245 0 .384 0 .485-.007a.879.879 0 0 0 .066-.007.1.1 0 0 0 .035-.035.825.825 0 0 0 .006-.065 8.24 8.24 0 0 0 .008-.486v-9c0-.245 0-.384-.008-.486a.822.822 0 0 0-.006-.065.1.1 0 0 0-.035-.035.858.858 0 0 0-.066-.007A8.197 8.197 0 0 0 19 9.9a8.2 8.2 0 0 0-.486.007.848.848 0 0 0-.065.007ZM11.975 11.6h.05c.21 0 .412 0 .583.012.185.012.399.042.619.133a1.9 1.9 0 0 1 1.028 1.028c.091.22.12.433.133.619.012.17.012.372.012.583v5.55c0 .211 0 .413-.012.583a1.929 1.929 0 0 1-.133.619 1.901 1.901 0 0 1-1.028 1.028 1.93 1.93 0 0 1-.619.133c-.17.012-.372.012-.584.012h-.05c-.21 0-.412 0-.583-.012a1.927 1.927 0 0 1-.618-.133 1.9 1.9 0 0 1-1.029-1.028 1.932 1.932 0 0 1-.133-.619 9.094 9.094 0 0 1-.011-.583v-5.55c0-.211 0-.413.011-.583a1.93 1.93 0 0 1 .133-.619 1.901 1.901 0 0 1 1.028-1.028c.22-.091.434-.12.62-.133.17-.012.371-.012.583-.012Zm-.526 1.814a.1.1 0 0 0-.035.035.879.879 0 0 0-.007.065A8.24 8.24 0 0 0 11.4 14v5.5c0 .245 0 .384.007.486a.879.879 0 0 0 .007.065.1.1 0 0 0 .035.035.879.879 0 0 0 .065.007c.102.006.24.007.486.007.245 0 .384 0 .486-.007a.879.879 0 0 0 .064-.007.1.1 0 0 0 .036-.035.879.879 0 0 0 .006-.065 8.24 8.24 0 0 0 .008-.486V14c0-.245 0-.384-.008-.486a.879.879 0 0 0-.006-.065.1.1 0 0 0-.036-.035.879.879 0 0 0-.065-.007A8.24 8.24 0 0 0 12 13.4c-.246 0-.384 0-.486.007a.879.879 0 0 0-.065.007Zm-6.474.686c-.212 0-.413 0-.584.012a1.93 1.93 0 0 0-.619.133 1.9 1.9 0 0 0-1.028 1.028 1.93 1.93 0 0 0-.133.619c-.011.17-.011.372-.011.583v3.05c0 .211 0 .413.011.583.013.186.042.4.133.62a1.9 1.9 0 0 0 1.029 1.027c.22.091.433.12.618.133.17.012.372.012.584.012h.05c.211 0 .412 0 .583-.012a1.93 1.93 0 0 0 .619-.133 1.9 1.9 0 0 0 1.028-1.028c.091-.22.12-.433.133-.619.012-.17.012-.372.012-.583v-3.05c0-.211 0-.413-.012-.583a1.93 1.93 0 0 0-.133-.62 1.9 1.9 0 0 0-1.028-1.027 1.93 1.93 0 0 0-.619-.133c-.17-.012-.372-.012-.584-.012h-.05Zm-.561 1.85a.1.1 0 0 1 .035-.036.876.876 0 0 1 .065-.007c.101-.007.24-.007.486-.007.245 0 .384 0 .486.007a.875.875 0 0 1 .064.007.1.1 0 0 1 .036.035.851.851 0 0 1 .006.065 8.2 8.2 0 0 1 .008.486v3c0 .245 0 .384-.008.486a.851.851 0 0 1-.006.065.1.1 0 0 1-.036.035.875.875 0 0 1-.064.007A9.298 9.298 0 0 1 5 20.1c-.246 0-.385 0-.486-.007a.875.875 0 0 1-.065-.007.1.1 0 0 1-.035-.035.858.858 0 0 1-.007-.065A8.197 8.197 0 0 1 4.4 19.5v-3c0-.245 0-.384.007-.486a.858.858 0 0 1 .006-.065Z" clip-rule="evenodd"/>
</svg>
