<svg width="24" height="24" viewBox="0 0 24 24" fill="none" xmlns="http://www.w3.org/2000/svg">
<path d="M5.22 22.8C4.78 22.8 4.33 22.76 3.89 22.68C3.58 22.62 3.32 22.4 3.21 22.11C3.1 21.81 3.16 21.48 3.36 21.23C3.81 20.67 4.12 20 4.26 19.28C4.29 19.1 4.19 18.87 3.98 18.66C2.06 16.71 1 14.16 1 11.47C1 5.7 5.89 1 11.9 1C17.91 1 22.8 5.7 22.8 11.47C22.8 17.24 17.91 21.94 11.9 21.94C11.22 21.98 10.49 21.87 9.8 21.74C9.55 21.69 9.29 21.64 9.22 21.64C9.22 21.65 8.96 21.79 8.71 21.93C7.63 22.51 6.43 22.8 5.22 22.8ZM11.9 2.8C6.88 2.8 2.8 6.69 2.8 11.47C2.8 13.68 3.67 15.78 5.26 17.39C5.89 18.03 6.17 18.84 6.02 19.61C5.93 20.09 5.78 20.55 5.59 20.99C6.37 20.94 7.15 20.72 7.85 20.34C8.4 20.05 8.67 19.91 8.98 19.86C9.29 19.81 9.57 19.86 10.13 19.97C10.71 20.08 11.3 20.13 11.88 20.13H11.89C16.91 20.13 20.99 16.24 20.99 11.46C20.99 6.68 16.92 2.8 11.9 2.8Z" fill="#181D27"/>
<path fill-rule="evenodd" clip-rule="evenodd" d="M6.65 11.9C6.65 11.21 7.21 10.65 7.9 10.65C8.59 10.65 9.15 11.21 9.15 11.9C9.15 12.59 8.59 13.15 7.9 13.15C7.21 13.15 6.65 12.59 6.65 11.9ZM10.65 11.9C10.65 11.21 11.21 10.65 11.9 10.65C12.59 10.65 13.15 11.21 13.15 11.9C13.15 12.59 12.59 13.15 11.9 13.15C11.21 13.15 10.65 12.59 10.65 11.9ZM14.64 11.9C14.64 11.21 15.2 10.65 15.89 10.65C16.58 10.65 17.14 11.21 17.14 11.9C17.14 12.59 16.58 13.15 15.89 13.15C15.2 13.15 14.64 12.59 14.64 11.9Z" fill="#181D27"/>
</svg>
