<svg width="24" height="24" viewBox="0 0 24 24" fill="none" xmlns="http://www.w3.org/2000/svg">
<path fill-rule="evenodd" clip-rule="evenodd" d="M6.75 12C6.75 11.3096 7.30964 10.75 8 10.75H8.00897C8.69933 10.75 9.25897 11.3096 9.25897 12C9.25897 12.6904 8.69933 13.25 8.00897 13.25H8C7.30964 13.25 6.75 12.6904 6.75 12ZM10.7455 12C10.7455 11.3096 11.3051 10.75 11.9955 10.75H12.0045C12.6949 10.75 13.2545 11.3096 13.2545 12C13.2545 12.6904 12.6949 13.25 12.0045 13.25H11.9955C11.3051 13.25 10.7455 12.6904 10.7455 12ZM14.741 12C14.741 11.3096 15.3006 10.75 15.991 10.75H16C16.6904 10.75 17.25 11.3096 17.25 12C17.25 12.6904 16.6904 13.25 16 13.25H15.991C15.3006 13.25 14.741 12.6904 14.741 12Z" fill="#181D27"/>
<path d="M5.22 22.8C4.78 22.8 4.33 22.76 3.89 22.68C3.58 22.62 3.32 22.4 3.21 22.11C3.1 21.81 3.16 21.48 3.36 21.23C3.81 20.67 4.12 20 4.26 19.28C4.29 19.1 4.19 18.87 3.98 18.66C2.06 16.71 1 14.16 1 11.47C1 5.7 5.89 1 11.9 1C12.4 1 12.8 1.4 12.8 1.9C12.8 2.4 12.4 2.8 11.9 2.8C6.88 2.8 2.8 6.69 2.8 11.47C2.8 13.68 3.67 15.78 5.26 17.39C5.89 18.03 6.17 18.84 6.02 19.61C5.93 20.09 5.78 20.55 5.59 20.99C6.37 20.94 7.15 20.72 7.85 20.34C8.4 20.05 8.67 19.91 8.98 19.86C9.29 19.81 9.57 19.86 10.13 19.97C10.71 20.08 11.3 20.13 11.88 20.13H11.89C16.91 20.13 20.99 16.24 20.99 11.46C20.99 10.67 20.88 9.89 20.66 9.14C20.52 8.66 20.8 8.16 21.27 8.02C21.75 7.88 22.25 8.16 22.39 8.63C22.66 9.54 22.79 10.49 22.79 11.45C22.79 17.22 17.9 21.92 11.89 21.92C11.21 21.96 10.48 21.85 9.79 21.72C9.54 21.67 9.28 21.62 9.21 21.62C9.21 21.63 8.95 21.77 8.7 21.91C7.62 22.49 6.42 22.78 5.21 22.78L5.22 22.8Z" fill="#181D27"/>
<path d="M15.9 8.8C15.9 8.8 15.87 8.8 15.85 8.8C15.53 8.78 15.24 8.59 15.09 8.3C14.41 6.93 13.82 6.79 13.81 6.79C13.31 6.79 12.95 6.39 12.95 5.89C12.95 5.39 13.39 4.99 13.89 4.99C14.09 4.99 14.98 5.06 15.92 6.25C17.09 4.62 19.36 1.83 21.59 1.04C22.06 0.870001 22.57 1.12 22.74 1.59C22.91 2.06 22.66 2.57 22.19 2.74C20.12 3.47 17.49 7.06 16.65 8.37C16.48 8.63 16.2 8.79 15.89 8.79L15.9 8.8Z" fill="#181D27"/>
</svg>
