<svg width="24" height="24" viewBox="0 0 24 24" fill="none" xmlns="http://www.w3.org/2000/svg">
<path d="M9.76 15.54C9.93 15.71 10.16 15.8 10.4 15.8L10.39 15.79H10.41C10.65 15.79 10.88 15.68 11.05 15.5L16.55 9.5C16.89 9.14 16.87 8.57 16.5 8.23C16.14 7.9 15.56 7.92 15.23 8.29L10.36 13.6L8.53 11.77C8.18 11.42 7.61 11.42 7.26 11.77C6.91 12.12 6.91 12.69 7.26 13.04L9.76 15.54Z" fill="#181D27"/>
<path fill-rule="evenodd" clip-rule="evenodd" d="M1 11.9C1 17.91 5.89 22.8 11.9 22.8C17.91 22.8 22.8 17.91 22.8 11.9C22.8 5.89 17.91 1 11.9 1C5.89 1 1 5.89 1 11.9ZM2.8 11.9C2.8 6.88 6.88 2.8 11.9 2.8C16.92 2.8 21 6.88 21 11.9C21 16.92 16.92 21 11.9 21C6.88 21 2.8 16.92 2.8 11.9Z" fill="#181D27"/>
</svg>
