<svg width="24" height="24" viewBox="0 0 24 24" fill="none" xmlns="http://www.w3.org/2000/svg">
<path fill-rule="evenodd" clip-rule="evenodd" d="M11.932 1.6H12.0672C14.249 1.59998 15.9781 1.59997 17.3316 1.78193C18.7249 1.96925 19.8541 2.36413 20.7448 3.25483C21.6355 4.14555 22.0304 5.27476 22.2177 6.66804C22.3996 8.02148 22.3996 9.75057 22.3996 11.9324V12.0676C22.3996 14.2494 22.3996 15.9785 22.2177 17.3319C22.0304 18.7252 21.6355 19.8544 20.7448 20.7452C19.8541 21.6359 18.7248 22.0308 17.3316 22.2181C15.9781 22.4 14.249 22.4 12.0672 22.4H11.932C9.75018 22.4 8.0211 22.4 6.66765 22.2181C5.27437 22.0308 4.14518 21.6359 3.25447 20.7452C2.36377 19.8545 1.96886 18.7252 1.78154 17.3319C1.59958 15.9785 1.59959 14.2494 1.59961 12.0677V11.9324C1.59959 9.75058 1.59958 8.02148 1.78154 6.66804C1.96886 5.27475 2.36374 4.14556 3.25445 3.25485C4.14517 2.36414 5.27436 1.96925 6.66765 1.78193C8.02109 1.59997 9.75019 1.59998 11.932 1.6ZM16.663 9.60815C16.9989 9.24174 16.9742 8.67243 16.6078 8.33656C16.2414 8.00069 15.672 8.02544 15.3362 8.39184L10.4713 13.6989L8.63601 11.8636C8.28453 11.5121 7.71469 11.5121 7.36321 11.8636C7.01174 12.2151 7.01174 12.7849 7.36321 13.1364L9.86321 15.6364C10.0368 15.81 10.2737 15.9051 10.5192 15.8998C10.7646 15.8945 10.9972 15.7891 11.163 15.6081L16.663 9.60815Z" fill="#181D27"/>
</svg>
