<svg width="24" height="24" viewBox="0 0 24 24" fill="none" xmlns="http://www.w3.org/2000/svg">
<path d="M7.52383 14.2367C7.94526 13.9737 8.50074 14.1025 8.76406 14.5238C9.02674 14.9452 8.89811 15.5008 8.47695 15.764C7.68129 16.2616 6.89856 17.3358 6.28164 18.4154C5.98502 18.9345 5.74649 19.4186 5.58242 19.7728C5.50063 19.9494 5.43773 20.093 5.3959 20.1908C5.3752 20.2392 5.3601 20.2767 5.35 20.3011C5.34497 20.3133 5.34053 20.3229 5.33828 20.3285C5.33723 20.3311 5.33673 20.3333 5.33633 20.3343L5.27871 20.4515C5.12751 20.7124 4.85316 20.883 4.54629 20.8988C4.23946 20.9144 3.94889 20.7726 3.77187 20.5287L3.70254 20.4173C3.52168 20.072 3.23204 19.7526 2.95937 19.5062C2.8277 19.3873 2.70906 19.2935 2.62539 19.2308C2.58412 19.1999 2.55111 19.1767 2.53066 19.1625C2.52079 19.1556 2.51303 19.1504 2.50918 19.1478C2.50795 19.147 2.50671 19.1462 2.50625 19.1459L2.5082 19.1468L2.50918 19.1459C2.09318 18.8744 1.97525 18.318 2.24648 17.9017C2.51786 17.4855 3.07525 17.3679 3.4916 17.639L3.21523 18.0638C3.49196 17.6394 3.49146 17.6389 3.4916 17.639L3.49258 17.64L3.49551 17.642C3.49676 17.6427 3.49889 17.6439 3.50039 17.6449C3.50396 17.6472 3.50887 17.6502 3.51406 17.6537C3.52514 17.6611 3.54013 17.6715 3.55801 17.6839C3.59415 17.7091 3.64392 17.7448 3.70351 17.7894C3.82287 17.8788 3.98617 18.0084 4.1664 18.1713C4.20967 18.2104 4.25314 18.2541 4.29922 18.2982C4.42302 18.0564 4.56391 17.7945 4.71914 17.5228C5.35207 16.4152 6.3197 14.9893 7.52383 14.2367Z" fill="#181D27"/>
<path d="M21.0912 17.1048C21.5452 17.1508 21.8998 17.5343 21.8998 18.0004C21.8996 18.4663 21.545 18.8499 21.0912 18.8959L20.9994 18.9007H10.9994C10.5026 18.9006 10.0992 18.4972 10.099 18.0004C10.099 17.5034 10.5025 17.1001 10.9994 17.1H20.9994L21.0912 17.1048Z" fill="#181D27"/>
<path d="M21.0912 11.1048C21.5452 11.1508 21.8998 11.5343 21.8998 12.0004C21.8996 12.4663 21.545 12.8499 21.0912 12.8959L20.9994 12.9007H10.9994C10.5026 12.9006 10.0992 12.4972 10.099 12.0004C10.099 11.5034 10.5025 11.1001 10.9994 11.1H20.9994L21.0912 11.1048Z" fill="#181D27"/>
<path d="M7.52383 3.23668C7.94526 2.97373 8.50074 3.10248 8.76406 3.52379C9.02675 3.94517 8.89811 4.50076 8.47695 4.76403C7.68129 5.26158 6.89856 6.3358 6.28164 7.4154C5.98502 7.93448 5.74649 8.41858 5.58242 8.77282C5.50063 8.94942 5.43773 9.09303 5.3959 9.19079C5.3752 9.23915 5.3601 9.27668 5.35 9.30114C5.34497 9.31329 5.34053 9.32295 5.33828 9.32848C5.33723 9.3311 5.33673 9.33334 5.33633 9.33434L5.27871 9.45153C5.12751 9.71239 4.85316 9.88303 4.54629 9.89879C4.23946 9.9144 3.94889 9.77262 3.77187 9.52868L3.70254 9.41735C3.52168 9.07199 3.23205 8.75264 2.95937 8.50622C2.82771 8.38725 2.70906 8.29349 2.62539 8.23082C2.58413 8.19994 2.55111 8.17669 2.53066 8.16247C2.52078 8.1556 2.51303 8.1504 2.50918 8.14782C2.50794 8.14699 2.50671 8.14617 2.50625 8.14586L2.5082 8.14684L2.50918 8.14586C2.09316 7.87436 1.97525 7.31797 2.24648 6.90172C2.51786 6.48545 3.07524 6.36784 3.4916 6.63903L3.21523 7.06383C3.49198 6.63934 3.49146 6.63894 3.4916 6.63903L3.49258 6.64L3.49551 6.64098C3.4968 6.64193 3.4987 6.64377 3.50039 6.64489C3.50396 6.64724 3.50886 6.65018 3.51406 6.65368C3.52515 6.66114 3.54012 6.67152 3.55801 6.68395C3.59416 6.70909 3.64391 6.7448 3.70351 6.78942C3.82283 6.87876 3.98623 7.00749 4.1664 7.17028C4.20977 7.20949 4.25302 7.25404 4.29922 7.29821C4.42302 7.0564 4.56391 6.79448 4.71914 6.52282C5.35207 5.41518 6.3197 3.98926 7.52383 3.23668Z" fill="#181D27"/>
<path d="M21.0912 5.10485C21.5452 5.15083 21.8998 5.53428 21.8998 6.00036C21.8996 6.46627 21.545 6.8499 21.0912 6.89586L20.9994 6.90075H10.9994C10.5026 6.90061 10.0992 6.49717 10.099 6.00036C10.099 5.50338 10.5025 5.1001 10.9994 5.09997H20.9994L21.0912 5.10485Z" fill="#181D27"/>
</svg>
