<svg width="24" height="24" viewBox="0 0 24 24" fill="none" xmlns="http://www.w3.org/2000/svg">
<path d="M16.0918 11.1045C16.5457 11.1505 16.9004 11.5339 16.9004 12C16.9004 12.4661 16.5457 12.8495 16.0918 12.8955L16 12.9004H8C7.50294 12.9004 7.09961 12.4971 7.09961 12C7.09961 11.5029 7.50294 11.0996 8 11.0996H16L16.0918 11.1045Z" fill="#181D27"/>
<path fill-rule="evenodd" clip-rule="evenodd" d="M12 1.59961C14.2137 1.59961 15.9646 1.59839 17.332 1.78223C18.7253 1.96956 19.8544 2.36421 20.7451 3.25488L20.9062 3.4248C21.6842 4.28787 22.0422 5.3618 22.2178 6.66797C22.4016 8.03537 22.4004 9.78627 22.4004 12C22.4004 14.2137 22.4016 15.9646 22.2178 17.332C22.0422 18.6382 21.6842 19.7121 20.9062 20.5752L20.7451 20.7451C19.8544 21.6358 18.7253 22.0305 17.332 22.2178C15.9646 22.4016 14.2137 22.4004 12 22.4004C9.78627 22.4004 8.03537 22.4016 6.66797 22.2178C5.3618 22.0422 4.28787 21.6842 3.4248 20.9062L3.25488 20.7451C2.36421 19.8544 1.96956 18.7253 1.78223 17.332C1.59839 15.9646 1.59961 14.2137 1.59961 12C1.59961 9.78627 1.59838 8.03537 1.78223 6.66797C1.96956 5.27473 2.3642 4.14558 3.25488 3.25488L3.4248 3.09375C4.28787 2.31578 5.3618 1.95785 6.66797 1.78223C8.03537 1.59838 9.78627 1.59961 12 1.59961ZM12 3.40039C9.73562 3.40039 8.12774 3.40151 6.9082 3.56543C5.86355 3.70588 5.20758 3.95442 4.72461 4.34961L4.52734 4.52734C4.02682 5.02788 3.72592 5.71451 3.56543 6.9082C3.40151 8.12774 3.40039 9.73562 3.40039 12C3.40039 14.2644 3.40151 15.8722 3.56543 17.0918C3.72591 18.2855 4.02683 18.9721 4.52734 19.4727L4.72461 19.6504C5.20758 20.0456 5.86354 20.2941 6.9082 20.4346C8.12774 20.5985 9.73562 20.5996 12 20.5996C14.2644 20.5996 15.8722 20.5985 17.0918 20.4346C18.2855 20.2741 18.9721 19.9732 19.4727 19.4727L19.6504 19.2754C20.0456 18.7924 20.2941 18.1364 20.4346 17.0918C20.5985 15.8722 20.5996 14.2644 20.5996 12C20.5996 9.73562 20.5985 8.12774 20.4346 6.9082C20.2941 5.86354 20.0456 5.20758 19.6504 4.72461L19.4727 4.52734C18.9721 4.02683 18.2855 3.72591 17.0918 3.56543C15.8722 3.40151 14.2644 3.40039 12 3.40039Z" fill="#181D27"/>
</svg>
