<svg width="24" height="24" viewBox="0 0 24 24" fill="none" xmlns="http://www.w3.org/2000/svg">
<path d="M18.8996 19.8C18.6696 19.8 18.4396 19.71 18.2596 19.54L11.8996 13.18L5.53957 19.54C5.18957 19.89 4.61957 19.89 4.26957 19.54C3.91957 19.19 3.91957 18.62 4.26957 18.27L10.6296 11.91L4.25957 5.54C3.90957 5.19 3.90957 4.61 4.25957 4.26C4.61957 3.91 5.18957 3.91 5.53957 4.26L11.8996 10.62L18.2596 4.26C18.6096 3.91 19.1796 3.91 19.5296 4.26C19.8796 4.61 19.8796 5.18 19.5296 5.53L13.1696 11.89L19.5296 18.25C19.8796 18.6 19.8796 19.17 19.5296 19.52C19.3496 19.7 19.1196 19.78 18.8896 19.78L18.8996 19.8Z" fill="#181D27"/>
</svg>
