<svg width="24" height="24" viewBox="0 0 24 24" fill="none" xmlns="http://www.w3.org/2000/svg">
<path d="M21.6603 6.39C20.8303 5.56 19.6503 5.21 18.5103 5.32C18.5203 5.18 18.5503 5.05 18.5503 4.9C18.5503 3.86 18.1403 2.88 17.4103 2.14C15.9403 0.670002 13.3803 0.660002 11.9003 2.13C10.3803 0.620002 7.91028 0.620002 6.39028 2.14C5.52028 3.01 5.17028 4.18 5.29028 5.32C4.15028 5.21 2.98028 5.56 2.14028 6.39C0.620277 7.91 0.620277 10.38 2.13028 11.9C0.620277 13.42 0.620277 15.89 2.14028 17.41C2.88028 18.15 3.86028 18.55 4.90028 18.55C5.03028 18.55 5.15028 18.53 5.28028 18.51C5.17028 19.63 5.53028 20.79 6.38028 21.65C7.90028 23.17 10.3703 23.17 11.8903 21.66C12.6303 22.39 13.6003 22.79 14.6403 22.79C15.6803 22.79 16.6603 22.38 17.4003 21.65C18.1403 20.91 18.5403 19.93 18.5403 18.89C18.5403 18.76 18.5203 18.64 18.5003 18.51C18.6303 18.52 18.7503 18.55 18.8803 18.55C19.8803 18.55 20.8803 18.17 21.6403 17.41C23.1603 15.89 23.1603 13.42 21.6503 11.9C23.1603 10.38 23.1603 7.91 21.6403 6.39H21.6603ZM7.66028 3.42C8.07028 3.01 8.61028 2.8 9.15028 2.8C9.69028 2.8 10.2303 3.01 10.6403 3.41L11.2603 4.04C11.4303 4.21 11.6603 4.3 11.9003 4.3C12.1403 4.3 12.3703 4.21 12.5403 4.04L13.1703 3.41C13.9903 2.59 15.3303 2.59 16.1503 3.41C16.5503 3.81 16.7703 4.34 16.7703 4.9C16.7703 5.46 16.5503 5.99 16.1503 6.39L11.9103 10.63L7.67028 6.39C6.85028 5.57 6.85028 4.23 7.67028 3.41L7.66028 3.42ZM3.41028 16.14C2.59028 15.32 2.59028 13.98 3.41028 13.16L4.03028 12.54C4.38028 12.19 4.38028 11.62 4.03028 11.27L3.41028 10.64C3.01028 10.24 2.79028 9.71 2.79028 9.15C2.79028 8.59 3.01028 8.06 3.41028 7.66C3.81028 7.26 4.34028 7.04 4.90028 7.04C5.46028 7.04 5.99028 7.26 6.39028 7.66L10.6303 11.9L6.39028 16.14C5.57028 16.96 4.24028 16.96 3.42028 16.14H3.41028ZM16.7503 18.9C16.7503 19.46 16.5303 19.99 16.1303 20.39C15.3303 21.18 13.9503 21.18 13.1603 20.39L12.5303 19.76C12.3603 19.59 12.1303 19.5 11.8903 19.5C11.6503 19.5 11.4203 19.6 11.2503 19.76L10.6303 20.39C9.81028 21.21 8.48028 21.21 7.66028 20.39C6.84028 19.57 6.84028 18.23 7.66028 17.41L11.9003 13.17L16.1403 17.41C16.5403 17.81 16.7603 18.34 16.7603 18.9H16.7503ZM19.7603 12.54L20.3803 13.16C21.2003 13.98 21.2003 15.32 20.3803 16.14C19.5603 16.96 18.2303 16.96 17.4003 16.14L13.1603 11.9L17.4003 7.66C18.1903 6.86 19.5803 6.87 20.3803 7.66C20.7803 8.06 21.0003 8.59 21.0003 9.15C21.0003 9.71 20.7803 10.24 20.3803 10.64L19.7603 11.27C19.4103 11.62 19.4103 12.19 19.7603 12.54Z" fill="#181D27"/>
</svg>
