<svg width="24" height="24" viewBox="0 0 24 24" fill="none" xmlns="http://www.w3.org/2000/svg">
<path d="M20.3499 4.51C17.8799 2.41 14.3399 2.49 11.9999 4.63C9.63987 2.5 6.10987 2.42 3.64987 4.51C2.28987 5.67 1.48987 7.36 1.45987 9.15C1.42987 10.94 2.15987 12.67 3.46987 13.87C4.74987 15.05 6.02987 16.29 7.25987 17.49L7.75987 17.98C8.17987 18.39 8.73987 18.61 9.30987 18.61C9.43987 18.61 9.56987 18.6 9.69987 18.57C10.3999 18.44 10.9699 17.99 11.2799 17.34C11.6699 16.51 11.4399 15.76 11.2399 15.27C11.1399 15.04 11.0499 14.81 10.9699 14.58C10.9999 14.56 11.0299 14.55 11.0499 14.53C11.2999 14.37 11.5399 14.19 11.7599 14.01C13.1099 12.9 13.9299 11.25 14.0099 9.47C14.0699 8.23 13.7499 7.03 13.1399 6.01C14.8199 4.43 17.3899 4.36 19.1699 5.88C20.1299 6.7 20.6999 7.91 20.7199 9.19C20.7399 10.47 20.2199 11.7 19.2799 12.57L14.5099 17.12C14.1499 17.46 14.1399 18.03 14.4799 18.39C14.6599 18.58 14.8899 18.67 15.1299 18.67C15.3499 18.67 15.5799 18.59 15.7499 18.42L20.5099 13.88C21.8199 12.67 22.5499 10.95 22.5199 9.16C22.4899 7.37 21.6899 5.68 20.3399 4.52L20.3499 4.51ZM10.6099 12.63C10.4399 12.77 10.2599 12.91 10.0699 13.03C9.94987 13.11 9.81987 13.17 9.66987 13.25L8.70987 13.75L9.16987 14.94C9.29987 15.29 9.42987 15.63 9.57987 15.97C9.73987 16.35 9.69987 16.48 9.64987 16.59C9.57987 16.74 9.45987 16.8 9.37987 16.81C9.29987 16.82 9.15987 16.83 9.01987 16.69L8.48987 16.17C7.25987 14.97 5.97987 13.73 4.68987 12.55C3.75987 11.69 3.22987 10.47 3.25987 9.19C3.27987 7.91 3.84987 6.71 4.81987 5.89C5.69987 5.14 6.74987 4.77 7.78987 4.77C8.92987 4.77 10.0499 5.21 10.9499 6.09C11.8099 6.94 12.2799 8.15 12.2199 9.4C12.1599 10.67 11.5799 11.84 10.6199 12.64L10.6099 12.63Z" fill="#181D27"/>
<path d="M12.1099 18.32C12.1099 18.32 12.0999 18.32 12.0899 18.32C11.7299 18.32 11.3899 18.47 11.1399 18.73C10.8899 18.98 10.7499 19.33 10.7599 19.68C10.7599 20.04 10.8999 20.38 11.1499 20.63C11.3999 20.88 11.7399 21.02 12.0999 21.03C12.2799 21.03 12.4599 20.99 12.6299 20.92C12.7999 20.85 12.9499 20.75 13.0799 20.62C13.2099 20.49 13.3099 20.34 13.3799 20.17C13.4499 20 13.4799 19.82 13.4799 19.64C13.4599 18.93 12.8299 18.33 12.1099 18.33V18.32Z" fill="#181D27"/>
</svg>
