<svg width="24" height="24" viewBox="0 0 24 24" fill="none" xmlns="http://www.w3.org/2000/svg">
<path fill-rule="evenodd" clip-rule="evenodd" d="M16.365 7.36184C16.7174 7.01134 17.2873 7.01293 17.6378 7.36538L19.4776 9.21546C19.4901 9.22801 19.5025 9.24052 19.5149 9.253C19.8694 9.60941 20.1962 9.93795 20.4266 10.2415C20.6809 10.5767 20.8996 10.984 20.8996 11.5C20.8996 12.016 20.6809 12.4233 20.4266 12.7585C20.1962 13.0621 19.8694 13.3906 19.5149 13.747C19.5025 13.7595 19.49 13.772 19.4776 13.7845C19.4776 13.7845 19.4776 13.7845 19.4776 13.7845L17.6378 15.6346C17.2873 15.9871 16.7174 15.9887 16.365 15.6382C16.0125 15.2877 16.011 14.7178 16.3614 14.3654L18.2012 12.5153C18.6059 12.1084 18.8443 11.866 18.9926 11.6705C19.0603 11.5812 19.0862 11.5305 19.0958 11.5075C19.097 11.5044 19.098 11.5019 19.0987 11.5C19.098 11.4981 19.097 11.4956 19.0958 11.4925C19.0862 11.4695 19.0603 11.4188 18.9926 11.3295C18.8443 11.134 18.6059 10.8916 18.2012 10.4847L16.3614 8.63462C16.011 8.28217 16.0125 7.71233 16.365 7.36184Z" fill="#181D27"/>
<path fill-rule="evenodd" clip-rule="evenodd" d="M7.63423 7.36184C7.98668 7.71233 7.98827 8.28218 7.63777 8.63462L5.79798 10.4847C5.79798 10.4847 5.79799 10.4847 5.79798 10.4847C5.39336 10.8916 5.15497 11.134 5.00664 11.3295C4.93892 11.4188 4.91301 11.4695 4.90346 11.4925C4.90218 11.4956 4.90124 11.4981 4.90056 11.5C4.90124 11.5019 4.90218 11.5044 4.90346 11.5075C4.913 11.5305 4.93892 11.5812 5.00664 11.6705C5.15497 11.866 5.39334 12.1084 5.79797 12.5153C5.79797 12.5153 5.79797 12.5153 5.79797 12.5153L7.63778 14.3654C7.98827 14.7178 7.98668 15.2877 7.63423 15.6382C7.28178 15.9887 6.71193 15.9871 6.36144 15.6346L4.52163 13.7845C4.50911 13.7719 4.49661 13.7594 4.48416 13.7468C4.12972 13.3905 3.80298 13.062 3.57268 12.7585C3.31837 12.4233 3.09961 12.016 3.09961 11.5C3.09961 10.984 3.31837 10.5767 3.57267 10.2415C3.80297 9.938 4.12969 9.60952 4.48411 9.25319C4.49658 9.24065 4.50908 9.22808 4.52162 9.21548L6.36144 7.36538C6.71194 7.01293 7.28178 7.01135 7.63423 7.36184Z" fill="#181D27"/>
<path fill-rule="evenodd" clip-rule="evenodd" d="M14.7681 3.14097C15.2425 3.28923 15.5069 3.79402 15.3586 4.26845L10.3586 20.2684C10.2104 20.7429 9.70559 21.0073 9.23116 20.859C8.75673 20.7108 8.49232 20.206 8.64058 19.7316L13.6406 3.73155C13.7888 3.25712 14.2936 2.99271 14.7681 3.14097Z" fill="#181D27"/>
</svg>
