<svg width="24" height="24" viewBox="0 0 24 24" fill="none" xmlns="http://www.w3.org/2000/svg">
<path fill-rule="evenodd" clip-rule="evenodd" d="M15.3406 7.59932C15.9063 7.59932 16.4087 7.62138 16.8367 7.69112C17.2623 7.76055 17.6889 7.88856 18.0476 8.15596C18.5506 8.53113 18.7636 9.05288 18.8484 9.59932H19.6413C20.1179 9.59933 20.5506 9.61667 20.9265 9.67159C21.2983 9.72592 21.6805 9.82614 22.0134 10.0378C22.7934 10.5339 22.9235 11.3628 22.8982 12.114C22.8574 13.3196 22.5625 14.7006 21.6677 15.8903C20.7669 17.088 19.3326 17.9903 17.2087 18.3757C16.5918 19.4466 15.751 20.4446 14.6023 21.3278C14.0399 21.7602 13.49 22.0414 12.866 22.2048C12.2601 22.3633 11.6235 22.4001 10.9187 22.4001H9.0808C8.37596 22.4001 7.73933 22.3634 7.13353 22.2048C6.50967 22.0413 5.95945 21.7601 5.3972 21.3278C1.66946 18.4613 1.17521 14.3906 1.1013 10.5173C1.08537 9.68045 1.16807 8.7407 1.95189 8.15596C2.31061 7.88841 2.73712 7.76059 3.16283 7.69112C3.59074 7.62133 4.09314 7.59933 4.65892 7.59932H15.3406ZM4.65892 9.4001C4.12133 9.40012 3.735 9.4215 3.45287 9.46749C3.16879 9.51386 3.06158 9.57432 3.02806 9.59932C3.01884 9.60433 2.88598 9.68799 2.90111 10.4831C2.97375 14.2892 3.47485 17.5788 6.49486 19.9011C6.89227 20.2066 7.22799 20.3688 7.58958 20.4636C7.96972 20.5631 8.4223 20.5993 9.0808 20.5993H10.9187C11.5772 20.5993 12.0298 20.563 12.4099 20.4636C12.7716 20.3689 13.1071 20.2066 13.5046 19.9011C16.525 17.5788 17.0257 14.2894 17.0984 10.4831C17.1136 9.67998 16.9782 9.60287 16.9714 9.59932C16.9374 9.57411 16.8298 9.51366 16.5466 9.46749C16.2644 9.42154 15.8781 9.4001 15.3406 9.4001H4.65892ZM18.8728 11.4001C18.8079 13.0447 18.6301 14.7054 18.1277 16.2771C19.145 15.9089 19.8004 15.3784 20.2292 14.8083C20.8296 14.0099 21.0653 13.0311 21.0984 12.0534C21.1078 11.7746 21.0809 11.6383 21.0603 11.5798C21.05 11.5507 21.0517 11.5589 21.0476 11.5564C21.0169 11.5369 20.9167 11.4884 20.6667 11.4519C20.4204 11.4159 20.09 11.4001 19.6413 11.4001H18.8728Z" fill="#181D27"/>
<path d="M6.92845 3.33956C7.29308 3.00203 7.86319 3.02388 8.20091 3.38838C8.53801 3.75258 8.51631 4.32103 8.15306 4.65889L8.15501 4.65792L8.17162 4.64131C8.171 4.64197 8.16526 4.64844 8.15599 4.65987C8.13598 4.68459 8.09997 4.7326 8.06224 4.80245C7.98847 4.93924 7.90116 5.16871 7.90111 5.49971C7.90111 5.99668 7.49766 6.39997 7.00072 6.4001C6.50366 6.4001 6.10033 5.99677 6.10033 5.49971C6.10038 4.8313 6.28226 4.31013 6.47826 3.94698C6.57532 3.7672 6.67549 3.62722 6.75658 3.52706C6.79711 3.477 6.83368 3.43605 6.86302 3.40499C6.87758 3.38958 6.89112 3.37578 6.90208 3.36495C6.90735 3.35973 6.9124 3.35444 6.91673 3.3503C6.91888 3.3483 6.92171 3.34619 6.92357 3.34444L6.92845 3.33956C6.93171 3.34261 6.96053 3.37457 7.23314 3.66866L6.92845 3.33956Z" fill="#181D27"/>
<path d="M10.8357 1.73506C11.2582 1.47361 11.8132 1.60369 12.0749 2.02608C12.3363 2.44834 12.2057 3.00248 11.7839 3.26436C11.7012 3.31561 11.4705 3.53436 11.2566 3.96456C11.0541 4.37177 10.9021 4.90124 10.9021 5.49971C10.9021 5.99668 10.4986 6.39997 10.0017 6.4001C9.50474 6.39998 9.10228 5.99669 9.10228 5.49971C9.10233 4.59843 9.33058 3.79677 9.64525 3.16377C9.94833 2.55421 10.3719 2.02239 10.8357 1.73506Z" fill="#181D27"/>
<path d="M13.6091 3.19014C14.019 2.99084 14.522 3.13023 14.7673 3.52608C15.0024 3.90599 14.9195 4.39197 14.5935 4.67647C14.5707 4.72031 14.5391 4.79348 14.5076 4.89424C14.4373 5.11893 14.4012 5.36003 14.4011 5.49971C14.4011 5.99668 13.9977 6.39997 13.5007 6.4001C13.0037 6.4001 12.6003 5.99677 12.6003 5.49971C12.6004 5.13947 12.6779 4.71483 12.7898 4.35713C12.8469 4.1747 12.9219 3.97992 13.0183 3.80342C13.1011 3.65193 13.2591 3.40173 13.5281 3.23506L13.6091 3.19014Z" fill="#181D27"/>
</svg>
