<svg width="24" height="24" viewBox="0 0 24 24" fill="none" xmlns="http://www.w3.org/2000/svg">
<path d="M11.9104 22.8H7.91043C4.93043 22.8 3.29043 22.8 2.15043 21.66C1.01043 20.52 1.01043 18.88 1.01043 15.9V7.9C1.00043 4.92 1.00043 3.28 2.14043 2.14C3.29043 1 4.93043 1 7.91043 1H11.9104C14.8904 1 16.5304 1 17.6704 2.14C18.5404 3.01 18.7404 4.17 18.8004 5.87C18.8204 6.37 18.4204 6.78 17.9304 6.8C17.4404 6.8 17.0204 6.42 17.0004 5.93C16.9604 4.47 16.8004 3.82 16.4004 3.42C15.8104 2.83 14.6704 2.8 11.9104 2.8H7.91043C5.15043 2.8 4.01043 2.82 3.42043 3.42C2.83043 4.01 2.80043 5.15 2.80043 7.9V15.9C2.80043 18.65 2.82043 19.79 3.42043 20.38C4.02043 20.97 5.15043 21 7.91043 21H11.9104C14.6704 21 15.8104 20.98 16.4004 20.38C16.8004 19.98 16.9604 19.33 17.0004 17.87C17.0204 17.37 17.4404 17 17.9304 17C18.4304 17.01 18.8204 17.43 18.8004 17.93C18.7504 19.63 18.5504 20.79 17.6704 21.66C16.5304 22.8 14.8904 22.8 11.9104 22.8Z" fill="#181D27"/>
<path fill-rule="evenodd" clip-rule="evenodd" d="M11.9004 18.8L11.895 18.8C11.9838 18.7993 12.0819 18.7795 12.1704 18.75L15.1504 17.76C15.2804 17.71 15.4004 17.64 15.5004 17.54L21.9404 11.1C22.2604 10.78 22.4504 10.59 22.5904 10.31C22.8504 9.78 22.8504 9.15 22.5904 8.63C22.4682 8.36679 22.2753 8.17427 21.9951 7.89462L21.9404 7.84C21.6304 7.53 21.4404 7.34 21.1604 7.2C20.6304 6.94 20.0104 6.94 19.4804 7.2C19.2004 7.34 19.0104 7.53 18.6904 7.85L12.2504 14.29C12.1504 14.39 12.0704 14.51 12.0304 14.64L11.0404 17.62C10.9304 17.94 11.0204 18.3 11.2604 18.54C11.439 18.7087 11.6668 18.7986 11.895 18.8L11.8904 18.8H11.9004ZM13.6804 15.41L13.3204 16.48L14.3904 16.12L18.8704 11.64L18.1604 10.93L13.6804 15.41ZM19.4304 9.66L20.1404 10.37L20.6804 9.83C20.7246 9.78582 20.7642 9.74697 20.7997 9.7122C20.8926 9.62107 20.957 9.5579 21.0004 9.5C20.9474 9.38508 20.8631 9.30142 20.7337 9.17302L20.6804 9.12C20.6459 9.08549 20.6147 9.05377 20.586 9.02464C20.4818 8.91888 20.411 8.84701 20.3404 8.8C20.2254 8.85307 20.1417 8.93744 20.0201 9.06003L19.9704 9.11L19.4204 9.66H19.4304Z" fill="#181D27"/>
<path d="M8.40043 19.8H9.39043C9.89043 19.8 10.2904 19.4 10.2904 18.9C10.2904 18.4 9.89043 18 9.39043 18H8.95043L7.95043 16C7.64043 15.39 6.65043 15.39 6.34043 16L5.34043 18H4.90043C4.40043 18 4.00043 18.4 4.00043 18.9C4.00043 19.4 4.40043 19.8 4.90043 19.8H5.90043C6.25043 19.8 6.56043 19.6 6.71043 19.3L7.15043 18.41L7.59043 19.3C7.75043 19.61 8.06043 19.8 8.40043 19.8Z" fill="#181D27"/>
<path d="M13.9004 6.8H5.90043C5.40043 6.8 5.00043 6.4 5.00043 5.9C5.00043 5.4 5.40043 5 5.90043 5H13.9004C14.4004 5 14.8004 5.4 14.8004 5.9C14.8004 6.4 14.4004 6.8 13.9004 6.8Z" fill="#181D27"/>
<path d="M5.90043 10.8H11.9004C12.4004 10.8 12.8004 10.4 12.8004 9.9C12.8004 9.4 12.4004 9 11.9004 9H5.90043C5.40043 9 5.00043 9.4 5.00043 9.9C5.00043 10.4 5.40043 10.8 5.90043 10.8Z" fill="#181D27"/>
</svg>
