<svg width="24" height="24" viewBox="0 0 24 24" fill="none" xmlns="http://www.w3.org/2000/svg">
<path d="M7.99977 15.9669L8.02042 13.93C8.02042 13.43 8.46042 13.03 8.93042 13.04C9.43042 13.04 9.83042 13.45 9.82042 13.95L9.79042 16.91C9.79042 17.4 9.38042 17.8 8.89042 17.8H8.88042C8.78782 17.8 8.69866 17.7859 8.61489 17.7599C5.66348 17.7563 4.03318 17.6796 2.78023 16.65C2.53023 16.45 2.31023 16.22 2.10023 15.97C0.990234 14.61 0.990234 12.86 0.990234 9.37C0.990234 5.88 1.00023 4.14 2.11023 2.79C2.31023 2.54 2.54023 2.31 2.79023 2.11C4.14023 1 5.89023 1 9.39023 1C12.8902 1 14.6302 1 15.9802 2.11C16.2302 2.31 16.4502 2.54 16.6602 2.79C17.6926 4.04641 17.7669 5.68225 17.7701 8.64915C17.7899 8.7225 17.8004 8.79984 17.8004 8.88001C17.8004 9.38001 17.4104 9.79001 16.9104 9.79001L13.9404 9.83001H13.9304C13.4404 9.83001 13.0404 9.44001 13.0304 8.94001C13.0304 8.44001 13.4204 8.03001 13.9204 8.03001L15.9672 8.00244C15.9486 5.70415 15.8324 4.62703 15.2702 3.94C15.1402 3.78 15.0002 3.64 14.8402 3.51C13.9802 2.81 12.4502 2.81 9.39023 2.81C6.33024 2.81 4.79023 2.81 3.94023 3.51C3.78023 3.64 3.64023 3.78 3.51023 3.94C2.81023 4.79 2.81023 6.33 2.81023 9.39C2.81023 12.45 2.81023 13.99 3.51023 14.84C3.64023 15 3.78023 15.14 3.94023 15.27C4.62672 15.8317 5.71062 15.9482 7.99977 15.9669Z" fill="#181D27"/>
<path d="M13.0204 21.91C13.0304 22.41 13.4304 22.8 13.9204 22.8H13.9304L16.8904 22.76C17.3904 22.76 17.7804 22.35 17.7804 21.85C17.7804 21.35 17.3804 20.98 16.8704 20.96L13.9104 21C13.4104 21 13.0204 21.41 13.0204 21.91Z" fill="#181D27"/>
<path d="M18.5104 22.01C18.5904 22.45 18.9704 22.76 19.4004 22.76V22.77C19.4504 22.77 19.5504 22.76 19.5504 22.76L19.6604 22.74L19.6756 22.7376C20.5514 22.5967 22.353 22.307 22.7904 20.06C22.8904 19.57 22.5704 19.1 22.0804 19C21.5904 18.91 21.1204 19.22 21.0204 19.71C20.8304 20.68 20.2704 20.82 19.3704 20.96L19.2504 20.98C18.7604 21.06 18.4304 21.52 18.5104 22.01Z" fill="#181D27"/>
<path d="M11.2404 22.75C11.2904 22.76 11.3504 22.76 11.4004 22.76C11.8304 22.76 12.2104 22.46 12.2904 22.02C12.3804 21.53 12.0504 21.07 11.5604 20.98L11.4404 20.96C10.5404 20.81 9.98042 20.66 9.81042 19.69C9.73042 19.2 9.26042 18.87 8.77042 18.96C8.28042 19.04 7.95042 19.51 8.04042 20C8.44042 22.26 10.2604 22.58 11.1304 22.73L11.2404 22.75Z" fill="#181D27"/>
<path d="M20.9604 16.87C20.9504 17.37 21.3504 17.78 21.8504 17.78H21.8604C22.3504 17.78 22.7604 17.38 22.7604 16.89L22.7904 13.93C22.8004 13.43 22.4004 13.02 21.9004 13.02C21.3704 13.02 20.9904 13.41 20.9904 13.91L20.9604 16.87Z" fill="#181D27"/>
<path d="M21.8644 11.85C21.8664 11.85 21.8684 11.85 21.8704 11.85H21.8604L21.8644 11.85Z" fill="#181D27"/>
<path d="M20.9904 11.11C21.0601 11.538 21.4369 11.8471 21.8644 11.85C21.8883 11.8497 21.9144 11.8474 21.9404 11.845C21.9679 11.8425 21.9954 11.84 22.0204 11.84C22.5104 11.76 22.8404 11.29 22.7504 10.8C22.3504 8.54001 20.5304 8.22001 19.6604 8.07001L19.5504 8.05001C19.0704 7.97001 18.6004 8.29001 18.5104 8.78001C18.4204 9.27001 18.7504 9.73001 19.2404 9.82001L19.3604 9.84001C20.2604 9.99001 20.8204 10.14 20.9904 11.11Z" fill="#181D27"/>
<path d="M8.75042 11.84C8.80042 11.85 8.86042 11.85 8.91042 11.85H8.90042C9.32042 11.85 9.70042 11.55 9.78042 11.11C9.96042 10.14 10.5104 10 11.4104 9.84001L11.5304 9.82001C12.0204 9.74001 12.3504 9.27001 12.2604 8.78001C12.1804 8.29001 11.7104 7.96001 11.2204 8.05001L11.1104 8.07001C10.2404 8.22001 8.42042 8.54001 8.02042 10.8C7.93042 11.29 8.26042 11.75 8.75042 11.84Z" fill="#181D27"/>
</svg>
