<svg xmlns="http://www.w3.org/2000/svg" width="24" height="24" fill="currentColor" viewBox="0 0 24 24">
  <path fill-rule="evenodd" d="M10.789 7.302a.9.9 0 0 1 1.445.892l.273.223a29.36 29.36 0 0 1 1.88 1.696l.461.479c.458.487.892.99 1.235 1.401.079.095.152.187.221.272a.9.9 0 0 1 .833 1.514l-2.858 2.858-.068.061a.9.9 0 0 1-1.447-.893l-.271-.222a34.31 34.31 0 0 1-1.228-1.076l-3.129 3.13a.901.901 0 0 1-1.273-1.274l3.129-3.13a34.258 34.258 0 0 1-1.074-1.226c-.08-.095-.153-.188-.223-.273a.9.9 0 0 1-.832-1.513l2.857-2.858.069-.061Zm-.726 3.263a27.582 27.582 0 0 0 1.823 2.048c.566.566 1.23 1.145 1.76 1.587.101.085.199.163.287.236l1.002-1.002a31.16 31.16 0 0 0-1.397-1.608l-.425-.44a27.585 27.585 0 0 0-1.76-1.586c-.101-.085-.199-.164-.288-.237l-1.002 1.002Z" clip-rule="evenodd"/>
  <path fill-rule="evenodd" d="M12 1.1c.9 0 1.701.29 2.55.765.827.465 1.774 1.152 2.956 2.006l1.44 1.041 1.285.94c.382.288.718.555 1.007.811.592.525 1.045 1.058 1.333 1.733l.099.255c.206.597.253 1.211.22 1.894-.027.57-.114 1.227-.23 1.997l-.122.809-.3 1.959c-.247 1.604-.444 2.893-.735 3.898-.3 1.032-.726 1.87-1.498 2.513-.77.64-1.681.92-2.77 1.052-1.066.129-2.412.127-4.097.127h-2.277c-1.685 0-3.03.002-4.097-.127-1.088-.133-2-.413-2.77-1.052-.772-.643-1.198-1.481-1.497-2.513-.219-.754-.384-1.667-.557-2.754l-.178-1.144-.3-1.96c-.174-1.13-.316-2.046-.353-2.805-.038-.78.03-1.471.32-2.149l.115-.247c.288-.561.7-1.026 1.217-1.486.578-.512 1.344-1.065 2.292-1.75l2.285-1.651c.803-.575 1.491-1.048 2.112-1.397.848-.476 1.649-.765 2.55-.765Zm0 1.8c-.482 0-.974.144-1.67.535-.536.301-1.15.722-1.935 1.284l-.847.61-1.44 1.041c-.978.707-1.658 1.2-2.152 1.639-.42.373-.661.668-.813.966l-.06.128c-.145.34-.206.733-.176 1.355.031.644.155 1.452.334 2.62l.3 1.958.18 1.149c.169 1.061.316 1.872.504 2.522.243.839.526 1.301.921 1.63.4.332.926.538 1.836.648.933.114 2.15.115 3.88.115h2.276c1.73 0 2.947-.001 3.88-.115.91-.11 1.436-.316 1.835-.648.395-.329.678-.791.921-1.63.251-.866.43-2.02.684-3.67l.3-1.96.223-1.506c.057-.428.096-.791.111-1.113.027-.544-.017-.913-.125-1.225l-.051-.13c-.146-.343-.392-.668-.872-1.094-.247-.22-.541-.453-.895-.719l-1.258-.92-1.44-1.04c-1.214-.88-2.066-1.493-2.782-1.895-.696-.39-1.187-.535-1.67-.535Z" clip-rule="evenodd"/>
</svg>
