<svg width="24" height="24" viewBox="0 0 24 24" fill="none" xmlns="http://www.w3.org/2000/svg">
<path fill-rule="evenodd" clip-rule="evenodd" d="M14 1C9.02944 1 5 5.02944 5 10C5 14.9706 9.02944 19 14 19C18.9706 19 23 14.9706 23 10C23 5.02944 18.9706 1 14 1ZM7 10C7 6.134 10.134 3 14 3C17.866 3 21 6.134 21 10C21 13.866 17.866 17 14 17C10.134 17 7 13.866 7 10Z" fill="#181D27"/>
<path d="M3.89108 11.3434C4.1729 10.8684 4.01632 10.2549 3.54135 9.9731C3.06639 9.69127 2.45289 9.84785 2.17106 10.3228C1.42696 11.5769 1 13.0413 1 14.6025C1 19.2403 4.75968 23 9.3975 23C10.9587 23 12.4231 22.573 13.6772 21.8289C14.1522 21.5471 14.3087 20.9336 14.0269 20.4586C13.7451 19.9837 13.1316 19.8271 12.6566 20.1089C11.7029 20.6748 10.5897 21 9.3975 21C5.86426 21 3 18.1357 3 14.6025C3 13.4103 3.32518 12.2971 3.89108 11.3434Z" fill="#181D27"/>
</svg>
