<svg width="24" height="24" viewBox="0 0 24 24" fill="none" xmlns="http://www.w3.org/2000/svg">
<path d="M19.0918 19.6045C19.5457 19.6505 19.9004 20.0339 19.9004 20.5C19.9004 20.9661 19.5457 21.3495 19.0918 21.3955L19 21.4004H4.99998C4.50292 21.4004 4.09959 20.9971 4.09959 20.5C4.09959 20.0029 4.50292 19.5996 4.99998 19.5996H19L19.0918 19.6045Z" fill="#181D27"/>
<path fill-rule="evenodd" clip-rule="evenodd" d="M12.1172 2.60352C12.6634 2.63941 13.1669 2.92488 13.4746 3.38184L13.5371 3.48242L15.7519 7.30371L16.2402 8.13086C16.377 8.35378 16.4924 8.52878 16.6015 8.66895C16.8038 8.92869 16.8951 8.95104 16.9287 8.95898L16.9668 8.96484C17.0205 8.96747 17.1282 8.95222 17.3515 8.8457C17.6723 8.69265 18.0792 8.42779 18.7226 8.00488L19.9541 7.19531L20.0976 7.10938C20.8265 6.71673 21.7401 6.83852 22.3398 7.42969L22.4316 7.52637C22.8716 8.02618 23.018 8.7256 22.8017 9.36523L22.7978 9.37402L20.5527 15.7891C20.3897 16.2547 20.2438 16.6754 20.083 17.0088C19.9122 17.3629 19.688 17.6989 19.3242 17.957C18.9603 18.2152 18.5684 18.3152 18.1777 18.3594C17.8099 18.4009 17.3653 18.4004 16.872 18.4004H7.12791C6.63469 18.4004 6.19002 18.4009 5.82224 18.3594C5.48042 18.3207 5.13751 18.2395 4.81345 18.0469L4.67576 17.957C4.31195 17.6989 4.08775 17.3629 3.91697 17.0088C3.83655 16.842 3.75953 16.6533 3.6826 16.4482L3.44724 15.7881L1.20213 9.37402L1.19822 9.36523C0.967554 8.68308 1.1496 7.93325 1.66013 7.42969L1.78416 7.31738C2.42349 6.78892 3.34369 6.73383 4.04588 7.19531L5.27732 8.00488L6.08494 8.52637C6.30683 8.66438 6.48816 8.76924 6.64842 8.8457C6.94569 8.98748 7.03766 8.96692 7.07127 8.95898L7.10838 8.94727C7.15769 8.92539 7.24683 8.86357 7.39842 8.66895C7.61678 8.38856 7.86182 7.96999 8.24802 7.30371L10.4629 3.48242L10.5254 3.38184C10.855 2.89237 11.4092 2.59961 12 2.59961L12.1172 2.60352ZM9.80564 8.20605C9.44555 8.82729 9.13035 9.37478 8.81834 9.77539C8.53141 10.1437 8.18158 10.4759 7.70017 10.6475L7.48533 10.7109C6.89015 10.8516 6.35584 10.7005 5.874 10.4707C5.64482 10.3614 5.39869 10.2194 5.13474 10.0557L4.28904 9.50977L3.05662 8.69922C3.02494 8.67852 2.98495 8.67727 2.9531 8.69141L2.92381 8.71094C2.90072 8.73374 2.89476 8.7629 2.90232 8.78711L5.14646 15.1934L5.36814 15.8164C5.43081 15.984 5.48481 16.1161 5.53806 16.2266C5.63437 16.4263 5.69073 16.4708 5.71677 16.4893L5.79783 16.5273C5.84375 16.5423 5.9142 16.5588 6.02439 16.5713C6.26786 16.5988 6.59388 16.5996 7.12791 16.5996H16.872C17.4061 16.5996 17.7321 16.5988 17.9756 16.5713C18.1963 16.5463 18.2572 16.5077 18.2832 16.4893C18.3092 16.4708 18.3656 16.4263 18.4619 16.2266C18.5683 16.0058 18.6769 15.6978 18.8535 15.1934L21.0967 8.78711C21.1005 8.77508 21.1008 8.76199 21.0976 8.74902L21.0761 8.71094C21.0516 8.68674 21.013 8.67654 20.9775 8.68457L20.9433 8.69922L19.7109 9.50977C19.1109 9.9041 18.5842 10.2521 18.126 10.4707C17.7043 10.6718 17.2428 10.8121 16.7353 10.75L16.5146 10.7109C15.9196 10.5703 15.5096 10.1964 15.1816 9.77539C15.0256 9.57509 14.8688 9.33777 14.706 9.07324L14.1943 8.20605L12 4.41895L9.80564 8.20605Z" fill="#181D27"/>
</svg>
