<svg width="24" height="24" viewBox="0 0 24 24" fill="none" xmlns="http://www.w3.org/2000/svg">
<path d="M12.53 22.8C6.72 22.8 2 18.08 2 12.27C2 7.35999 5.34 3.13999 10.12 2.01999C10.46 1.93999 10.82 2.06999 11.04 2.34999C11.25 2.62999 11.29 3.00999 11.12 3.31999C10.53 4.41999 10.22 5.66999 10.22 6.91999C10.22 11.14 13.65 14.58 17.88 14.58C19.14 14.58 20.38 14.27 21.48 13.68C21.79 13.51 22.17 13.54 22.45 13.76C22.73 13.98 22.86 14.34 22.78 14.68C21.66 19.46 17.45 22.8 12.53 22.8ZM8.76 4.38999C5.77 5.80999 3.8 8.83999 3.8 12.27C3.8 17.08 7.72 21 12.53 21C15.97 21 18.99 19.03 20.41 16.04C19.59 16.27 18.73 16.39 17.88 16.39C12.67 16.39 8.42 12.15 8.42 6.92999C8.42 6.06999 8.54 5.21999 8.77 4.39999L8.76 4.38999Z" fill="#181D27"/>
</svg>
