<svg width="24" height="24" viewBox="0 0 24 24" fill="none" xmlns="http://www.w3.org/2000/svg">
<path fill-rule="evenodd" clip-rule="evenodd" d="M12.0342 1.09961C12.5379 1.09961 12.9747 1.09938 13.3379 1.13184C13.7179 1.16583 14.0836 1.24017 14.4414 1.42578L14.6455 1.54297C14.712 1.58462 14.7769 1.62879 14.8398 1.67578L14.957 1.76856C15.2193 1.99107 15.4142 2.25391 15.5859 2.54004C15.7736 2.85272 15.9629 3.24595 16.1826 3.69922L16.6191 4.59961H21C21.4971 4.59961 21.9004 5.00295 21.9004 5.5C21.9004 5.99706 21.4971 6.40039 21 6.40039H20.3457L19.7783 15.5811C19.7002 16.844 19.6389 17.8553 19.5107 18.6631C19.3966 19.3824 19.2209 20.0088 18.8906 20.5674L18.7393 20.8027C18.3505 21.3602 17.8492 21.8309 17.2686 22.1846C16.6265 22.5757 15.9144 22.7438 15.0859 22.8232C14.2718 22.9013 13.2585 22.9004 11.9932 22.9004C10.7262 22.9004 9.71161 22.9004 8.89648 22.8223C8.06678 22.7427 7.35272 22.5756 6.70996 22.1836C6.20177 21.8736 5.75469 21.4731 5.39062 21.0039L5.24023 20.7988C4.81022 20.1809 4.5992 19.4795 4.46973 18.6562C4.34253 17.8472 4.28242 16.8343 4.20605 15.5693L3.65234 6.40039H3C2.50294 6.40039 2.09961 5.99706 2.09961 5.5C2.09961 5.00295 2.50294 4.59961 3 4.59961H7.47461L7.83984 3.79785L8.14258 3.14258C8.23866 2.94146 8.33137 2.75875 8.42383 2.59668C8.61722 2.25772 8.84288 1.95011 9.16992 1.69922L9.36621 1.56055C9.43342 1.51733 9.50264 1.477 9.57324 1.43945L9.70996 1.37207C10.0305 1.22708 10.3591 1.16377 10.6992 1.13281C11.0707 1.09901 11.5178 1.09961 12.0342 1.09961ZM5.45605 6.40039L6.00293 15.4609C6.08139 16.7607 6.1374 17.672 6.24805 18.376C6.35646 19.0655 6.50607 19.4663 6.71777 19.7705L6.8125 19.9004C7.01007 20.155 7.24671 20.3768 7.5127 20.5586L7.64746 20.6465L7.77148 20.7158C8.07118 20.8697 8.46078 20.973 9.06836 21.0312C9.77763 21.0992 10.6913 21.0996 11.9932 21.0996C13.2934 21.0996 14.2057 21.0992 14.9141 21.0312C15.6074 20.9647 16.0159 20.84 16.332 20.6475C16.699 20.4239 17.0167 20.1261 17.2627 19.7734L17.3389 19.6543C17.5108 19.3648 17.6378 18.9832 17.7334 18.3809C17.8449 17.6779 17.9021 16.7677 17.9824 15.4697L18.543 6.40039H5.45605ZM12.0342 2.90039C11.4854 2.90039 11.1335 2.9011 10.8623 2.92578C10.6718 2.94313 10.5604 2.96974 10.4844 2.99902L10.418 3.02832C10.3911 3.04259 10.3654 3.05877 10.3398 3.0752L10.2646 3.12695C10.1961 3.17958 10.1137 3.26681 9.9873 3.48828C9.91977 3.60665 9.84869 3.74584 9.7666 3.91797L9.47754 4.54492L9.45215 4.59961H14.6191L14.5635 4.48438C14.3298 4.0024 14.1788 3.69373 14.042 3.46582C13.9459 3.30575 13.8753 3.21894 13.8174 3.16406L13.7637 3.11816L13.6123 3.02344C13.537 2.98442 13.4255 2.94696 13.1777 2.92481C12.913 2.90115 12.5697 2.90039 12.0342 2.90039Z" fill="#181D27"/>
</svg>
