<svg width="24" height="24" viewBox="0 0 24 24" fill="none" xmlns="http://www.w3.org/2000/svg">
<path d="M8.00684 16.5L8.16016 16.5078C8.91633 16.5848 9.50684 17.2235 9.50684 18C9.50684 18.7765 8.91633 19.4152 8.16016 19.4922L8.00684 19.5H8C7.17157 19.5 6.5 18.8284 6.5 18C6.5 17.1716 7.17157 16.5 8 16.5H8.00684ZM16 16.5C16.8284 16.5 17.5 17.1716 17.5 18C17.5 18.8284 16.8284 19.5 16 19.5H15.9941C15.1657 19.5 14.4941 18.8284 14.4941 18C14.4941 17.1716 15.1657 16.5 15.9941 16.5H16ZM8.00684 10.5L8.16016 10.5078C8.91633 10.5848 9.50684 11.2235 9.50684 12C9.50684 12.7765 8.91633 13.4152 8.16016 13.4922L8.00684 13.5H8C7.17157 13.5 6.5 12.8284 6.5 12C6.5 11.1716 7.17157 10.5 8 10.5H8.00684ZM16 10.5C16.8284 10.5 17.5 11.1716 17.5 12C17.5 12.8284 16.8284 13.5 16 13.5H15.9941C15.1657 13.5 14.4941 12.8284 14.4941 12C14.4941 11.1716 15.1657 10.5 15.9941 10.5H16ZM8.00684 4.5L8.16016 4.50781C8.91633 4.58483 9.50684 5.2235 9.50684 6C9.50684 6.7765 8.91633 7.41517 8.16016 7.49219L8.00684 7.5H8C7.17157 7.5 6.5 6.82843 6.5 6C6.5 5.17157 7.17157 4.5 8 4.5H8.00684ZM16 4.5C16.8284 4.5 17.5 5.17157 17.5 6C17.5 6.82843 16.8284 7.5 16 7.5H15.9941C15.1657 7.5 14.4941 6.82843 14.4941 6C14.4941 5.17157 15.1657 4.5 15.9941 4.5H16Z" fill="#181D27"/>
</svg>
