<svg width="24" height="24" viewBox="0 0 24 24" fill="none" xmlns="http://www.w3.org/2000/svg">
<path d="M15.3335 16.3945C15.6398 16.0569 16.1587 15.9994 16.5337 16.2754C16.9087 16.5518 17.007 17.0644 16.7749 17.457L16.7242 17.5342L16.7232 17.5352C16.7227 17.5358 16.7219 17.5372 16.7212 17.5381C16.7196 17.5402 16.7171 17.5432 16.7144 17.5469C16.7083 17.5551 16.6994 17.5677 16.688 17.583C16.6652 17.6137 16.6317 17.6579 16.5894 17.7139C16.5044 17.8265 16.3815 17.9871 16.232 18.1787C15.9335 18.5611 15.5223 19.0744 15.0748 19.5898C14.6309 20.101 14.1337 20.6362 13.6656 21.0498C13.4327 21.2556 13.1851 21.4503 12.939 21.5986C12.7175 21.7322 12.3818 21.9004 11.9996 21.9004C11.6173 21.9003 11.2816 21.7321 11.0601 21.5986C10.8141 21.4502 10.5664 21.2556 10.3335 21.0498C9.8654 20.6361 9.36817 20.101 8.92436 19.5898C8.47681 19.0744 8.06557 18.5611 7.76714 18.1787C7.61757 17.987 7.49473 17.8264 7.40972 17.7139C7.36744 17.6579 7.33391 17.6136 7.31108 17.583C7.29969 17.5677 7.2908 17.5551 7.28472 17.5469C7.28182 17.5429 7.27949 17.5393 7.27788 17.5371L7.27495 17.5342L7.22417 17.457C6.99227 17.0645 7.09064 16.5518 7.46538 16.2754C7.84037 15.9992 8.35927 16.057 8.66557 16.3945L8.72417 16.4658L8.72612 16.4678C8.72725 16.4693 8.72863 16.4723 8.731 16.4756C8.73605 16.4824 8.74421 16.4931 8.75444 16.5068C8.77517 16.5347 8.80624 16.5769 8.84624 16.6299C8.92638 16.736 9.04324 16.8882 9.18608 17.0713C9.4728 17.4387 9.86338 17.926 10.2837 18.4102C10.708 18.8988 11.1454 19.3639 11.5259 19.7002C11.7171 19.8691 11.8732 19.9873 11.9898 20.0576C11.9929 20.0595 11.9966 20.0608 11.9996 20.0625C12.0025 20.0608 12.0062 20.0594 12.0093 20.0576C12.1259 19.9873 12.282 19.8692 12.4732 19.7002C12.8537 19.364 13.2911 18.8988 13.7154 18.4102C14.1357 17.926 14.5263 17.4387 14.813 17.0713C14.9559 16.8883 15.0727 16.736 15.1529 16.6299C15.1929 16.5769 15.2239 16.5347 15.2447 16.5068C15.2549 16.4931 15.263 16.4824 15.2681 16.4756C15.2705 16.4724 15.2719 16.4694 15.273 16.4678L15.2749 16.4668L15.3335 16.3945Z" fill="#181D27"/>
<path fill-rule="evenodd" clip-rule="evenodd" d="M12.0005 9.09961C13.602 9.09977 14.9009 10.3985 14.9009 12C14.9009 13.6014 13.6021 14.9002 12.0005 14.9004C10.3988 14.9004 9.10014 13.6015 9.10014 12C9.1002 10.3984 10.3989 9.09961 12.0005 9.09961ZM12.0005 10.9004C11.393 10.9004 10.901 11.3925 10.9009 12C10.9009 12.6075 11.393 13.0996 12.0005 13.0996C12.6079 13.0994 13.1001 12.6074 13.1001 12C13.1001 11.3926 12.6079 10.9006 12.0005 10.9004Z" fill="#181D27"/>
<path d="M12.1402 2.10742C12.4636 2.14122 12.7451 2.28448 12.939 2.40137C13.1851 2.54975 13.4327 2.74441 13.6656 2.9502C14.1337 3.36385 14.6309 3.89898 15.0748 4.41016C15.5223 4.92563 15.9335 5.43885 16.232 5.82129C16.3815 6.01294 16.5044 6.17354 16.5894 6.28613C16.6317 6.34209 16.6652 6.38634 16.688 6.41699C16.6994 6.43226 16.7083 6.44487 16.7144 6.45312C16.7173 6.45703 16.7196 6.46067 16.7212 6.46289L16.7242 6.46582L16.7749 6.54297C17.007 6.93563 16.9087 7.44817 16.5337 7.72461C16.1587 8.00064 15.6398 7.94313 15.3335 7.60547L15.2749 7.53418L15.273 7.53223C15.2719 7.53063 15.2705 7.52762 15.2681 7.52441C15.263 7.51756 15.2549 7.50686 15.2447 7.49316C15.2239 7.46531 15.1929 7.42306 15.1529 7.37012C15.0727 7.26398 14.9559 7.11174 14.813 6.92871C14.5263 6.56128 14.1357 6.074 13.7154 5.58984C13.2911 5.10122 12.8537 4.63604 12.4732 4.2998C12.282 4.13085 12.1259 4.01265 12.0093 3.94238C12.0061 3.94042 12.0026 3.93835 11.9996 3.93652C11.9965 3.93835 11.993 3.94042 11.9898 3.94238C11.8732 4.0127 11.7171 4.13088 11.5259 4.2998C11.1454 4.63607 10.708 5.10125 10.2837 5.58984C9.86336 6.07402 9.47281 6.56131 9.18608 6.92871C9.04322 7.11176 8.92639 7.26401 8.84624 7.37012C8.80623 7.42309 8.77518 7.46534 8.75444 7.49316C8.74421 7.50689 8.73606 7.51759 8.731 7.52441C8.72863 7.52766 8.72725 7.5307 8.72612 7.53223L8.72417 7.5332C8.4293 7.93298 7.86543 8.01925 7.46538 7.72461C7.06568 7.42978 6.98047 6.86585 7.27495 6.46582L7.27593 6.46484C7.27636 6.46425 7.27717 6.4629 7.27788 6.46191C7.27946 6.45977 7.28197 6.45682 7.28472 6.45312C7.2908 6.44491 7.29969 6.43228 7.31108 6.41699C7.3339 6.38637 7.36743 6.34211 7.40972 6.28613C7.49474 6.17357 7.61756 6.01295 7.76714 5.82129C8.06557 5.43889 8.4768 4.92565 8.92436 4.41016C9.36817 3.89901 9.86542 3.36386 10.3335 2.9502C10.5664 2.74442 10.8141 2.54977 11.0601 2.40137C11.2816 2.26785 11.6173 2.09972 11.9996 2.09961L12.1402 2.10742Z" fill="#181D27"/>
</svg>
