<svg xmlns="http://www.w3.org/2000/svg" width="24" height="24" fill="currentColor" viewBox="0 0 24 24">
  <path d="m8.007 16.5.153.008a1.5 1.5 0 0 1 0 2.984l-.153.008H8a1.5 1.5 0 0 1 0-3h.007Zm7.993 0a1.5 1.5 0 0 1 0 3h-.006a1.5 1.5 0 0 1 0-3H16Zm-7.993-6 .153.008a1.5 1.5 0 0 1 0 2.984l-.153.008H8a1.5 1.5 0 0 1 0-3h.007Zm7.993 0a1.5 1.5 0 0 1 0 3h-.006a1.5 1.5 0 0 1 0-3H16Zm-7.993-6 .153.008a1.5 1.5 0 0 1 0 2.984l-.153.008H8a1.5 1.5 0 1 1 0-3h.007ZM16 4.5a1.5 1.5 0 0 1 0 3h-.006a1.5 1.5 0 0 1 0-3H16Z"/>
</svg>
