<svg width="24" height="24" viewBox="0 0 24 24" fill="none" xmlns="http://www.w3.org/2000/svg">
<path d="M17.0078 2.73348C17.7541 2.12469 18.8551 2.16768 19.5508 2.86336L21.1367 4.4493L21.2666 4.59383C21.8347 5.2904 21.8348 6.29575 21.2666 6.99226L21.1367 7.1368L13.2354 15.0372C12.9102 15.3622 12.5129 15.6052 12.0771 15.7462L11.8877 15.7999L8.42578 16.6661C8.11911 16.7428 7.79386 16.6533 7.57031 16.4298C7.34677 16.2062 7.25731 15.881 7.33398 15.5743L8.19922 12.1124L8.25391 11.9229C8.39483 11.4873 8.63681 11.0899 8.96191 10.7647L16.8633 2.86336L17.0078 2.73348ZM10.2354 12.0372C10.1295 12.143 10.0464 12.2693 9.99121 12.4073L9.94531 12.5489L9.44336 14.5557L11.4512 14.0538L11.5928 14.0079C11.7305 13.9528 11.8561 13.8704 11.9619 13.7647L17.4336 8.29305L15.7061 6.56551L10.2354 12.0372ZM18.1689 4.11433L18.1367 4.1368L16.9805 5.29305L18.707 7.01961L19.8633 5.86336L19.8857 5.83015C19.8954 5.80613 19.8955 5.77893 19.8857 5.75496L19.8633 5.72176L18.2773 4.1368C18.248 4.10744 18.2051 4.09952 18.1689 4.11433Z" fill="#181D27"/>
<path d="M2.30664 18.7929V6.79289C2.30664 5.19126 3.6054 3.8925 5.20703 3.8925H10.707L10.7988 3.89738C11.2527 3.94338 11.6074 4.32683 11.6074 4.79289C11.6074 5.25894 11.2527 5.64239 10.7988 5.6884L10.707 5.69328H5.20703C4.59952 5.69328 4.10742 6.18537 4.10742 6.79289V18.7929C4.10742 19.4004 4.59951 19.8925 5.20703 19.8925H17.207C17.8146 19.8925 18.3066 19.4004 18.3066 18.7929V13.2929C18.3066 12.7958 18.71 12.3925 19.207 12.3925C19.7041 12.3925 20.1074 12.7959 20.1074 13.2929V18.7929C20.1074 20.3945 18.8087 21.6933 17.207 21.6933H5.20703C3.60541 21.6933 2.30664 20.3946 2.30664 18.7929Z" fill="#181D27"/>
</svg>
