<svg xmlns="http://www.w3.org/2000/svg" width="24" height="24" fill="currentColor" viewBox="0 0 24 24">
  <path fill-rule="evenodd" d="M12 2.9a9.1 9.1 0 1 0 0 18.2 9.1 9.1 0 0 0 0-18.2ZM1.1 12C1.1 5.98 5.98 1.1 12 1.1c6.02 0 10.9 4.88 10.9 10.9 0 6.02-4.88 10.9-10.9 10.9-6.02 0-10.9-4.88-10.9-10.9Z" clip-rule="evenodd"/>
  <path fill-rule="evenodd" d="M16.54 14.28a.9.9 0 0 1 .18 1.26A5.892 5.892 0 0 1 12 17.9a5.892 5.892 0 0 1-4.72-2.36.9.9 0 1 1 1.44-1.08A4.092 4.092 0 0 0 12 16.1c1.34 0 2.53-.643 3.28-1.64a.9.9 0 0 1 1.26-.18ZM6.75 9c0-.69.56-1.25 1.25-1.25h.009a1.25 1.25 0 1 1 0 2.5h-.01c-.69 0-1.25-.56-1.25-1.25Zm7.99 0c0-.69.56-1.25 1.25-1.25H16a1.25 1.25 0 1 1 0 2.5h-.01c-.69 0-1.25-.56-1.25-1.25Z" clip-rule="evenodd"/>
</svg>
