<svg width="24" height="24" viewBox="0 0 24 24" fill="none" xmlns="http://www.w3.org/2000/svg">
<path fill-rule="evenodd" clip-rule="evenodd" d="M2.36328 2.35707C2.69284 2.02752 3.21486 2.00709 3.56836 2.29555L3.63672 2.35707L17.8799 16.6002C17.8861 16.6063 17.8923 16.6125 17.8984 16.6188L21.6367 20.3571L21.6982 20.4254C21.9865 20.7789 21.9662 21.301 21.6367 21.6305C21.3072 21.96 20.7851 21.9803 20.4316 21.692L20.3633 21.6305L17.125 18.3922C15.6627 19.2625 13.9355 19.8942 12 19.8942C9.38429 19.8942 7.14868 18.7426 5.42773 17.3991C3.70518 16.0542 2.43407 14.4675 1.72363 13.4713C1.4837 13.1349 1.14578 12.71 1.10449 12.1149L1.09961 11.9938L1.10449 11.8727C1.14573 11.2776 1.48368 10.8527 1.72363 10.5162C2.42301 9.53556 3.67292 7.97263 5.36816 6.63539L2.36328 3.63051L2.30176 3.56215C2.01331 3.20865 2.03374 2.68662 2.36328 2.35707ZM6.65137 7.91859C5.06185 9.13186 3.86335 10.6148 3.18848 11.5612C3.11061 11.6704 3.05237 11.7527 3.00391 11.8248C2.95589 11.8963 2.92827 11.9422 2.91211 11.9733C2.90766 11.9818 2.90461 11.9888 2.90234 11.9938C2.90462 11.9988 2.90767 12.0058 2.91211 12.0143C2.92829 12.0454 2.95591 12.0913 3.00391 12.1627C3.05237 12.2349 3.11061 12.3172 3.18848 12.4264C3.84413 13.3458 5.00083 14.7815 6.53613 15.9801C8.07327 17.1801 9.92667 18.0934 12 18.0934C13.3735 18.0934 14.6495 17.6915 15.8037 17.0709L14.0098 15.277C13.4105 15.6658 12.6959 15.8942 11.9287 15.8942C9.81426 15.8941 8.09981 14.1795 8.09961 12.0651C8.09961 11.2978 8.32692 10.5824 8.71582 9.98305L6.65137 7.91859ZM10.0449 11.3121C9.95196 11.5449 9.90039 11.7988 9.90039 12.0651C9.90059 13.1854 10.8084 14.0933 11.9287 14.0934C12.1948 14.0934 12.448 14.0407 12.6807 13.9479L10.0449 11.3121Z" fill="#181D27"/>
<path d="M12 4.0934C14.6157 4.0934 16.8513 5.24498 18.5723 6.58851C20.2949 7.93337 21.5659 9.5201 22.2764 10.5162C22.5323 10.8751 22.9004 11.3345 22.9004 11.9938C22.9003 12.653 22.5322 13.1125 22.2764 13.4713C21.7889 14.1548 21.043 15.1093 20.0732 16.0719C19.7205 16.4219 19.1499 16.4197 18.7998 16.067C18.4498 15.7143 18.452 15.1437 18.8047 14.7936C19.6839 13.9208 20.366 13.0511 20.8115 12.4264C20.8894 12.3172 20.9476 12.2349 20.9961 12.1627C21.0441 12.0913 21.0717 12.0454 21.0879 12.0143C21.0923 12.0058 21.0954 11.9988 21.0977 11.9938C21.0954 11.9888 21.0923 11.9818 21.0879 11.9733C21.0717 11.9422 21.0441 11.8963 20.9961 11.8248C20.9476 11.7527 20.8894 11.6704 20.8115 11.5612C20.1559 10.6418 18.9992 9.20609 17.4639 8.00746C15.9267 6.80748 14.0733 5.89418 12 5.89418C11.1959 5.89418 10.4268 6.03087 9.69629 6.2682L9.60742 6.29164C9.16159 6.38806 8.70654 6.13319 8.5625 5.69008C8.40893 5.21736 8.66792 4.70988 9.14062 4.55629L9.47754 4.45277C10.2718 4.22567 11.115 4.0934 12 4.0934Z" fill="#181D27"/>
</svg>
