<svg width="24" height="24" viewBox="0 0 24 24" fill="none" xmlns="http://www.w3.org/2000/svg">
<path d="M7 9.9C7 10.4 7.4 10.8 7.9 10.8C8.4 10.8 8.8 10.4 8.8 9.9V6.8H11.9C12.4 6.8 12.8 6.4 12.8 5.9C12.8 5.4 12.4 5 11.9 5H8.8V1.9C8.8 1.4 8.4 1 7.9 1C7.4 1 7 1.4 7 1.9V5H3.9C3.4 5 3 5.4 3 5.9C3 6.4 3.4 6.8 3.9 6.8H7V9.9Z" fill="#181D27"/>
<path fill-rule="evenodd" clip-rule="evenodd" d="M4.83 21.71C6.17 22.8 7.91 22.8 11.36 22.8L11.34 22.81C12.12 22.81 12.56 22.81 13.02 22.64C13.11 22.61 13.21 22.57 13.31 22.52C13.75 22.31 14.07 21.99 14.61 21.45L19.35 16.71C20 16.07 20.35 15.71 20.57 15.18C20.79 14.64 20.79 14.15 20.79 13.24V9.9C20.79 5.89 20.79 3.88 19.35 2.44C18 1.09 16.02 1.02 12.92 1.01C12.42 1.01 12.02 1.41 12.02 1.91C12.02 2.4 12.42 2.81 12.92 2.81C15.82 2.82 17.27 2.92 18.08 3.72C18.99 4.63 18.99 6.39 18.99 9.91V14.01H18.9C15.92 14.01 14.28 14.01 13.14 15.15C12 16.29 12 17.93 12 20.91V21H11.36C8.33 21 6.81 21 5.96 20.31C5.79 20.17 5.63 20.01 5.49 19.84C4.8 18.99 4.8 17.47 4.8 14.44V11.89C4.8 11.39 4.4 10.99 3.9 10.99C3.4 10.99 3 11.39 3 11.89V14.44C3 17.89 3 19.62 4.09 20.97C4.31 21.24 4.56 21.49 4.83 21.71ZM14.41 16.41C14.91 15.91 15.8 15.82 17.72 15.8L13.8 19.72C13.82 17.8 13.91 16.91 14.41 16.41Z" fill="#181D27"/>
</svg>
