<svg xmlns="http://www.w3.org/2000/svg" width="24" height="24" fill="currentColor" viewBox="0 0 24 24">
  <path d="M6.5 9.17c0 1.45 1.19 2.63 2.65 2.63s2.65-1.18 2.65-2.63V5.36C11.8 2.96 9.83 1 7.4 1 4.97 1 3 2.96 3 5.36v2.77c0 .5.4.9.9.9s.9-.4.9-.9V5.36c0-1.41 1.17-2.56 2.6-2.56 1.43 0 2.6 1.15 2.6 2.56v3.81c0 .46-.38.83-.85.83s-.85-.37-.85-.83V5.36c0-.5-.4-.9-.9-.9s-.9.4-.9.9v3.81Z"/>
  <path fill-rule="evenodd" d="M4.83 21.71c1.34 1.09 3.08 1.09 6.53 1.09l-.02.01c.78 0 1.22 0 1.68-.17.09-.03.19-.07.29-.12.44-.21.76-.53 1.3-1.07l4.74-4.74c.65-.64 1-1 1.22-1.53.22-.54.22-1.03.22-1.94V9.9c0-4.01 0-6.02-1.44-7.46-1.35-1.35-3.33-1.42-6.43-1.43-.5 0-.9.4-.9.9 0 .49.4.9.9.9 2.9.01 4.35.11 5.16.91.91.91.91 2.67.91 6.19v4.1h-.09c-2.98 0-4.62 0-5.76 1.14C12 16.29 12 17.93 12 20.91V21h-.64c-3.03 0-4.55 0-5.4-.69-.17-.14-.33-.3-.47-.47-.69-.85-.69-2.37-.69-5.4v-2.55c0-.5-.4-.9-.9-.9s-.9.4-.9.9v2.55c0 3.45 0 5.18 1.09 6.53.22.27.47.52.74.74Zm9.58-5.3c.5-.5 1.39-.59 3.31-.61l-3.92 3.92c.02-1.92.11-2.81.61-3.31Z" clip-rule="evenodd"/>
</svg>
