<svg width="24" height="24" viewBox="0 0 24 24" fill="none" xmlns="http://www.w3.org/2000/svg">
<path d="M9.96646 3.55C8.79646 2.06 7.89646 1 6.91646 1L6.89646 1.01C5.92646 1.01 5.01646 2.07 3.84646 3.56C3.80006 3.618 3.75478 3.67488 3.71091 3.72999C3.52788 3.95992 3.36939 4.159 3.25646 4.28C2.91646 4.63 2.91646 5.2 3.27646 5.55C3.62646 5.89 4.19646 5.89 4.54646 5.53C4.72285 5.35361 4.96646 5.04278 5.24906 4.68221L5.26646 4.66C5.32563 4.58768 5.39454 4.5013 5.47068 4.40585C5.62615 4.21096 5.8118 3.97823 6.00646 3.75L6.00646 9.9C6.00646 10.4 6.40646 10.8 6.90646 10.8C7.40646 10.8 7.80646 10.4 7.80646 9.9L7.80646 3.74C8.09646 4.08 8.37646 4.43 8.54646 4.65C8.83646 5.02 9.09646 5.34 9.26646 5.52C9.60646 5.88 10.1765 5.89 10.5365 5.54C10.8965 5.2 10.9065 4.63 10.5565 4.27C10.4165 4.13 10.2065 3.86 9.96646 3.55Z" fill="#181D27"/>
<path fill-rule="evenodd" clip-rule="evenodd" d="M4.83 21.71C6.17 22.8 7.91 22.8 11.36 22.8L11.34 22.82C12.12 22.82 12.56 22.82 13.03 22.65C13.075 22.63 13.1225 22.61 13.17 22.59C13.2175 22.57 13.265 22.55 13.31 22.53C13.75 22.32 14.06 22.01 14.61 21.46L19.35 16.72C19.3691 16.7009 19.3879 16.6821 19.4065 16.6636C20.0113 16.059 20.3566 15.7139 20.57 15.19C20.79 14.65 20.79 14.16 20.79 13.25V9.91C20.79 5.9 20.79 3.88 19.35 2.45C17.92 1.01 16.41 1.00999 12.4 1.00999C11.9 1.00999 11.5 1.40999 11.5 1.90999C11.5 2.40999 11.9 2.80999 12.4 2.80999C15.92 2.80999 17.17 2.81 18.08 3.72C18.99 4.63 18.99 6.39 18.99 9.91V14.01H18.9C15.92 14.01 14.28 14.01 13.14 15.15C12 16.29 12 17.93 12 20.91V21H11.36C8.33 21 6.81 21 5.96 20.31C5.79 20.17 5.63 20.01 5.49 19.84C4.8 18.99 4.8 17.47 4.8 14.44V12.9C4.8 12.4 4.4 12 3.9 12C3.4 12 3 12.4 3 12.9V14.44C3 17.89 3 19.62 4.09 20.97C4.31 21.25 4.56 21.49 4.83 21.71ZM14.41 16.41C14.91 15.91 15.8 15.82 17.72 15.8L13.8 19.72C13.82 17.8 13.91 16.91 14.41 16.41Z" fill="#181D27"/>
</svg>
