<svg width="24" height="24" viewBox="0 0 24 24" fill="none" xmlns="http://www.w3.org/2000/svg">
<path fill-rule="evenodd" clip-rule="evenodd" d="M10.9 22.8H12.9C16.92 22.8 18.94 22.8 20.37 21.36C21.8 19.92 21.8 17.9 21.8 13.87V11.78C21.8 9.78 21.8 8.68 21.3 7.66C20.8 6.64 19.94 5.96 18.36 4.73L17.3237 3.92171C14.9067 2.03958 13.5716 1 11.9 1C10.2284 1 8.89334 2.03958 6.47633 3.92171L6.44 3.95L5.40216 4.76181C3.84982 5.97795 2.99704 6.64605 2.5 7.66C2 8.68 2 9.78 2 11.78V13.87C2 17.9 2 19.92 3.43 21.36C4.87 22.8 6.88001 22.8 10.9 22.8ZM7.57957 5.33924C9.75323 3.64969 10.8464 2.8 11.9 2.8L11.89 2.79C12.9436 2.79 14.0368 3.63969 16.2104 5.32924L16.25 5.36L17.26 6.15C18.66 7.24 19.36 7.79 19.68 8.44C20 9.09 20 9.98 20 11.77V13.86C20 17.39 20 19.17 19.09 20.08C18.4751 20.6949 17.472 20.8943 15.8 20.959V17.9C15.8 16.88 15.8 16.32 15.58 15.79C15.29 15.08 14.72 14.51 14.01 14.22C13.48 14 12.92 14 11.9 14C10.88 14 10.32 14 9.79 14.22C9.07 14.52 8.52 15.07 8.22 15.79C8 16.33 8 16.89 8 17.9V20.959C6.328 20.8943 5.32493 20.6949 4.71 20.08C3.8 19.16 3.8 17.39 3.8 13.86V11.77C3.8 9.99 3.8 9.09 4.12 8.44C4.43 7.8 5.13 7.25 6.54 6.15L7.54 5.37L7.57957 5.33924ZM9.8 20.9888V17.9C9.8 17.17 9.8 16.68 9.88 16.48C10 16.2 10.21 15.99 10.48 15.88C10.68 15.8 11.14 15.8 11.9 15.8C12.66 15.8 13.12 15.8 13.32 15.88C13.59 15.99 13.81 16.21 13.92 16.48C14 16.68 14 17.14 14 17.9V20.9888C13.6539 20.99 13.2876 20.99 12.9 20.99H10.9C10.5124 20.99 10.1461 20.99 9.8 20.9888Z" fill="#181D27"/>
</svg>
