<svg width="24" height="24" viewBox="0 0 24 24" fill="none" xmlns="http://www.w3.org/2000/svg">
<path fill-rule="evenodd" clip-rule="evenodd" d="M8.4 10.8C7.08 10.8 6 9.72 6 8.4C6 7.08 7.08 6 8.4 6C9.72 6 10.8 7.08 10.8 8.4C10.8 9.72 9.72 10.8 8.4 10.8ZM8.4 7.8C8.07 7.8 7.8 8.07 7.8 8.4C7.8 8.73 8.07 9 8.4 9C8.73 9 9 8.73 9 8.4C9 8.07 8.73 7.8 8.4 7.8Z" fill="#181D27"/>
<path fill-rule="evenodd" clip-rule="evenodd" d="M13.9 21.8H9.9C5.89001 21.8 3.87 21.8 2.44 20.36C1 18.93 1 16.91 1 12.9V10.9C1 6.89 1 4.87 2.43 3.44C3.87 2 5.88 2 9.9 2H13.9C17.91 2 19.93 2 21.36 3.44C22.8 4.88 22.8 6.88999 22.8 10.9V12.9C22.8 16.91 22.8 18.93 21.36 20.36C19.93 21.8 17.91 21.8 13.9 21.8ZM9.9 3.8C6.38 3.8 4.62 3.8 3.71 4.71C2.8 5.62 2.8 7.38 2.8 10.9V12.9C2.8 14.1613 2.8 15.1966 2.84187 16.0478L5.37982 13.19C6.13982 12.34 7.56981 12.3 8.36981 13.1L9.88982 14.63L13.9098 10.61C14.7098 9.81001 16.1398 9.84001 16.8998 10.68L20.9875 15.1407C21 14.4866 21 13.7439 21 12.9V10.9C21 7.38 21 5.62 20.09 4.71C19.18 3.8 17.42 3.8 13.9 3.8H9.9ZM20.7936 17.5829C20.6615 18.2506 20.445 18.735 20.09 19.09C19.18 20 17.42 20 13.9 20H9.9C6.38 20 4.62 20 3.71 19.09C3.50514 18.8851 3.3464 18.6372 3.22339 18.3358L6.70982 14.41C6.80981 14.3 6.98982 14.3 7.08982 14.4L9.24981 16.56C9.41982 16.72 9.64982 16.82 9.88982 16.82C10.1298 16.82 10.3598 16.73 10.5298 16.56L15.1898 11.9C15.2898 11.79 15.4798 11.79 15.5798 11.9L20.7298 17.52C20.7502 17.5422 20.7715 17.5632 20.7936 17.5829Z" fill="#181D27"/>
</svg>
