<svg width="24" height="24" viewBox="0 0 24 24" fill="none" xmlns="http://www.w3.org/2000/svg">
<path d="M22.6504 5.75C22.6504 6.16 22.3104 6.5 21.9004 6.5H18.6504V9.75C18.6504 10.16 18.3104 10.5 17.9004 10.5C17.4904 10.5 17.1504 10.16 17.1504 9.75V6.5H13.9004C13.4904 6.5 13.1504 6.16 13.1504 5.75C13.1504 5.34 13.4904 5 13.9004 5H17.1504V1.75C17.1504 1.34 17.4904 1 17.9004 1C18.3104 1 18.6504 1.34 18.6504 1.75V5H21.9004C22.3104 5 22.6504 5.34 22.6504 5.75Z" fill="#181D27"/>
<path fill-rule="evenodd" clip-rule="evenodd" d="M2.65 21C4.31 22.65 6.68 22.65 11.4 22.65H11.39C16.12 22.65 18.49 22.65 20.14 21C21.8 19.34 21.8 16.97 21.8 12.25V11.75C21.8 11.25 21.4 10.85 20.9 10.85C20.4 10.85 20 11.25 20 11.75V12.25C20 13.4146 20 14.4192 19.9763 15.2872C19.093 14.9957 18.1936 14.85 17.2898 14.85H17.2498C15.6405 14.85 14.0739 15.3016 12.5786 16.1906C12.2724 15.9012 11.949 15.627 11.6095 15.37C9.38953 13.69 6.60953 12.81 3.76953 12.86C3.45319 12.8649 3.12738 12.8745 2.80016 12.8946C2.8 12.6853 2.8 12.4705 2.8 12.25C2.8 8.03001 2.8 5.91001 3.93 4.78001C5.05 3.65001 7.18 3.65001 11.4 3.65001C11.9 3.65001 12.3 3.25001 12.3 2.75001C12.3 2.25001 11.9 1.85001 11.4 1.85001C6.68 1.85001 4.31 1.85001 2.65 3.50001C1 5.16001 1 7.53001 1 12.25L1 12.3343C0.999942 16.9984 0.999912 19.3599 2.65 21ZM13.8157 17.5615C14.5655 18.539 15.1509 19.6265 15.5429 20.7766C17.1643 20.6674 18.1942 20.3958 18.87 19.72C19.432 19.158 19.7145 18.3512 19.8565 17.1629C19.0107 16.8227 18.1535 16.65 17.2898 16.65H17.2598C16.0908 16.65 14.9369 16.9562 13.8157 17.5615ZM11.4 20.85C12.2289 20.85 12.9768 20.85 13.6521 20.8414C13.013 19.2745 11.9281 17.8691 10.5295 16.81C8.62953 15.37 6.24953 14.61 3.78953 14.66C3.45123 14.6491 3.12782 14.662 2.81117 14.689C2.85205 17.3378 3.04252 18.8404 3.93 19.72C5.06 20.84 7.18 20.85 11.4 20.85Z" fill="#181D27"/>
</svg>
