<svg width="24" height="24" viewBox="0 0 24 24" fill="none" xmlns="http://www.w3.org/2000/svg">
<path fill-rule="evenodd" clip-rule="evenodd" d="M15.5333 6.72468C15.5333 6.72469 15.5333 6.72466 15.5333 6.72468L15.53 6.72716L15.5181 6.73593L15.47 6.77165C15.4275 6.80333 15.3646 6.85041 15.2842 6.91113C15.1234 7.03261 14.8928 7.2085 14.6158 7.42467C14.0609 7.85777 13.3239 8.44915 12.5897 9.08668C11.8509 9.72809 11.1354 10.3986 10.6116 10.9914C10.3487 11.2888 10.1532 11.5456 10.0282 11.7529C9.94667 11.8881 9.9165 11.9677 9.90551 12C9.9165 12.0324 9.94667 12.1119 10.0282 12.2471C10.1532 12.4545 10.3487 12.7112 10.6116 13.0086C11.1353 13.6015 11.8509 14.272 12.5897 14.9134C13.3239 15.5509 14.0608 16.1423 14.6158 16.5753C14.8928 16.7915 15.1234 16.9674 15.2842 17.0889C15.3646 17.1496 15.4275 17.1967 15.47 17.2283L15.5181 17.2641L15.5299 17.2728L15.5327 17.2749C15.9329 17.5696 16.019 18.1335 15.7243 18.5337C15.4295 18.9339 14.8661 19.0194 14.4659 18.7247L14.9996 18C14.4659 18.7247 14.466 18.7248 14.4659 18.7247L14.4606 18.7208L14.4467 18.7105L14.3944 18.6716C14.349 18.6378 14.283 18.5884 14.1994 18.5252C14.0321 18.3989 13.7939 18.2172 13.5084 17.9944C12.9384 17.5495 12.1753 16.9374 11.4096 16.2725C10.6483 15.6116 9.86387 14.8809 9.26266 14.2005C8.96297 13.8613 8.68978 13.5134 8.48664 13.1764C8.29839 12.8642 8.09961 12.4483 8.09961 12C8.09961 11.5517 8.29841 11.1358 8.48665 10.8236C8.68979 10.4866 8.96298 10.1387 9.26267 9.79955C9.86387 9.11913 10.6483 8.38845 11.4096 7.7275C12.1753 7.06267 12.9384 6.45051 13.5084 6.00565C13.7939 5.78285 14.0321 5.60115 14.1994 5.4748C14.283 5.41161 14.349 5.36221 14.3944 5.32838L14.4467 5.28952L14.4606 5.27926L14.4654 5.27571C14.4655 5.27563 14.4659 5.27533 14.9996 6L14.4654 5.27571C14.8656 4.98095 15.4295 5.06606 15.7243 5.46629C16.019 5.8665 15.9335 6.42991 15.5333 6.72468Z" fill="#181D27"/>
</svg>
