<svg width="24" height="24" viewBox="0 0 24 24" fill="none" xmlns="http://www.w3.org/2000/svg">
<path d="M19.9902 3.81C18.8202 2.64 17.2702 2 15.6302 2C13.9902 2 12.4302 2.64 11.2602 3.81L8.6502 6.42C8.3002 6.77 8.3002 7.34 8.6502 7.69C9.0002 8.04 9.5702 8.04 9.9202 7.69L12.5302 5.08C13.3602 4.25 14.4502 3.8 15.6202 3.8C16.7902 3.8 17.8902 4.26 18.7102 5.08C20.4202 6.78 20.4202 9.56 18.7102 11.26L16.1002 13.87C15.7502 14.22 15.7502 14.79 16.1002 15.14C16.2802 15.32 16.5102 15.4 16.7402 15.4C16.9702 15.4 17.2002 15.31 17.3802 15.14L19.9902 12.53C22.4002 10.12 22.4002 6.21 19.9902 3.8V3.81Z" fill="#181D27"/>
<path d="M10.0296 15.04L15.0296 10.04C15.3796 9.69001 15.3796 9.12001 15.0296 8.77001C14.6796 8.42001 14.1096 8.42001 13.7596 8.77001L8.75957 13.77C8.40957 14.12 8.40957 14.69 8.75957 15.04C8.93957 15.22 9.16957 15.3 9.39957 15.3C9.62957 15.3 9.85957 15.21 10.0396 15.04H10.0296Z" fill="#181D27"/>
<path d="M11.2604 18.72L13.8704 16.11L13.8804 16.12C14.2304 15.77 14.8004 15.77 15.1504 16.12C15.5004 16.47 15.5004 17.04 15.1504 17.39L12.5404 20C11.3804 21.17 9.83043 21.81 8.18043 21.81C6.53043 21.81 4.98043 21.17 3.81043 20C1.40043 17.59 1.40043 13.68 3.81043 11.27L6.42043 8.66001C6.77043 8.31001 7.34043 8.31001 7.69043 8.66001C8.04043 9.01001 8.04043 9.58001 7.69043 9.93001L5.08043 12.54C3.37043 14.24 3.37043 17.01 5.08043 18.72C5.90043 19.54 7.00043 20 8.17043 20C9.34043 20 10.4304 19.55 11.2604 18.72Z" fill="#181D27"/>
</svg>
