<svg xmlns="http://www.w3.org/2000/svg" width="24" height="24" fill="currentColor" viewBox="0 0 24 24">
  <path fill-rule="evenodd" d="M12 2.1a.9.9 0 0 1 .9.9v3a.9.9 0 1 1-1.8 0V3a.9.9 0 0 1 .9-.9Zm0 15a.9.9 0 0 1 .9.9v3a.9.9 0 1 1-1.8 0v-3a.9.9 0 0 1 .9-.9Zm5.1-5.1a.9.9 0 0 1 .9-.9h3a.9.9 0 0 1 0 1.8h-3a.9.9 0 0 1-.9-.9Zm-15 0a.9.9 0 0 1 .9-.9h3a.9.9 0 0 1 0 1.8H3a.9.9 0 0 1-.9-.9ZM19 5a.9.9 0 0 1 0 1.273l-2.122 2.121a.9.9 0 0 1-1.273-1.272L17.727 5A.9.9 0 0 1 19 5ZM8.394 15.606a.9.9 0 0 1 0 1.273l-2.121 2.12A.9.9 0 1 1 5 17.728l2.121-2.121a.9.9 0 0 1 1.273 0Zm7.211 0a.9.9 0 0 1 1.273 0L19 17.727A.9.9 0 1 1 17.727 19l-2.122-2.121a.9.9 0 0 1 0-1.273ZM5 5a.9.9 0 0 1 1.273 0l2.121 2.122a.9.9 0 1 1-1.273 1.272L5 6.274A.9.9 0 0 1 5 5Z" clip-rule="evenodd"/>
</svg>
