<svg width="24" height="24" viewBox="0 0 24 24" fill="none" xmlns="http://www.w3.org/2000/svg">
<path d="M11.9 17.3C11.4 17.3 11 16.9 11 16.4V14.4C11 13.9 11.4 13.5 11.9 13.5C12.4 13.5 12.8 13.9 12.8 14.4V16.4C12.8 16.9 12.4 17.3 11.9 17.3Z" fill="#181D27"/>
<path fill-rule="evenodd" clip-rule="evenodd" d="M17.3 8.26316C18.9812 8.71365 20.2819 10.1475 20.52 11.95C20.66 12.97 20.8 14.17 20.8 15.42C20.8 16.67 20.66 17.87 20.52 18.88C20.23 21 18.49 22.62 16.38 22.71C14.92 22.78 13.46 22.81 11.9 22.81V22.8C10.34 22.8 8.88 22.77 7.42 22.7C5.31 22.6 3.56 20.99 3.28 18.87C3.14 17.86 3 16.65 3 15.41C3 14.17 3.14 12.96 3.28 11.95C3.52654 10.1477 4.82108 8.70675 6.5 8.26006V6.4C6.5 3.42 8.92 1 11.9 1C14.88 1 17.3 3.42 17.3 6.4V8.26316ZM15.5 8.08502V6.4C15.5 4.42 13.89 2.8 11.9 2.8C9.91 2.8 8.3 4.42 8.3 6.4V8.08512C10.6766 8.00166 13.1297 8.00163 15.5 8.08502ZM11.9 9.8C10.38 9.8 8.94 9.83 7.5 9.9C6.26 9.96 5.23 10.92 5.06 12.18C4.93 13.13 4.8 14.26 4.8 15.4C4.8 16.54 4.93 17.67 5.06 18.62C5.23 19.88 6.26 20.84 7.5 20.9C10.36 21.03 13.44 21.03 16.3 20.9C17.55 20.84 18.57 19.88 18.74 18.62C18.87 17.67 19 16.54 19 15.4C19 14.26 18.87 13.13 18.74 12.17C18.57 10.91 17.54 9.95 16.3 9.89C14.86 9.82 13.42 9.79 11.9 9.79V9.8Z" fill="#181D27"/>
</svg>
