<svg width="24" height="24" viewBox="0 0 24 24" fill="none" xmlns="http://www.w3.org/2000/svg">
<path fill-rule="evenodd" clip-rule="evenodd" d="M10.5404 2.60984C12.0015 2.59142 13.4576 2.60033 14.9242 2.63718L16.0316 2.66746C17.0854 2.70035 17.9828 2.74953 18.7396 2.88132C19.789 3.06415 20.6579 3.41807 21.3929 4.15574L21.5257 4.29539C22.1675 4.99811 22.4883 5.81108 22.6566 6.77976C22.8286 7.77043 22.8521 9.00029 22.8841 10.5053L22.8968 11.2534C22.9022 11.7515 22.9022 12.2494 22.8968 12.7475L22.8841 13.4956C22.8521 15.0007 22.8286 16.2305 22.6566 17.2212C22.4883 18.1899 22.1676 19.0028 21.5257 19.7055L21.3929 19.8452C20.6579 20.5828 19.789 20.9368 18.7396 21.1196C17.9828 21.2514 17.0854 21.3006 16.0316 21.3335L14.9242 21.3637C13.4576 21.4006 12.0015 21.4095 10.5404 21.3911L9.07651 21.3637C7.52938 21.3249 6.27025 21.2953 5.26108 21.1196C4.27736 20.9483 3.45225 20.6262 2.74741 19.979L2.60776 19.8452C1.87642 19.111 1.52365 18.2545 1.34409 17.2212C1.21504 16.4781 1.16928 15.6 1.14096 14.5727L1.11655 13.4956C1.09526 12.4973 1.09527 11.5037 1.11655 10.5053L1.14096 9.4282C1.16927 8.40094 1.21508 7.5229 1.34409 6.77976C1.52361 5.74628 1.87635 4.88998 2.60776 4.15574L2.74741 4.02195C3.45233 3.37454 4.27718 3.0527 5.26108 2.88132C6.27029 2.70559 7.52929 2.67606 9.07651 2.63718L10.5404 2.60984ZM15.5296 10.7007C14.2329 11.4353 13.1528 11.9009 11.9994 11.9009C10.9901 11.9008 10.0368 11.5446 8.94565 10.9634L8.46909 10.7007L3.04331 7.62644C2.98871 8.13723 2.96201 8.7362 2.94175 9.46238L2.91636 10.5444C2.89563 11.5169 2.89562 12.484 2.91636 13.4565L2.94175 14.5386C2.96959 15.5362 3.01001 16.2933 3.11753 16.9126C3.2535 17.6952 3.48366 18.1736 3.88315 18.5747L4.0355 18.7163C4.40433 19.0291 4.86362 19.2232 5.56968 19.3462C6.41736 19.4937 7.52069 19.5237 9.12143 19.5639L10.5628 19.5913C12.0014 19.6094 13.4353 19.6003 14.8792 19.5639L15.9906 19.5337C17.0156 19.5014 17.7953 19.4569 18.431 19.3462C19.2378 19.2056 19.7216 18.9719 20.1175 18.5747L20.2601 18.4204C20.5735 18.0496 20.7642 17.5974 20.8832 16.9126C21.0265 16.0869 21.0511 15.0162 21.0843 13.4565L21.096 12.728C21.1012 12.2429 21.1012 11.758 21.096 11.2729L21.0843 10.5444C21.0579 9.30233 21.0343 8.37043 20.9544 7.62547L15.5296 10.7007ZM10.5628 4.40965L9.12143 4.43699C7.52059 4.47721 6.41737 4.50716 5.56968 4.65476C4.86339 4.77782 4.4044 4.97167 4.0355 5.28465L3.88315 5.42625C3.75491 5.55499 3.64498 5.69207 3.54917 5.84422L9.35581 9.13425L9.8021 9.37937C10.7895 9.90346 11.4229 10.1 11.9994 10.1001C12.6583 10.1001 13.3917 9.84316 14.6429 9.13425L20.4505 5.84226C20.3924 5.75009 20.3298 5.66302 20.2601 5.58054L20.1175 5.42625C19.7216 5.02898 19.2377 4.79535 18.431 4.65476C17.7953 4.54406 17.0156 4.49959 15.9906 4.46726L14.8792 4.43699C13.4353 4.40071 12.0014 4.39151 10.5628 4.40965Z" fill="#181D27"/>
</svg>
