<svg width="24" height="24" viewBox="0 0 24 24" fill="none" xmlns="http://www.w3.org/2000/svg">
<path d="M13.9999 9.09961C14.4969 9.09968 14.9003 9.50299 14.9003 10C14.9003 10.497 14.4969 10.9003 13.9999 10.9004H9.99986C9.50281 10.9004 9.09947 10.4971 9.09947 10C9.09947 9.50294 9.50281 9.09961 9.99986 9.09961H13.9999Z" fill="#181D27"/>
<path d="M13.9999 5.09961C14.4969 5.09968 14.9003 5.50299 14.9003 6C14.9003 6.49701 14.4969 6.90032 13.9999 6.90039H9.99986C9.50281 6.90039 9.09947 6.49706 9.09947 6C9.09947 5.50294 9.50281 5.09961 9.99986 5.09961H13.9999Z" fill="#181D27"/>
<path fill-rule="evenodd" clip-rule="evenodd" d="M14.9999 1.09961C15.9172 1.09961 16.6958 1.09848 17.3143 1.18164C17.9587 1.26829 18.5627 1.46128 19.0506 1.94922C19.5386 2.43718 19.7316 3.04116 19.8182 3.68555C19.9014 4.30408 19.9003 5.08264 19.9003 6V6.51758L20.7186 7.06348C21.1416 7.34545 21.5105 7.59053 21.7987 7.82422C22.1014 8.06977 22.366 8.34248 22.5604 8.70703L22.6278 8.84375C22.7734 9.16394 22.8373 9.4901 22.868 9.8291C22.9015 10.1974 22.9 10.6381 22.8983 11.1436C22.894 12.4036 22.8821 13.6921 22.8495 14.9971C22.8118 16.5069 22.7831 17.7387 22.6083 18.7305C22.4259 19.7644 22.0723 20.6207 21.3407 21.3525C20.6071 22.0862 19.7433 22.439 18.701 22.6211C17.6997 22.796 16.4526 22.825 14.9217 22.8633C12.9686 22.912 11.0322 22.912 9.07897 22.8633C7.54822 22.825 6.29994 22.796 5.29869 22.6211C4.25655 22.439 3.39353 22.0861 2.66002 21.3525C1.92822 20.6207 1.57482 19.7645 1.39244 18.7305C1.21752 17.7386 1.18892 16.5062 1.15123 14.9961C1.11866 13.6913 1.10664 12.4035 1.1024 11.1436C1.10071 10.6382 1.09829 10.1974 1.1317 9.8291C1.16685 9.44174 1.2462 9.07116 1.44029 8.70703C1.63469 8.34246 1.89925 8.06975 2.20201 7.82422C2.49022 7.59052 2.85909 7.34548 3.28209 7.06348L4.09947 6.51856V6C4.09947 5.08263 4.09834 4.30408 4.1815 3.68555C4.26815 3.04114 4.46111 2.43719 4.94908 1.94922C5.43705 1.46129 6.04103 1.26828 6.68541 1.18164C7.30393 1.0985 8.08257 1.09961 8.99986 1.09961H14.9999ZM15.5497 14.9199C14.8134 15.3617 14.2042 15.7281 13.6737 15.9775C13.1248 16.2356 12.594 16.4013 11.9999 16.4014C11.4057 16.4014 10.875 16.2356 10.326 15.9775C9.79556 15.7281 9.18638 15.3617 8.45006 14.9199L2.90514 11.5918C2.91075 12.6983 2.92279 13.8196 2.95104 14.9512C2.99008 16.5156 3.01887 17.59 3.1649 18.418C3.30348 19.2037 3.53404 19.6816 3.93248 20.0801C4.3292 20.4768 4.8111 20.7092 5.60924 20.8486C6.44841 20.9951 7.53929 21.0248 9.12389 21.0645C11.0472 21.1125 12.9536 21.1125 14.8768 21.0645C16.4616 21.0248 17.5523 20.9952 18.3915 20.8486C19.1894 20.7092 19.6706 20.4767 20.0672 20.0801C20.4657 19.6816 20.6972 19.2037 20.8358 18.418C20.9818 17.59 21.0106 16.5155 21.0497 14.9512C21.078 13.8197 21.0882 12.6984 21.0936 11.5918L15.5497 14.9199ZM8.99986 2.90039C8.03201 2.90039 7.39631 2.90163 6.92565 2.96484C6.48092 3.02464 6.32033 3.12487 6.22252 3.22266C6.12472 3.32045 6.02451 3.48097 5.96471 3.92578C5.90148 4.39646 5.90025 5.03205 5.90025 6V11.29L9.37584 13.376C10.1433 13.8364 10.6625 14.1469 11.0917 14.3486C11.5023 14.5417 11.7632 14.6016 11.9999 14.6016C12.2365 14.6015 12.4975 14.5417 12.9081 14.3486C13.3372 14.1469 13.8565 13.8364 14.6239 13.376L18.0995 11.29V6C18.0995 5.03206 18.0982 4.39645 18.035 3.92578C17.9753 3.48177 17.8758 3.32051 17.7782 3.22266C17.6804 3.12486 17.5188 3.02465 17.0741 2.96484C16.6034 2.90162 15.9677 2.90039 14.9999 2.90039H8.99986ZM4.09947 8.68359C3.75114 8.91653 3.51416 9.07804 3.3358 9.22266C3.14279 9.3792 3.07052 9.47433 3.02818 9.55371C3.02631 9.55723 3.02418 9.56081 3.02233 9.56445L4.09947 10.21V8.68359ZM19.9003 10.209L20.9764 9.56348L20.9725 9.55371C20.9302 9.47429 20.8577 9.3791 20.6649 9.22266C20.4864 9.07791 20.2491 8.91589 19.9003 8.68262V10.209Z" fill="#181D27"/>
</svg>
