<svg width="24" height="24" viewBox="0 0 24 24" fill="none" xmlns="http://www.w3.org/2000/svg">
<path fill-rule="evenodd" clip-rule="evenodd" d="M9.07583 2.63685C11.0314 2.58772 12.9678 2.58772 14.9234 2.63686L14.9918 2.63858C16.5079 2.67664 17.7443 2.70768 18.7387 2.88085C19.7884 3.06366 20.6571 3.41756 21.3923 4.15546C22.1238 4.88981 22.4762 5.74606 22.6557 6.77977C22.8251 7.7555 22.8508 8.96236 22.8821 10.4366L22.8836 10.5052C22.8943 11.008 22.8996 12.0073 22.8996 12.5001C22.8996 12.9972 22.4967 13.4001 21.9996 13.4001C21.5026 13.4001 21.0996 12.9972 21.0996 12.5001C21.0996 12.0101 21.0943 11.0264 21.084 10.5436C21.0576 9.3027 21.0362 8.37187 20.9565 7.62737L15.5313 10.7073C14.241 11.4399 13.1572 11.9 12 11.9C10.8428 11.9 9.75903 11.4399 8.46868 10.7073L3.04282 7.62696C2.96299 8.37154 2.94163 9.30248 2.91516 10.5436C2.89442 11.5165 2.89443 12.4835 2.91517 13.4564C2.94844 15.0165 2.97364 16.0865 3.11704 16.9123C3.253 17.6952 3.48261 18.1731 3.88219 18.5742C4.27818 18.9717 4.76206 19.2053 5.56939 19.3459C6.41717 19.4935 7.51988 19.5235 9.12104 19.5637C9.91758 19.5837 10.7109 19.5954 11.5036 19.5989C12.0006 19.6011 12.4018 20.0058 12.3996 20.5028C12.3974 20.9999 11.9927 21.4011 11.4957 21.3989C10.6905 21.3954 9.88478 21.3835 9.0758 21.3631L9.00713 21.3614C7.49119 21.3233 6.25485 21.2923 5.26059 21.1192C4.2109 20.9364 3.3421 20.5825 2.60697 19.8446C1.87542 19.1102 1.5231 18.254 1.34359 17.2203C1.17415 16.2446 1.14845 15.0379 1.11705 13.5637L1.11558 13.4948C1.09429 12.4963 1.09428 11.5037 1.11557 10.5052L1.11705 10.4362C1.14845 8.96212 1.17415 7.75539 1.34358 6.77975C1.52309 5.74604 1.87539 4.88982 2.60696 4.15547C3.34208 3.41754 4.21087 3.06364 5.26057 2.88083C6.25492 2.70766 7.49137 2.67662 9.00748 2.63857L9.07583 2.63685ZM20.1171 5.42585C20.2455 5.55472 20.3563 5.69153 20.4521 5.84383L14.6427 9.14197C13.4073 9.84329 12.667 10.1 12 10.1C11.333 10.1 10.5927 9.84329 9.35735 9.14197L3.5473 5.84352C3.64308 5.69134 3.75386 5.55463 3.88216 5.42584C4.27817 5.02833 4.76207 4.79474 5.5694 4.65414C6.41718 4.50649 7.51989 4.47651 9.12103 4.43628C11.0464 4.38791 12.9528 4.38791 14.8782 4.43629C16.4794 4.47652 17.5821 4.50651 18.4298 4.65416C19.2371 4.79475 19.7211 5.02833 20.1171 5.42585Z" fill="#181D27"/>
<path d="M20.1269 14.3546C19.7704 14.0082 19.2006 14.0163 18.8542 14.3727C18.5078 14.7292 18.5159 15.299 18.8723 15.6454C19.041 15.8093 19.3056 16.0172 19.5476 16.2073L19.6041 16.2516C19.7477 16.3644 19.8962 16.481 20.044 16.6H13.9996C13.5026 16.6 13.0996 17.003 13.0996 17.5C13.0996 17.9971 13.5026 18.4 13.9996 18.4H20.044C19.8963 18.519 19.7479 18.6355 19.6044 18.7482L19.5476 18.7927C19.3056 18.9829 19.041 19.1907 18.8723 19.3546C18.5159 19.701 18.5078 20.2708 18.8542 20.6273C19.2006 20.9837 19.7704 20.9918 20.1269 20.6454C20.2111 20.5635 20.3854 20.4236 20.6595 20.2083L20.7196 20.1611C20.9614 19.9713 21.2477 19.7466 21.5211 19.5149C21.8136 19.2671 22.1227 18.9853 22.3653 18.7005C22.4869 18.5577 22.6101 18.3931 22.7064 18.213C22.799 18.04 22.8996 17.7924 22.8996 17.5C22.8996 17.2076 22.799 16.96 22.7064 16.7871C22.6101 16.6069 22.4869 16.4423 22.3653 16.2995C22.1227 16.0147 21.8136 15.733 21.5211 15.4851C21.2477 15.2535 20.9615 15.0288 20.7197 14.839L20.6595 14.7917C20.3854 14.5765 20.2111 14.4365 20.1269 14.3546Z" fill="#181D27"/>
</svg>
