<svg width="24" height="24" viewBox="0 0 24 24" fill="none" xmlns="http://www.w3.org/2000/svg">
<path fill-rule="evenodd" clip-rule="evenodd" d="M6.89961 2.00001C6.89961 1.50295 6.49667 1.10001 5.99961 1.10001C5.50255 1.10001 5.09961 1.50295 5.09961 2.00001V2.52251C4.32161 2.75872 3.65297 3.13502 3.09104 3.74251C2.28276 4.61633 1.93042 5.7148 1.76301 7.061C1.59958 8.37508 1.59959 10.055 1.59961 12.1802V12.8198C1.59959 14.945 1.59958 16.625 1.76301 17.939C1.93042 19.2852 2.28278 20.3837 3.09105 21.2576C3.90856 22.1413 4.95193 22.5358 6.22933 22.7214C7.45818 22.9001 9.02354 22.9 10.9779 22.9H11.0496C11.5467 22.9 11.9496 22.4971 11.9496 22C11.9496 21.503 11.5467 21.1 11.0496 21.1C9.00691 21.1 7.57266 21.0978 6.48822 20.9402C5.43733 20.7874 4.84702 20.5051 4.41241 20.0353C3.96857 19.5554 3.69485 18.8877 3.54925 17.7169C3.40125 16.5269 3.39961 14.959 3.39961 12.7568V12.2432C3.39961 10.9176 3.4002 9.82186 3.43296 8.90001H20.5663C20.5969 9.76388 20.5995 10.7818 20.5996 12.0001C20.5997 12.4971 21.0026 12.9001 21.4997 12.9C21.9968 12.9 22.3997 12.497 22.3996 11.9999C22.3994 9.9232 22.3952 8.27706 22.2266 6.98506C22.0554 5.67347 21.7013 4.59987 20.9082 3.74251C20.3463 3.13502 19.6776 2.75871 18.8996 2.5225V2.00001C18.8996 1.50295 18.4967 1.10001 17.9996 1.10001C17.5026 1.10001 17.0996 1.50295 17.0996 2.00001V2.2008C15.9861 2.09997 14.6366 2.09998 13.0213 2.10001H10.9779C9.36264 2.09998 8.01308 2.09997 6.89961 2.2008V2.00001ZM20.4256 7.10001H3.57365C3.72455 6.04158 3.99226 5.41901 4.41242 4.96479C4.62449 4.73552 4.87363 4.5509 5.19526 4.4042C5.34332 4.69827 5.64791 4.90001 5.99961 4.90001C6.49367 4.90001 6.89474 4.50191 6.89957 4.009C7.93026 3.90173 9.25516 3.90001 11.0496 3.90001H12.9496C14.744 3.90001 16.069 3.90173 17.0997 4.009C17.1045 4.50191 17.5056 4.90001 17.9996 4.90001C18.3513 4.90001 18.6559 4.69827 18.804 4.4042C19.1256 4.5509 19.3748 4.73552 19.5868 4.96478C20.007 5.41901 20.2747 6.0416 20.4256 7.10001Z" fill="#181D27"/>
<path d="M17.8996 14C17.8996 13.5029 17.4967 13.1 16.9996 13.1C16.5026 13.1 16.0996 13.5029 16.0996 14V17.1H12.9996C12.5026 17.1 12.0996 17.503 12.0996 18C12.0996 18.4971 12.5026 18.9 12.9996 18.9H16.0996V22C16.0996 22.4971 16.5026 22.9 16.9996 22.9C17.4967 22.9 17.8996 22.4971 17.8996 22V18.9H20.9996C21.4967 18.9 21.8996 18.4971 21.8996 18C21.8996 17.503 21.4967 17.1 20.9996 17.1H17.8996V14Z" fill="#181D27"/>
</svg>
