<svg width="24" height="24" viewBox="0 0 24 24" fill="none" xmlns="http://www.w3.org/2000/svg">
<path fill-rule="evenodd" clip-rule="evenodd" d="M19.5859 3.09925C19.8597 3.09924 20.1833 3.09027 20.4814 3.16272L20.6074 3.19886L20.8125 3.28187C21.2759 3.50101 21.6339 3.90079 21.7998 4.39222L21.8369 4.51819C21.8887 4.73105 21.8988 4.95726 21.9004 5.16858V18.8307C21.8985 19.084 21.8832 19.3583 21.7998 19.6061L21.8008 19.6071C21.6112 20.1692 21.1695 20.6108 20.6074 20.8004C20.3593 20.8842 20.0848 20.8979 19.8311 20.9H19.418C19.3586 20.899 19.2965 20.8958 19.2334 20.8903L19.1064 20.8746C18.8174 20.8272 18.544 20.7129 18.3066 20.5426C18.1672 20.4424 18.0476 20.3207 17.9492 20.2223L17.7812 20.0533C17.0511 19.3232 16.7871 19.0672 16.4834 18.8844L16.4629 18.8727C16.2351 18.7383 15.9803 18.6413 15.4531 18.4772L14.8213 18.2858L13.4902 17.8864L12.3291 19.6285C11.7997 20.4227 10.9083 20.9 9.9541 20.9C8.4764 20.9 7.26051 19.7767 7.11426 18.3375L7.09961 18.0455V15.9694L6.86816 15.9H6C5.54651 15.9 5.16132 15.9001 4.84473 15.8785C4.60111 15.8619 4.36114 15.8305 4.125 15.7614L3.89062 15.6793C3.26887 15.4217 2.75827 14.9568 2.44336 14.3688L2.32031 14.109C2.19147 13.7976 2.14323 13.4794 2.12109 13.1549C2.09953 12.8384 2.09961 12.453 2.09961 11.9996C2.09961 11.5463 2.09952 11.1609 2.12109 10.8444C2.14325 10.5199 2.19142 10.2017 2.32031 9.89026L2.44336 9.6305C2.75832 9.04249 3.26893 8.57747 3.89062 8.31995L4.125 8.23792C4.36112 8.1688 4.60115 8.13735 4.84473 8.12073C5.16132 8.09915 5.54653 8.09925 6 8.09925H6.86816L14.8213 5.71351L15.4531 5.5221C15.9817 5.35756 16.2357 5.26062 16.4639 5.12562L16.4844 5.1139C16.7876 4.93116 17.0519 4.67528 17.7812 3.94593L17.9492 3.77698L18.1123 3.6178C18.1718 3.56231 18.2366 3.50591 18.3066 3.45569C18.5443 3.28512 18.8179 3.17201 19.1064 3.12464L19.2334 3.10901C19.3594 3.09805 19.4815 3.09925 19.5859 3.09925ZM8.90039 18.0455L8.90527 18.153C8.95913 18.6847 9.40823 19.0992 9.9541 19.0992C10.3065 19.0992 10.6356 18.9236 10.8311 18.6305L11.6875 17.3453L8.90039 16.5094V18.0455ZM19.4141 4.90101H19.3984C19.3833 4.90349 19.3688 4.90981 19.3564 4.91858C19.3662 4.91156 19.3656 4.91067 19.3447 4.9303L19.2227 5.05042L19.0537 5.21839C18.3832 5.88885 17.9457 6.33523 17.4092 6.65784L17.4072 6.65882L17.3877 6.67054L17.3848 6.67249C16.9811 6.91197 16.5427 7.06902 15.9658 7.24769L15.3379 7.43812L7.90039 9.66858V14.3297L15.3379 16.5612L15.9658 16.7516C16.4466 16.9005 16.8313 17.0344 17.1797 17.2135L17.3848 17.3268L17.3877 17.3287L17.4082 17.3414H17.4102L17.6064 17.4684C18.0589 17.779 18.4668 18.194 19.0537 18.7809L19.2227 18.9489C19.2855 19.0117 19.3185 19.0452 19.3438 19.069C19.365 19.0889 19.3652 19.0877 19.3555 19.0807L19.3975 19.0983H19.4141C19.4489 19.0994 19.4962 19.0992 19.5859 19.0992C19.7888 19.0992 19.9038 19.0991 19.9883 19.0944C20.0126 19.093 20.029 19.0906 20.0391 19.0895C20.0622 19.0794 20.0798 19.0619 20.0898 19.0387C20.091 19.0286 20.0934 19.012 20.0947 18.9879C20.0995 18.9035 20.0996 18.7881 20.0996 18.5856V5.4137C20.0996 5.21107 20.0995 5.09575 20.0947 5.01136C20.0933 4.98639 20.091 4.96955 20.0898 4.9596C20.0796 4.93674 20.062 4.91869 20.0391 4.90882C20.0289 4.90766 20.0125 4.90629 19.9883 4.90491C19.9038 4.90013 19.7887 4.90003 19.5859 4.90003C19.4962 4.90003 19.4489 4.89991 19.4141 4.90101ZM6 9.90003C5.52176 9.90003 5.20797 9.90018 4.9668 9.91663C4.85013 9.9246 4.76692 9.93507 4.70605 9.9469L4.5791 9.98304C4.34341 10.0807 4.14976 10.2572 4.03027 10.4801L3.9834 10.5787C3.96029 10.6346 3.93288 10.7341 3.91699 10.9664C3.90054 11.2075 3.90039 11.5216 3.90039 11.9996C3.90039 12.4777 3.90056 12.7917 3.91699 13.0328C3.93284 13.265 3.9603 13.3646 3.9834 13.4205L4.03027 13.5192C4.14974 13.7422 4.34339 13.9186 4.5791 14.0162L4.70605 14.0524C4.76693 14.0642 4.85011 14.0747 4.9668 14.0826C5.20798 14.0991 5.52175 14.0992 6 14.0992H6.09961V9.90003H6Z" fill="#181D27"/>
</svg>
