<svg width="24" height="24" viewBox="0 0 24 24" fill="none" xmlns="http://www.w3.org/2000/svg">
<path d="M12 1.09961C12.5592 1.09961 13.1091 1.14215 13.6465 1.22363L14.1787 1.31836L14.2686 1.34082C14.704 1.47634 14.9744 1.92235 14.8818 2.37891C14.7891 2.83557 14.366 3.1408 13.9121 3.0957L13.8213 3.08203L13.376 3.00293C12.9277 2.935 12.4682 2.90039 12 2.90039C6.97421 2.90039 2.90039 6.97421 2.90039 12C2.90039 17.0257 6.97421 21.0996 12 21.0996C17.0257 21.0996 21.0996 17.0257 21.0996 12C21.0996 11.5319 21.065 11.0724 20.9971 10.624L20.918 10.1787L20.9043 10.0879C20.8592 9.63393 21.1644 9.21082 21.6211 9.11816C22.0777 9.02554 22.5237 9.29603 22.6592 9.73145L22.6816 9.82129L22.7764 10.3535C22.8578 10.8909 22.9004 11.4408 22.9004 12C22.9004 18.0199 18.0199 22.9004 12 22.9004C5.98009 22.9004 1.09961 18.0199 1.09961 12C1.09961 5.98009 5.98009 1.09961 12 1.09961Z" fill="#181D27"/>
<path d="M12 6.09961C12.4971 6.09961 12.9004 6.50294 12.9004 7C12.9004 7.49706 12.4971 7.90039 12 7.90039C9.73564 7.90039 7.90039 9.73564 7.90039 12C7.90039 14.2643 9.73564 16.0996 12 16.0996C14.2643 16.0996 16.0996 14.2643 16.0996 12C16.0996 11.5029 16.5029 11.0996 17 11.0996C17.4971 11.0996 17.9004 11.5029 17.9004 12C17.9004 15.2585 15.2585 17.9004 12 17.9004C8.74152 17.9004 6.09961 15.2585 6.09961 12C6.09961 8.74152 8.74152 6.09961 12 6.09961Z" fill="#181D27"/>
<path fill-rule="evenodd" clip-rule="evenodd" d="M18.0078 1.31055C18.7319 0.859605 19.6522 1.19692 19.9844 1.92773L20.0469 2.08984L20.0547 2.11621L20.4658 3.59668L21.8408 3.93652L21.875 3.94531L22.043 4.00586C22.7973 4.33309 23.1371 5.27568 22.6777 6.00586L22.5664 6.15918C22.0119 6.82877 21.257 7.71639 20.2412 8.23633C19.2831 8.7266 18.1589 8.86067 16.8633 8.40137L12.667 12.5986L12.5986 12.6602C12.2452 12.9488 11.7232 12.9281 11.3936 12.5986C11.0424 12.2472 11.0424 11.6776 11.3936 11.3262L15.6113 7.10742C15.1699 5.89108 15.2805 4.80248 15.7363 3.85547C16.2405 2.80833 17.1311 2.01269 17.8564 1.41992L18.0078 1.31055ZM18.498 3.2373C18.0057 3.68085 17.598 4.13615 17.3574 4.63574C17.1009 5.16871 17.0074 5.80921 17.3711 6.66895C18.2657 7.01265 18.9038 6.8984 19.4209 6.63379C19.9003 6.3884 20.3238 5.99133 20.7451 5.51953L19.5244 5.21777C19.2093 5.13985 18.9601 4.89865 18.873 4.58594L18.498 3.2373Z" fill="#181D27"/>
</svg>
