<svg width="24" height="24" viewBox="0 0 24 24" fill="none" xmlns="http://www.w3.org/2000/svg">
<path fill-rule="evenodd" clip-rule="evenodd" d="M12.3174 4.67953C13.5352 4.11074 15.1743 3.75 17 3.75C18.4173 3.75 19.5972 3.98636 20.419 4.22114C20.7628 4.31939 21.0428 4.41704 21.25 4.49628V11.5H22.75V3.53647L22.3345 3.32874L22.3335 3.32821L22.3308 3.32688L22.3232 3.32316L22.2993 3.31162C22.2794 3.30218 22.2519 3.28931 22.2169 3.2735C22.1469 3.2419 22.047 3.19853 21.9192 3.14739C21.6636 3.04516 21.2956 2.91159 20.831 2.77886C19.9028 2.51364 18.5827 2.25 17 2.25C14.9915 2.25 13.1298 2.64454 11.6826 3.32047C10.4648 3.88926 8.82565 4.25 7 4.25L6.98161 4.25C5.97319 4.25004 4.64464 4.25008 2.27854 3.30364L1.25 2.89223V19.5078L1.72146 19.6964C4.34095 20.7442 5.87882 20.75 7 20.75C9.00848 20.75 10.8702 20.3555 12.3174 19.6795L11.6826 18.3205C10.4648 18.8893 8.82566 19.25 7 19.25H6.98161C6.04221 19.25 4.825 19.2501 2.75 18.485V5.07472C4.75921 5.74566 6.03421 5.75 7 5.75C9.00849 5.75 10.8702 5.35546 12.3174 4.67953ZM22 4C22.3354 3.32918 22.3347 3.32885 22.3345 3.32874L22 4ZM19.25 21V18.25H22V16.75H19.25V14H17.75V16.75H15V18.25H17.75V21H19.25ZM12 9.75C11.0335 9.75 10.25 10.5335 10.25 11.5C10.25 12.4665 11.0335 13.25 12 13.25C12.9665 13.25 13.75 12.4665 13.75 11.5C13.75 10.5335 12.9665 9.75 12 9.75ZM8.75 11.5C8.75 9.70509 10.2051 8.25 12 8.25C13.7949 8.25 15.25 9.70509 15.25 11.5C15.25 13.2949 13.7949 14.75 12 14.75C10.2051 14.75 8.75 13.2949 8.75 11.5ZM6.5 13.509V11.5H4.5V13.509H6.5Z" fill="#181D27"/>
</svg>
