<svg width="24" height="24" viewBox="0 0 24 24" fill="none" xmlns="http://www.w3.org/2000/svg">
<path d="M12.4002 17.3C11.9002 17.3 11.5002 16.9 11.5002 16.4V16.18C10.6902 15.96 10.0202 15.46 9.70023 14.78C9.49023 14.33 9.68023 13.79 10.1302 13.58C10.5802 13.37 11.1202 13.56 11.3302 14.01C11.4402 14.24 11.8502 14.49 12.4002 14.49C13.0702 14.49 13.5002 14.13 13.5002 13.89C13.5002 13.65 13.0702 13.29 12.4002 13.29C10.7702 13.29 9.50023 12.24 9.50023 10.89C9.50023 9.81 10.3302 8.91 11.5002 8.6V8.39C11.5002 7.89 11.9002 7.49 12.4002 7.49C12.9002 7.49 13.3002 7.89 13.3002 8.39V8.61C14.1102 8.83 14.7802 9.33 15.1002 10.01C15.3102 10.46 15.1202 11 14.6702 11.21C14.2202 11.42 13.6802 11.23 13.4702 10.78C13.3602 10.55 12.9502 10.3 12.4002 10.3C11.7302 10.3 11.3002 10.66 11.3002 10.9C11.3002 11.14 11.7302 11.5 12.4002 11.5C14.0302 11.5 15.3002 12.55 15.3002 13.9C15.3002 14.98 14.4702 15.88 13.3002 16.19V16.4C13.3002 16.9 12.9002 17.3 12.4002 17.3Z" fill="#181D27"/>
<path d="M12.4002 22.8C7.68023 22.8 5.31023 22.8 3.65023 21.15C1.99023 19.5 1.99023 17.13 1.99023 12.4C1.99023 7.67 2.00023 5.31 3.66023 3.66C5.31023 2 7.68023 2 12.4002 2H13.9002C14.4002 2 14.8002 2.4 14.8002 2.9C14.8002 3.4 14.4002 3.8 13.9002 3.8H12.4002C8.18023 3.8 6.06023 3.8 4.93023 4.93C3.80023 6.06 3.80023 8.18 3.80023 12.4C3.80023 16.62 3.80023 18.74 4.93023 19.87C6.06023 21 8.18023 21 12.4002 21C16.6202 21 18.7402 21 19.8702 19.87C21.0002 18.74 21.0002 16.62 21.0002 12.4V10.9C21.0002 10.4 21.4002 10 21.9002 10C22.4002 10 22.8002 10.4 22.8002 10.9V12.4C22.8002 17.12 22.8002 19.49 21.1502 21.15C19.4902 22.8 17.1202 22.8 12.4002 22.8Z" fill="#181D27"/>
<path d="M16.9002 8.8C16.6702 8.8 16.4402 8.71 16.2602 8.54C15.9102 8.19 15.9102 7.62 16.2602 7.27L19.6202 3.91L17.3902 3.81C16.8902 3.79 16.5102 3.37 16.5302 2.87C16.5502 2.37 16.9902 1.99 17.4702 2.01L20.5902 2.16C21.8702 2.25 22.6802 3.09 22.6802 4.3L22.8002 7.36C22.8202 7.86 22.4302 8.27 21.9302 8.29C21.4402 8.33 21.0202 7.92 21.0002 7.42L20.9102 5.16L17.5302 8.54C17.3502 8.72 17.1202 8.8 16.8902 8.8H16.9002Z" fill="#181D27"/>
</svg>
