<svg width="24" height="24" viewBox="0 0 24 24" fill="none" xmlns="http://www.w3.org/2000/svg">
<path d="M7.9 5H15.9C16.4 5 16.8 5.4 16.8 5.9C16.8 6.4 16.4 6.8 15.9 6.8H7.9C7.4 6.8 7 6.4 7 5.9C7 5.4 7.4 5 7.9 5Z" fill="#181D27"/>
<path d="M9.9 9H7.9C7.4 9 7 9.4 7 9.9C7 10.4 7.4 10.8 7.9 10.8H9.9C10.4 10.8 10.8 10.4 10.8 9.9C10.8 9.4 10.4 9 9.9 9Z" fill="#181D27"/>
<path d="M13.8 11.09C13.8 11.28 14.05 11.5 14.4 11.5C15.72 11.5 16.8 12.49 16.8 13.71C16.8 14.64 16.18 15.43 15.3 15.76V15.9C15.3 16.4 14.9 16.8 14.4 16.8C13.9 16.8 13.5 16.4 13.5 15.9V15.76C12.89 15.54 12.39 15.08 12.15 14.49C11.97 14.03 12.19 13.51 12.65 13.32C13.11 13.14 13.63 13.36 13.82 13.82C13.88 13.97 14.1 14.13 14.4 14.13C14.75 14.13 15 13.91 15 13.72C15 13.53 14.75 13.31 14.4 13.31C13.08 13.31 12 12.32 12 11.1C12 10.17 12.62 9.38 13.5 9.05V8.91C13.5 8.41 13.9 8.01 14.4 8.01C14.9 8.01 15.3 8.41 15.3 8.91V9.05C15.91 9.27 16.41 9.73 16.65 10.32C16.83 10.78 16.61 11.3 16.15 11.49C15.69 11.67 15.17 11.45 14.98 10.99C14.92 10.84 14.7 10.68 14.4 10.68C14.05 10.68 13.8 10.9 13.8 11.09Z" fill="#181D27"/>
<path fill-rule="evenodd" clip-rule="evenodd" d="M13.9 1C16.88 1 18.52 1 19.66 2.15C20.8 3.3 20.8 4.95 20.8 7.95V18.54C20.8 20.26 20.8 21.3 19.92 21.86C18.7954 22.5965 17.5222 21.7085 16.7609 21.1776L16.75 21.17C16.64 21.09 16.54 21.02 16.45 20.96L16.3776 20.9147C16.1615 20.7793 15.952 20.648 15.88 20.63C15.8612 20.6394 15.7874 20.6862 15.6936 20.7457C15.5877 20.8129 15.456 20.8964 15.35 20.96L13.4248 22.1797C12.8334 22.5542 12.4453 22.8 11.9 22.8C11.3547 22.8 10.9666 22.5542 10.3752 22.1797L8.45 20.96L8.37764 20.9147C8.16154 20.7793 7.95197 20.648 7.88 20.63C7.86122 20.6394 7.78736 20.6862 7.69358 20.7457C7.58762 20.8129 7.45604 20.8964 7.35 20.96C7.26 21.02 7.16 21.09 7.05 21.17L7.02909 21.1846C6.26686 21.7163 5.00961 22.5933 3.88 21.86C3 21.3 3 20.26 3 18.54V7.95C3 4.96 3 3.3 4.14 2.15C5.28 1 6.92 1 9.9 1H13.9ZM18.92 20.34C19 20.05 19 19.29 19 18.55V7.95C19 5.17 18.97 4.02 18.38 3.42C17.79 2.82 16.65 2.8 13.9 2.8H9.9C7.15 2.8 6.01 2.82 5.42 3.42C4.82 4.02 4.8 5.17 4.8 7.95V18.55C4.8 19.29 4.8 20.05 4.88 20.34C5.17 20.29 5.78 19.87 6.02 19.7C6.09207 19.6537 6.15884 19.6073 6.22167 19.5637C6.28085 19.5227 6.33667 19.4839 6.39 19.45C6.94 19.1 7.35 18.84 7.9 18.84H7.96C8.46577 18.8595 8.82963 19.087 9.36443 19.4215L9.41 19.45L11.32 20.66C11.3863 20.6998 11.4541 20.7417 11.5195 20.7822C11.7004 20.8941 11.8639 20.9953 11.93 21.01C11.96 20.99 12.22 20.82 12.48 20.66L14.39 19.45C14.97 19.08 15.4 18.82 15.96 18.84C16.4658 18.8595 16.8296 19.087 17.3644 19.4215L17.41 19.45C17.4521 19.4795 17.4996 19.5108 17.5509 19.5445C17.6213 19.5909 17.6991 19.6422 17.78 19.7C18.02 19.87 18.63 20.3 18.92 20.34Z" fill="#181D27"/>
</svg>
