<svg width="24" height="24" viewBox="0 0 24 24" fill="none" xmlns="http://www.w3.org/2000/svg">
<path fill-rule="evenodd" clip-rule="evenodd" d="M12 1.59961C16.3631 1.59961 19.9004 5.13694 19.9004 9.5V12.2559C19.9004 12.8125 20.1211 13.3465 20.5146 13.7402L21.1182 14.3438C21.6185 14.8442 21.9004 15.5236 21.9004 16.2314C21.9002 17.7051 20.7051 18.9002 19.2314 18.9004H16.3076C15.892 20.8986 14.1214 22.4004 12 22.4004C9.87856 22.4004 8.10801 20.8986 7.69238 18.9004H4.76855C3.29481 18.9002 2.0998 17.7051 2.09961 16.2314C2.09961 15.5236 2.38141 14.8443 2.88184 14.3438L3.48535 13.7402C3.87888 13.3465 4.09959 12.8125 4.09961 12.2559V9.5C4.09961 5.13695 7.63695 1.59961 12 1.59961ZM9.56348 18.9004C9.92992 19.8919 10.881 20.5996 12 20.5996C13.119 20.5996 14.0701 19.8919 14.4365 18.9004H9.56348ZM12 3.40039C8.63107 3.40039 5.90039 6.13107 5.90039 9.5V12.2559C5.90037 13.2901 5.4892 14.2823 4.75781 15.0137L4.1543 15.6172C3.99152 15.7802 3.90039 16.0013 3.90039 16.2314C3.90058 16.7111 4.28898 17.0994 4.76855 17.0996H19.2314C19.711 17.0994 20.0994 16.711 20.0996 16.2314C20.0996 16.0011 20.0088 15.7793 19.8457 15.6162L19.2422 15.0137C18.5108 14.2823 18.0996 13.2901 18.0996 12.2559V9.5C18.0996 6.13106 15.3689 3.40039 12 3.40039Z" fill="#181D27"/>
</svg>
