<svg width="24" height="24" viewBox="0 0 24 24" fill="none" xmlns="http://www.w3.org/2000/svg">
<path fill-rule="evenodd" clip-rule="evenodd" d="M1.36314 1.36345C1.6927 1.03395 2.21474 1.01349 2.56822 1.30193L2.63658 1.36345L22.6366 21.3635L22.6981 21.4318C22.9863 21.7853 22.966 22.3074 22.6366 22.6369C22.3071 22.9664 21.785 22.9867 21.4315 22.6984L21.3631 22.6369L17.6268 18.9006H16.3075C15.8918 20.8987 14.1212 22.4005 11.9999 22.4006C9.87842 22.4006 8.1069 20.8988 7.69127 18.9006H4.76842C3.29473 18.9004 2.09975 17.7052 2.09947 16.2316C2.09947 15.5238 2.38128 14.8444 2.8817 14.3439L3.48521 13.7404C3.8787 13.3467 4.09941 12.8126 4.09947 12.256V9.50017C4.09947 8.295 4.36952 7.15069 4.85338 6.12712L1.36314 2.63689L1.30162 2.56853C1.01317 2.21503 1.03359 1.69301 1.36314 1.36345ZM9.56334 18.9006C9.92983 19.892 10.8809 20.5998 11.9999 20.5998C13.1188 20.5997 14.0699 19.892 14.4364 18.9006H9.56334ZM6.23326 7.50701C6.01762 8.13108 5.90025 8.80138 5.90025 9.50017V12.256C5.90019 13.2902 5.48902 14.2825 4.75767 15.0138L4.15416 15.6174C3.99139 15.7804 3.90025 16.0014 3.90025 16.2316C3.90053 16.7111 4.2889 17.0996 4.76842 17.0998H15.826L6.23326 7.50701Z" fill="#181D27"/>
<path d="M11.9999 1.59978C16.3629 1.59985 19.9003 5.13716 19.9003 9.50017V12.256C19.9003 12.8126 20.121 13.3467 20.5145 13.7404L21.118 14.3439C21.6183 14.8444 21.9003 15.5238 21.9003 16.2316C21.9 16.7284 21.4967 17.131 20.9999 17.131C20.503 17.131 20.0998 16.7284 20.0995 16.2316C20.0995 16.0014 20.0085 15.7795 19.8456 15.6164L19.242 15.0138C18.5107 14.2825 18.0995 13.2903 18.0995 12.256V9.50017C18.0995 6.13127 15.3687 3.40064 11.9999 3.40056C10.6479 3.40056 9.40112 3.83905 8.39049 4.5822L8.31334 4.63298C7.92052 4.86473 7.40785 4.76597 7.1317 4.39079C6.83721 3.99037 6.92365 3.42649 7.32408 3.13201L7.5731 2.95622C8.83608 2.10041 10.3607 1.59978 11.9999 1.59978Z" fill="#181D27"/>
</svg>
