<svg width="24" height="24" viewBox="0 0 24 24" fill="none" xmlns="http://www.w3.org/2000/svg">
<path fill-rule="evenodd" clip-rule="evenodd" d="M21.2596 2.27001L19.7391 3.7905C19.0243 3.16796 18.0845 2.89073 17.1796 3.04001L16.4596 3.16001C15.1296 3.38001 13.8996 3.95001 12.8896 4.81001L11.6596 5.86001C11.2596 6.20001 11.0296 6.69001 11.0096 7.22001C10.9796 7.77001 11.1996 8.32001 11.5996 8.72001L16.0796 13.2C16.4596 13.59 16.9696 13.8 17.4996 13.8L17.5096 13.79H17.5896C18.1196 13.77 18.6096 13.54 18.9496 13.14L19.9996 11.91C20.8596 10.9 21.4296 9.67001 21.6496 8.34001L21.7696 7.62001C21.9195 6.71092 21.6391 5.7667 21.0106 5.059L22.5296 3.54001C22.8796 3.19001 22.8796 2.62001 22.5296 2.27001C22.1796 1.92001 21.6096 1.92001 21.2596 2.27001ZM17.5096 12L17.5229 12.01C17.4956 12.0095 17.4243 12.0038 17.3696 11.94L12.8896 7.46001C12.8196 7.39001 12.8196 7.32001 12.8396 7.24001L14.0696 6.19001C14.8296 5.54001 15.7596 5.11001 16.7696 4.94001L17.4896 4.82001C17.8896 4.76001 18.3096 4.90001 18.6196 5.21001L19.6096 6.20001C19.9096 6.51001 20.0596 6.93001 19.9896 7.33001L19.8696 8.05001C19.6996 9.06001 19.2696 9.99001 18.6196 10.75L17.5696 11.98L18.2596 12.56L17.5229 12.01L17.5296 12.01L17.5096 12Z" fill="#181D27"/>
<path d="M2.89472 22.8L2.89957 22.8H2.88957L2.89472 22.8Z" fill="#181D27"/>
<path fill-rule="evenodd" clip-rule="evenodd" d="M3.52957 22.54C3.35091 22.7187 3.123 22.7988 2.89472 22.8C2.66634 22.7987 2.4383 22.7088 2.25957 22.54C1.90957 22.19 1.90957 21.62 2.25957 21.27L3.79387 19.7357C3.16866 19.0286 2.88999 18.0862 3.03957 17.17L3.15957 16.45C3.37957 15.12 3.94957 13.89 4.80957 12.88L5.85957 11.65C6.19957 11.25 6.67957 11.02 7.21957 10.99C7.76957 10.95 8.31957 11.18 8.71957 11.58L8.83457 11.695L10.2596 10.27C10.6096 9.92001 11.1796 9.92001 11.5296 10.27C11.8796 10.62 11.8796 11.19 11.5296 11.54L10.1046 12.965L11.8346 14.695L13.2596 13.27C13.6096 12.92 14.1796 12.92 14.5296 13.27C14.8796 13.62 14.8796 14.19 14.5296 14.54L13.1046 15.965L13.1996 16.06C13.5996 16.46 13.8196 17.01 13.7896 17.56C13.7696 18.09 13.5396 18.58 13.1296 18.92L11.8996 19.97C10.8896 20.83 9.65957 21.4 8.32957 21.62L7.60957 21.74C7.44957 21.77 7.27957 21.78 7.10957 21.78L7.12957 21.8C6.38288 21.8 5.6447 21.5196 5.06385 21.0057L3.52957 22.54ZM7.29957 12.8L7.23957 12.82L6.18957 14.05C5.53957 14.81 5.10957 15.74 4.93957 16.75L4.81957 17.47C4.74957 17.87 4.89957 18.29 5.19957 18.6L6.18957 19.59C6.49957 19.9 6.91957 20.05 7.31957 19.98L8.04957 19.86C9.05957 19.69 9.98957 19.26 10.7496 18.61L11.9796 17.56C11.9996 17.48 11.9996 17.41 11.9296 17.34L7.44957 12.86C7.38957 12.8 7.32957 12.79 7.29957 12.79V12.8Z" fill="#181D27"/>
</svg>
