<svg width="24" height="24" viewBox="0 0 24 24" fill="none" xmlns="http://www.w3.org/2000/svg">
<path d="M17.0098 11.9C17.0098 11.4 17.4098 11 17.9098 11C18.4098 11 18.8098 11.4 18.8098 11.9C18.8098 12.4 18.3998 12.8 17.9098 12.8C17.4198 12.8 17.0098 12.4 17.0098 11.9Z" fill="#181D27"/>
<path fill-rule="evenodd" clip-rule="evenodd" d="M22.6038 12.2536L22.6098 12.31H22.6298C22.8598 14.52 22.9698 15.63 22.4598 16.64C22.1198 17.29 21.6098 17.84 20.9698 18.22C20.1598 18.7 19.2298 18.79 17.6498 18.8C17.8098 19.53 17.8598 20.01 17.7698 20.49C17.5998 21.36 17.0598 22.09 16.3098 22.49C15.7298 22.8 15.0798 22.8 13.8998 22.8H9.9198C8.7398 22.8 8.0898 22.8 7.5098 22.49C6.7498 22.1 6.2198 21.37 6.0498 20.49C5.9498 20.01 6.0098 19.54 6.1698 18.8C4.5898 18.78 3.6598 18.7 2.8598 18.22C2.2198 17.84 1.6998 17.29 1.3698 16.64C0.859796 15.64 0.969796 14.53 1.1998 12.33L1.20314 12.2981C1.39099 10.5085 1.49315 9.53518 2.0598 8.72C2.4298 8.2 2.9298 7.76 3.5098 7.46C4.1698 7.11 4.8798 7.03 6.0098 7.01V5.9C6.0098 3.84 6.0098 2.7 6.8598 1.85C7.7098 1 8.8498 1 10.9098 1H12.9098C14.9698 1 16.1098 1 16.9598 1.85C17.8098 2.7 17.8098 3.84 17.8098 5.9V7.01C18.9398 7.03 19.6498 7.12 20.3098 7.46C20.8898 7.75 21.3898 8.19 21.7598 8.72C22.3139 9.52145 22.4176 10.4991 22.6038 12.2536ZM10.8998 2.8C9.3698 2.8 8.4398 2.8 8.1198 3.12C7.7998 3.44 7.7998 4.37 7.7998 5.89999V7H15.9998V5.9C15.9998 4.37 15.9998 3.44 15.6798 3.12C15.3598 2.8 14.4298 2.8 12.8998 2.8H10.8998ZM15.4598 20.9C15.7298 20.76 15.9298 20.47 15.9898 20.14C16.048 19.8781 15.918 19.315 15.7184 18.4508C15.7123 18.4241 15.7061 18.3972 15.6998 18.37C15.5698 17.78 15.4898 17.43 15.3898 17.27C15.2698 17.07 15.0998 16.92 14.8998 16.85C14.7698 16.8 14.4198 16.8 13.8998 16.8H9.9198C9.3898 16.8 9.0498 16.8 8.9098 16.85C8.7098 16.92 8.5398 17.07 8.4198 17.27C8.3298 17.43 8.2398 17.79 8.1098 18.37L8.10122 18.4072C7.896 19.2963 7.76048 19.8836 7.8098 20.14C7.8698 20.48 8.0698 20.76 8.3398 20.9C8.5298 21 9.1098 21 9.9098 21H13.8898C14.6998 21 15.2798 21 15.4598 20.9ZM20.0198 16.68C20.3698 16.47 20.6498 16.17 20.8298 15.82C21.0998 15.29 20.9998 14.3 20.8098 12.5C20.6598 11.01 20.5698 10.18 20.2698 9.75C20.0698 9.46 19.7998 9.22 19.4798 9.06C18.9798 8.81 18.1098 8.81 16.5398 8.81H7.2498C5.6798 8.81 4.8098 8.81 4.3198 9.06C3.9998 9.22 3.7298 9.46 3.5298 9.75C3.2298 10.18 3.1398 11.01 2.9898 12.5C2.7998 14.3 2.6998 15.29 2.9698 15.82C3.1498 16.17 3.4298 16.47 3.7798 16.68C4.2598 16.96 5.1198 17 6.5998 17C6.6798 16.75 6.7598 16.55 6.8798 16.35C7.1998 15.8 7.6998 15.39 8.2798 15.17C8.7198 15 9.1398 15 9.9098 15H13.8898C14.6498 15 15.0798 15 15.5198 15.17C16.0898 15.39 16.5898 15.81 16.9198 16.35C17.0398 16.54 17.1198 16.75 17.1998 17C18.6798 17 19.5398 16.96 20.0198 16.68Z" fill="#181D27"/>
</svg>
