<svg width="24" height="24" viewBox="0 0 24 24" fill="none" xmlns="http://www.w3.org/2000/svg">
<path fill-rule="evenodd" clip-rule="evenodd" d="M20 13.0996C21.0494 13.0996 21.9004 13.9507 21.9004 15C21.9004 16.2065 21.3517 17.2846 20.4912 18C21.3517 18.7154 21.9004 19.7935 21.9004 21C21.9004 22.0493 21.0494 22.9004 20 22.9004H16C14.9506 22.9004 14.0996 22.0493 14.0996 21C14.0996 19.7937 14.6476 18.7154 15.5078 18C14.6476 17.2846 14.0996 16.2063 14.0996 15C14.0996 13.9507 14.9506 13.0996 16 13.0996H20ZM18 18.9004C16.8402 18.9004 15.9004 19.8402 15.9004 21C15.9004 21.0552 15.9448 21.0996 16 21.0996H20C20.0552 21.0996 20.0996 21.0552 20.0996 21C20.0996 19.8402 19.1598 18.9004 18 18.9004ZM16 14.9004C15.9448 14.9004 15.9004 14.9448 15.9004 15C15.9004 16.0873 16.7263 16.9813 17.7852 17.0889L18 17.0996L18.2148 17.0889C19.2737 16.9813 20.0996 16.0873 20.0996 15C20.0996 14.9448 20.0552 14.9004 20 14.9004H16Z" fill="#181D27"/>
<path d="M14.2598 1C17.0798 1 18.6405 1.00016 19.7305 2.16016C20.8002 3.30014 20.7998 4.93067 20.7998 7.90039V10.9004C20.7996 11.4001 20.4001 11.7996 19.9004 11.7998C19.4005 11.7998 19.0002 11.4002 19 10.9004V7.90039C19 5.40062 18.9998 4.02047 18.4199 3.40039C17.8799 2.82039 16.8198 2.7998 14.2598 2.7998H9.5498C6.97995 2.79981 5.91987 2.83041 5.37988 3.40039C4.80013 4.01052 4.7998 5.39075 4.7998 7.90039V18.54C4.7998 19.28 4.79988 20.0401 4.87988 20.3301C5.16968 20.2801 5.77918 19.8607 6.01953 19.6904C6.0916 19.6441 6.15885 19.5973 6.22168 19.5537C6.28068 19.5128 6.33646 19.4743 6.38965 19.4404C6.95964 19.0704 7.38998 18.8101 7.95996 18.8301C8.46563 18.8495 8.82962 19.0768 9.36426 19.4111L9.41016 19.4404L11.3203 20.6504C11.3864 20.69 11.4544 20.7321 11.5195 20.7725C11.7002 20.8842 11.8634 20.9851 11.9297 21L11.9199 21.0098C12.4199 21.0098 12.8096 21.4102 12.8096 21.9102C12.8095 22.41 12.4002 22.8094 11.9004 22.8096C11.3551 22.8096 10.9664 22.564 10.375 22.1895L8.4502 20.9697L8.37793 20.9248C8.16184 20.7894 7.95186 20.6576 7.87988 20.6396C7.86111 20.649 7.78714 20.6964 7.69336 20.7559C7.58743 20.823 7.45557 20.9061 7.34961 20.9697C7.25965 21.0297 7.15974 21.0997 7.0498 21.1797L7.0293 21.1943C6.26706 21.726 5.00949 22.6034 3.87988 21.8701C2.99991 21.3101 3 20.2698 3 18.5498V7.90039C3 4.93039 3.00031 3.30016 4.07031 2.16016C5.17028 1.00026 6.71999 1 9.5498 1H14.2598Z" fill="#181D27"/>
<path d="M11.9004 10C12.4002 10.0002 12.7998 10.4005 12.7998 10.9004C12.7996 11.4001 12.4001 11.7996 11.9004 11.7998H7.90039C7.40052 11.7998 7.00021 11.4002 7 10.9004C7 10.4004 7.40039 10 7.90039 10H11.9004Z" fill="#181D27"/>
<path d="M15.9004 6C16.4002 6.00021 16.7998 6.40052 16.7998 6.90039C16.7996 7.40008 16.4001 7.7996 15.9004 7.7998H7.90039C7.40052 7.7998 7.00021 7.40021 7 6.90039C7 6.40039 7.40039 6 7.90039 6H15.9004Z" fill="#181D27"/>
</svg>
