<svg xmlns="http://www.w3.org/2000/svg" width="24" height="24" fill="currentColor" viewBox="0 0 24 24">
  <path d="M22.8 6.06v.78l-.03.01c.02 1.5.02 2.41-.73 3.19a.89.89 0 0 1-1.27.02.909.909 0 0 1-.02-1.27c.22-.24.24-.68.22-1.92v-.8c0-1.6 0-2.57-.33-2.92-.3-.32-1.11-.33-2.76-.33H5.89c-1.65 0-2.45.01-2.76.33-.34.35-.34 1.32-.34 2.92v.8c-.01 1.24 0 1.68.23 1.92.35.36.34.93-.02 1.27-.17.17-.38.25-.62.25s-.47-.1-.65-.28C.97 9.24.98 8.34 1 6.84v-.79c0-2.13 0-3.29.85-4.17C2.7 1 3.84 1 5.9 1.01h12c2.07 0 3.21 0 4.06.88.84.87.84 2.04.84 4.17Z"/>
  <path d="M8.9 10.8h3c.5 0 .9-.4.9-.9s-.4-.9-.9-.9h-3c-.5 0-.9.4-.9.9s.4.9.9.9Zm-1 2.2h6c.5 0 .9.4.9.9s-.4.9-.9.9h-6c-.5 0-.9-.4-.9-.9s.4-.9.9-.9Z"/>
  <path fill-rule="evenodd" d="M17.96 5.87c1.08.87 1.36 2.19 1.87 4.6h-.03l1.92 9.09c.06.25.07.43.02.83v.08a.83.83 0 0 1-.09.49c-.29.63-.96 1.06-1.73 1.11-.78.04-1.48-.31-1.88-.94-.03-.06-.12-.1-.21-.1a.291.291 0 0 0-.25.09l-.55.69c-.5.63-1.28.99-2.12.99-.84 0-1.62-.36-2.12-.99l-.09-.11c-.17-.22-.47-.35-.8-.35-.33 0-.63.13-.81.35l-.09.11c-.51.63-1.28.99-2.13.99-.84 0-1.62-.36-2.12-.99l-.55-.69c-.06-.07-.16-.09-.25-.09-.09.01-.18.05-.21.1-.4.63-1.1.98-1.88.93-.77-.04-1.44-.47-1.74-1.12-.07-.15-.09-.31-.09-.47v-.08c-.05-.4-.03-.57.02-.83l1.92-9.08c.51-2.42.79-3.74 1.87-4.61C6.92 5 8.29 5 10.76 5h2.28c2.48 0 3.84 0 4.92.87Zm2.02 14.36v-.04l.02-.01c.02-.1.02-.2.02-.2l-1.93-9.14c-.47-2.21-.68-3.13-1.24-3.58-.56-.45-1.51-.47-3.79-.47h-2.28c-2.28 0-3.23.02-3.79.47-.56.45-.77 1.36-1.24 3.56l-1.93 9.1a.614.614 0 0 0-.004.213l.004.037v.05c.04.02.09.04.15.04.07 0 .19 0 .25-.1.35-.54.96-.89 1.64-.93h.12c.64 0 1.24.29 1.63.77l.55.69c.16.19.43.31.72.31s.56-.11.72-.31l.09-.11c.52-.65 1.33-1.03 2.21-1.03.88 0 1.69.38 2.21 1.03l.09.11c.31.39 1.12.39 1.44 0l.55-.69c.42-.51 1.08-.79 1.76-.76.67.03 1.28.38 1.63.93.06.1.18.1.25.1.06 0 .11-.02.15-.04Z" clip-rule="evenodd"/>
</svg>
