<svg width="24" height="24" viewBox="0 0 24 24" fill="none" xmlns="http://www.w3.org/2000/svg">
<path fill-rule="evenodd" clip-rule="evenodd" d="M1.09961 12C1.09961 5.98001 5.97961 1.10001 11.9996 1.10001C14.7196 1.10001 17.1996 2.09001 19.1096 3.74001V2.00001C19.1096 1.50001 19.5096 1.10001 20.0096 1.10001C20.5096 1.10001 20.9096 1.50001 20.9096 2.00001V5.13001C20.9096 6.26001 19.5096 6.77001 18.7796 5.92001C17.1096 4.06001 14.6996 2.89001 11.9996 2.89001C6.96961 2.90001 2.89961 6.97001 2.89961 12C2.89961 17.03 6.96961 21.1 11.9996 21.1C17.0296 21.1 21.0996 17.03 21.0996 12C21.0996 11.5 21.4996 11.1 21.9996 11.1C22.4996 11.1 22.8996 11.5 22.8996 12C22.8996 18.02 18.0196 22.9 11.9996 22.9C5.97961 22.9 1.09961 18.02 1.09961 12Z" fill="#181D27"/>
</svg>
