<svg xmlns="http://www.w3.org/2000/svg" width="24" height="24" fill="currentColor" viewBox="0 0 24 24">
  <path d="M6.433 17.301a.9.9 0 0 1 1.204 1.335l-3 3.001a.9.9 0 0 1-1.274-1.273l3.001-3.001.069-.062Z"/>
  <path fill-rule="evenodd" d="M1.655 2.169a.901.901 0 0 1 .982.194l18 18 .061.068a.901.901 0 0 1-1.266 1.267l-.069-.062L12 14.273l-2.363 2.363a.901.901 0 0 1-1.274 0L5.606 13.88A15.386 15.386 0 0 1 1.1 2.998a.9.9 0 0 1 .555-.83Zm1.456 3.215a13.586 13.586 0 0 0 3.768 7.222l2.12 2.12L10.727 13 3.11 5.384Z" clip-rule="evenodd"/>
  <path d="M17.432 2.302a.9.9 0 0 1 1.204 1.335l-3 3c-.596.596-.73.747-.793.875a1.1 1.1 0 0 0 0 .977l.066.107c.092.124.278.319.719.76l.009.008.008.009c.589.588.738.722.866.785.308.152.67.152.977 0 .128-.064.279-.198.875-.794l3-3a.9.9 0 0 1 1.273 1.273l-3.354 3.354c-.34.335-.65.61-.995.78a2.9 2.9 0 0 1-2.575 0 3.167 3.167 0 0 1-.704-.506l-.371.372a.9.9 0 0 1-1.274-1.273l.371-.372a3.17 3.17 0 0 1-.505-.703 2.902 2.902 0 0 1 0-2.576c.228-.46.64-.855 1.134-1.35l3-3 .069-.06Z"/>
  <path d="M19.363 4.363a.901.901 0 0 1 1.274 1.273l-3 3a.9.9 0 0 1-1.274-1.273l3-3Z"/>
</svg>
