<svg width="24" height="24" viewBox="0 0 24 24" fill="none" xmlns="http://www.w3.org/2000/svg">
<path d="M8.27581 5.46582C8.55224 5.09082 9.06479 4.99255 9.45746 5.22461L9.5346 5.27539L9.53558 5.27637C9.53647 5.27702 9.53788 5.27811 9.53949 5.2793C9.54264 5.28162 9.54732 5.28474 9.55316 5.28906C9.56519 5.29798 9.5832 5.31121 9.60589 5.32812C9.65128 5.36195 9.71755 5.41143 9.80121 5.47461C9.96848 5.60096 10.2063 5.78315 10.4916 6.00586C11.0616 6.45069 11.8246 7.06278 12.5903 7.72754C13.3515 8.38849 14.1365 9.11939 14.7377 9.7998C15.0372 10.1388 15.3101 10.4865 15.5131 10.8232C15.7014 11.1355 15.9008 11.5517 15.9008 12C15.9008 12.4483 15.7014 12.8645 15.5131 13.1768C15.3101 13.5135 15.0372 13.8612 14.7377 14.2002C14.1365 14.8806 13.3515 15.6115 12.5903 16.2725C11.8246 16.9372 11.0616 17.5493 10.4916 17.9941C10.2061 18.2169 9.96752 18.399 9.80023 18.5254C9.71677 18.5884 9.65121 18.6381 9.60589 18.6719C9.5832 18.6888 9.56519 18.702 9.55316 18.7109C9.54732 18.7153 9.54264 18.7184 9.53949 18.7207C9.53788 18.7219 9.53647 18.723 9.53558 18.7236L9.5346 18.7246C9.13449 19.0193 8.57064 18.9341 8.27581 18.5342C7.98106 18.134 8.06699 17.5701 8.46722 17.2754V17.2744C8.46779 17.274 8.46898 17.2733 8.47015 17.2725C8.47271 17.2706 8.47668 17.2675 8.48187 17.2637C8.4925 17.2558 8.50869 17.2442 8.52972 17.2285C8.57222 17.1968 8.63585 17.1496 8.71624 17.0889C8.87707 16.9674 9.10737 16.7912 9.38421 16.5752C9.93917 16.1421 10.6763 15.5506 11.4106 14.9131C12.1491 14.2718 12.8644 13.6015 13.3881 13.0088C13.6509 12.7114 13.8471 12.4544 13.9721 12.2471C14.0535 12.1121 14.0832 12.0324 14.0942 12C14.0832 11.9676 14.0535 11.8879 13.9721 11.7529C13.8471 11.5456 13.6509 11.2886 13.3881 10.9912C12.8644 10.3985 12.1491 9.72817 11.4106 9.08691C10.6763 8.4494 9.93917 7.8579 9.38421 7.4248C9.10736 7.20874 8.87707 7.03261 8.71624 6.91113C8.63585 6.85041 8.57222 6.80316 8.52972 6.77148C8.50869 6.75581 8.49249 6.7442 8.48187 6.73633C8.47667 6.73248 8.47271 6.72943 8.47015 6.72754C8.46897 6.72667 8.46779 6.72601 8.46722 6.72559V6.72461C8.067 6.42985 7.98105 5.86605 8.27581 5.46582Z" fill="#181D27"/>
</svg>
