<svg width="24" height="24" viewBox="0 0 24 24" fill="none" xmlns="http://www.w3.org/2000/svg">
<path d="M7.14 21.71C7.26 21.77 7.4 21.8 7.53 21.8H7.54C7.87 21.8 8.19 21.61 8.35 21.29C8.56 20.85 8.38 20.31 7.93 20.09C4.76 18.55 2.8 15.41 2.8 11.9C2.8 6.88 6.88 2.8 11.89 2.79C14.48 2.79 16.95 3.9 18.65 5.8C18.99 6.2 19.52 6.35 20 6.17C20.48 6 20.8 5.55 20.8 5.03V1.9C20.8 1.4 20.4 1 19.9 1C19.4 1 19 1.4 19 1.9V3.64C17.04 1.95 14.52 1 11.9 1C5.89 1 1 5.89 1 11.9C1 16.05 3.41 19.9 7.14 21.71Z" fill="#181D27"/>
<path d="M10.67 22.7C11.16 22.77 11.67 22.8 12.17 22.8H12.16C12.66 22.8 13.06 22.4 13.06 21.9C13.06 21.4 12.66 21 12.16 21C11.74 21 11.32 20.98 10.91 20.92C10.43 20.85 9.97 21.2 9.9 21.69C9.83 22.18 10.18 22.63 10.67 22.7Z" fill="#181D27"/>
<path d="M14.54 22.16C14.69 22.5 15.02 22.71 15.37 22.71C15.49 22.71 15.61 22.69 15.72 22.64C16.12 22.47 16.52 22.27 16.92 22.05C17.36 21.8 17.51 21.25 17.26 20.82C17.01 20.38 16.46 20.23 16.03 20.48C15.69 20.67 15.36 20.84 15.02 20.98C14.56 21.17 14.35 21.7 14.54 22.16Z" fill="#181D27"/>
<path d="M18.71 19.61C18.88 19.75 19.08 19.82 19.29 19.82V19.83C19.55 19.83 19.8 19.72 19.98 19.51C20.28 19.16 20.56 18.79 20.81 18.41C21.09 18 20.98 17.44 20.57 17.16C20.16 16.88 19.6 16.99 19.32 17.4C19.11 17.72 18.87 18.04 18.61 18.34C18.29 18.72 18.33 19.29 18.71 19.61Z" fill="#181D27"/>
<path d="M21.585 15.52L21.59 15.52H21.58L21.585 15.52Z" fill="#181D27"/>
<path d="M21.34 15.48C21.4183 15.5094 21.5063 15.5196 21.585 15.52C21.983 15.5179 22.3405 15.2683 22.45 14.87C22.57 14.44 22.67 14.01 22.74 13.59C22.83 13.1 22.5 12.63 22.01 12.55C21.51 12.46 21.05 12.79 20.97 13.28C20.91 13.65 20.82 14.01 20.72 14.37C20.59 14.85 20.86 15.34 21.34 15.48Z" fill="#181D27"/>
<path d="M21.01 9.91C21.08 10.35 21.47 10.67 21.9 10.67C21.9189 10.67 21.94 10.6678 21.9623 10.6654C21.9872 10.6628 22.0136 10.66 22.04 10.66C22.53 10.58 22.87 10.12 22.79 9.63C22.72 9.19 22.62 8.75 22.5 8.32C22.37 7.84 21.87 7.57 21.39 7.7C20.91 7.83 20.64 8.33 20.77 8.81C20.87 9.17 20.95 9.54 21.01 9.91Z" fill="#181D27"/>
</svg>
