<svg width="24" height="24" viewBox="0 0 24 24" fill="none" xmlns="http://www.w3.org/2000/svg">
<path d="M6 8.9C6 4.54 9.54 1 13.9 1V1.01C18.26 1.01 21.8 4.55 21.8 8.91C21.8 10.53 21.31 12.09 20.38 13.42C20.2 13.68 19.92 13.81 19.64 13.81C19.47 13.81 19.29 13.76 19.13 13.65C18.73 13.37 18.63 12.81 18.91 12.4C19.62 11.37 20 10.16 20 8.91C20 5.55 17.26 2.81 13.9 2.81C10.54 2.81 7.8 5.55 7.8 8.91C7.8 9.82 8 10.7 8.39 11.52C8.6 11.97 8.41 12.51 7.96 12.72C7.51 12.93 6.97 12.74 6.76 12.29C6.26 11.22 6 10.08 6 8.9Z" fill="#181D27"/>
<path d="M13.9 4C13.4 4 13 4.4 13 4.9V5.11C11.83 5.42 11 6.31 11 7.4C11 8.75 12.27 9.8 13.9 9.8C14.57 9.8 15 10.15 15 10.4C15 10.65 14.57 11 13.9 11C13.35 11 12.94 10.75 12.83 10.52C12.62 10.07 12.08 9.88 11.63 10.09C11.18 10.3 10.99 10.84 11.2 11.29C11.52 11.97 12.19 12.48 13 12.69V12.9C13 13.4 13.4 13.8 13.9 13.8C14.4 13.8 14.8 13.4 14.8 12.9V12.69C15.97 12.38 16.8 11.49 16.8 10.4C16.8 9.05 15.53 8 13.9 8C13.23 8 12.8 7.65 12.8 7.4C12.8 7.15 13.23 6.8 13.9 6.8C14.45 6.8 14.86 7.05 14.97 7.28C15.18 7.73 15.72 7.93 16.17 7.71C16.62 7.5 16.81 6.96 16.6 6.51C16.28 5.83 15.61 5.32 14.8 5.11V4.9C14.8 4.4 14.4 4 13.9 4Z" fill="#181D27"/>
<path d="M16.23 14.13L12.2 15.37C11.7 14.76 10.93 14.38 10.08 14.38H9.04C8.88 14.38 8.73 14.34 8.58 14.28L6.54 13.29C6.16 13.1 5.73 13.01 5.3 13.01H2.9C2.4 13.01 2 13.41 2 13.91C2 14.41 2.4 14.81 2.9 14.81H5.29C5.45 14.81 5.61 14.85 5.75 14.91L7.79 15.9C8.17 16.08 8.6 16.18 9.03 16.18H10.07C10.35 16.18 10.61 16.3 10.78 16.49L9.05 16.97C8.8 17.04 8.54 17.01 8.31 16.9L6.13 15.84C5.68 15.62 5.14 15.81 4.93 16.26C4.72 16.71 4.9 17.25 5.35 17.46L7.53 18.51C8.15 18.81 8.86 18.88 9.53 18.69L12.07 17.99C12.49 17.87 12.79 17.49 12.8 17.06L16.76 15.84C17.2 15.7 17.69 15.87 17.97 16.26C18.01 16.31 18.01 16.37 18 16.4C18 16.43 17.98 16.47 17.93 16.5L10.42 20.84C10.15 20.99 9.85 21.03 9.56 20.94L3.17 19.04C2.69 18.9 2.19 19.17 2.05 19.65C1.91 20.13 2.18 20.63 2.66 20.77L9.05 22.67C9.32 22.75 9.59 22.79 9.87 22.79C10.38 22.79 10.88 22.66 11.33 22.4L18.84 18.06C19.31 17.79 19.65 17.32 19.77 16.78C19.89 16.23 19.77 15.66 19.44 15.2C18.71 14.18 17.42 13.74 16.24 14.11L16.23 14.13Z" fill="#181D27"/>
</svg>
