<svg width="24" height="24" viewBox="0 0 24 24" fill="none" xmlns="http://www.w3.org/2000/svg">
<path fill-rule="evenodd" clip-rule="evenodd" d="M1 10.9C1 16.36 5.44 20.8 10.9 20.8C13.3047 20.8 15.5116 19.9388 17.2284 18.5084L21.26 22.54C21.4387 22.7088 21.6668 22.7987 21.8951 22.8L21.89 22.8H21.9L21.8951 22.8C22.1234 22.7988 22.3513 22.7187 22.53 22.54C22.88 22.19 22.88 21.62 22.53 21.27L18.4993 17.2393C19.9351 15.5209 20.8 13.3098 20.8 10.9C20.8 5.44 16.36 1 10.9 1C5.44 1 1 5.44 1 10.9ZM2.8 10.9C2.8 6.43 6.43 2.8 10.9 2.8C15.37 2.8 19 6.43 19 10.9C19 15.37 15.37 19 10.9 19C6.43 19 2.8 15.37 2.8 10.9Z" fill="#181D27"/>
</svg>
