<svg xmlns="http://www.w3.org/2000/svg" width="24" height="24" fill="currentColor" viewBox="0 0 24 24">
  <path fill-rule="evenodd" d="M10.861 1.357c.372-.14.755-.257 1.139-.257.383 0 .766.117 1.138.257.377.143.845.35 1.423.607l.026.012c.848.376 1.909.788 3.11 1.13l.043.012c.877.249 1.595.453 2.142.665.55.213 1.074.487 1.432.96.344.456.472.984.53 1.53.056.525.056 1.18.056 1.959v2.951c0 3.105-1.403 5.563-3.087 7.387-1.678 1.818-3.674 3.052-4.987 3.745l-.07.037c-.552.292-1.036.548-1.756.548-.721 0-1.205-.256-1.756-.547l-.07-.038c-1.313-.693-3.31-1.927-4.988-3.745C3.502 16.746 2.1 14.288 2.1 11.183V8.232c0-.779 0-1.434.055-1.958.058-.547.186-1.075.53-1.531.358-.473.882-.747 1.432-.96.547-.212 1.266-.416 2.142-.665l.044-.013m5.194-.063c-.323.121-.745.308-1.354.579a25.52 25.52 0 0 1-3.348 1.216c-.931.264-1.568.447-2.027.625-.465.18-.6.304-.646.366-.06.079-.134.228-.177.635-.044.419-.045.977-.045 1.817v2.903c0 2.52 1.129 4.563 2.609 6.166 1.486 1.61 3.286 2.732 4.505 3.375.633.334.746.376.986.376s.352-.042.986-.377c1.218-.642 3.018-1.764 4.505-3.374 1.48-1.603 2.609-3.645 2.609-6.166V8.28c0-.84-.002-1.398-.046-1.817-.043-.407-.117-.556-.177-.635-.047-.062-.18-.186-.646-.367-.459-.177-1.096-.36-2.027-.624a25.469 25.469 0 0 1-3.347-1.216c-.61-.27-1.032-.458-1.354-.58-.334-.125-.463-.141-.503-.141-.041 0-.17.016-.503.142Z" clip-rule="evenodd"/>
</svg>
