<svg width="24" height="24" viewBox="0 0 24 24" fill="none" xmlns="http://www.w3.org/2000/svg">
<path d="M1.89981 22.8C1.68981 22.8 1.46981 22.72 1.29981 22.57C0.929815 22.24 0.899815 21.67 1.22981 21.3C2.67982 19.68 3.99982 17.53 5.04982 15.29C1.90982 11.22 0.819815 6.96001 2.11981 3.80001C2.76981 2.20001 3.98981 1.16001 5.36981 1.02001C6.65981 0.880006 7.90982 1.55001 8.79982 2.85001C10.2898 5.03001 9.27981 10.17 7.16982 14.98C7.20982 15 7.21981 15.01 7.21981 15.01C7.35981 14.93 7.82981 14.27 8.17981 13.78C8.60981 13.17 9.10981 12.48 9.73981 11.83C10.4698 11.08 11.3998 10.92 12.2398 11.39C12.3998 11.48 12.5598 11.6 12.7098 11.73C13.3198 10.88 14.1198 10.21 15.0698 10.03C16.3598 9.78001 17.1898 10.78 17.8698 11.57C18.3898 12.18 18.8798 12.76 19.4398 12.8C19.9198 12.83 20.5598 12.51 21.2998 11.85C21.6698 11.52 22.2398 11.56 22.5698 11.93C22.8998 12.3 22.8598 12.87 22.4898 13.2C21.3398 14.21 20.2998 14.66 19.3098 14.59C17.9998 14.49 17.1698 13.51 16.4998 12.72C16.1098 12.26 15.6598 11.74 15.4198 11.78C14.8898 11.88 14.2998 12.46 13.8298 13.32C14.2598 14.3 14.4398 15.39 14.2498 16.12C14.0698 16.8 13.5498 17.23 12.8998 17.23C12.2498 17.23 11.5198 16.82 11.4098 15.67C11.3498 15.08 11.4998 14.24 11.8198 13.4C11.6898 13.21 11.5398 13.05 11.3798 12.95C11.2798 12.89 11.2298 12.86 11.0398 13.06C10.4998 13.62 10.0498 14.25 9.64981 14.8C8.90981 15.84 8.25981 16.74 7.23981 16.78C6.92981 16.78 6.64981 16.71 6.40981 16.59C5.28981 18.84 3.94981 20.93 2.55981 22.48C2.37981 22.68 2.13981 22.78 1.88981 22.78L1.89981 22.8ZM5.69981 2.80001C5.69981 2.80001 5.60982 2.80001 5.55981 2.80001C4.83981 2.88001 4.17982 3.50001 3.77981 4.47001C3.00981 6.33001 3.22982 9.56001 5.87982 13.37C7.52982 9.24001 8.23982 5.20001 7.31982 3.86001C6.83982 3.17001 6.27981 2.79001 5.69981 2.79001V2.80001Z" fill="#181D27"/>
<path d="M18.8998 21.8H8.89982C8.39982 21.8 7.99981 21.4 7.99981 20.9C7.99981 20.4 8.39982 20 8.89982 20H18.8998C19.3998 20 19.7998 20.4 19.7998 20.9C19.7998 21.4 19.3998 21.8 18.8998 21.8Z" fill="#181D27"/>
</svg>
