<svg width="24" height="24" viewBox="0 0 24 24" fill="none" xmlns="http://www.w3.org/2000/svg">
<path fill-rule="evenodd" clip-rule="evenodd" d="M17.5603 22.8C17.0003 22.8 16.2903 22.63 15.4203 22.1L12.4303 20.31C12.1703 20.15 11.6303 20.16 11.3703 20.31L8.39032 22.09C6.56032 23.19 5.45032 22.75 4.95032 22.39C4.45032 22.03 3.69032 21.1 4.17032 19L4.88032 15.91C4.94032 15.63 4.80032 15.12 4.60032 14.92L2.12032 12.42C0.820323 11.12 0.930323 9.99 1.11032 9.43C1.29032 8.87 1.86032 7.9 3.65032 7.59L6.84032 7.06C7.09032 7.02 7.48032 6.72 7.59032 6.5L9.35032 2.95C10.2003 1.25 11.3403 1 11.9003 1C12.4903 1 13.6003 1.26 14.4303 2.94L16.1903 6.49C16.3103 6.73 16.7003 7.02 16.9503 7.06L20.1403 7.59C21.9403 7.89 22.5103 8.87 22.6903 9.43C22.8703 9.99 22.9803 11.12 21.6803 12.42L19.2003 14.92C19.0003 15.12 18.8603 15.63 18.9203 15.92L19.6303 19.01C20.1103 21.12 19.3503 22.04 18.8503 22.4C18.5903 22.59 18.1603 22.8 17.5503 22.8H17.5603ZM11.9003 18.4C12.4203 18.4 12.9403 18.52 13.3503 18.77L16.3403 20.55C17.2103 21.07 17.6703 21.03 17.8003 20.94C17.9303 20.85 18.1103 20.41 17.8803 19.41L17.1703 16.32C16.9703 15.42 17.2903 14.3 17.9303 13.66L20.4103 11.16C20.8503 10.72 21.0703 10.27 20.9803 9.99C20.8903 9.71 20.4603 9.48 19.8503 9.37L16.6603 8.84C15.8203 8.7 14.9503 8.05 14.5803 7.29L12.8203 3.75C12.4803 3.06 12.1103 2.81 11.9003 2.81C11.6903 2.81 11.3203 3.06 10.9703 3.76L9.21032 7.31C8.85032 8.05 7.96032 8.72 7.15032 8.86L3.96032 9.4C3.35032 9.5 2.92032 9.74 2.83032 10.01C2.74032 10.29 2.96032 10.74 3.40032 11.18L5.88032 13.68C6.52032 14.32 6.84032 15.44 6.64032 16.33L5.93032 19.43C5.70032 20.42 5.89032 20.86 6.01032 20.96C6.14032 21.05 6.61032 21.09 7.47032 20.58L10.4603 18.8C10.8803 18.55 11.4003 18.43 11.9203 18.43L11.9003 18.4Z" fill="#181D27"/>
</svg>
