<svg xmlns="http://www.w3.org/2000/svg" width="24" height="24" fill="currentColor" viewBox="0 0 24 24">
  <path d="M10.9 19.28h-4c-.5 0-.9-.4-.9-.9s.4-.9.9-.9h4c.5 0 .9.4.9.9s-.4.9-.9.9Z"/>
  <path fill-rule="evenodd" d="M2 12.12a2.788 2.788 0 0 1-.46-.62c-.76-1.41-.82-2.25.43-4.12.99-1.49.99-2.18.99-2.54 0-.59.23-1.44.88-2.05.39-.38 1.13-.81 2.25-.76L17.67 2c.68-.04 1.73.25 2.46.95.61.59.7 1.39.77 2.02.11.96.42 1.71 1.02 2.48 1.4 1.79.98 3.6 0 4.52l-.12.109v3.831c0 2.98 0 4.62-1.14 5.76-1.14 1.14-2.78 1.14-5.76 1.14h-6c-2.98 0-4.62 0-5.76-1.14C2 20.53 2 18.89 2 15.91v-3.79Zm15.62.93c.42.17.86.26 1.3.26h.03c.35 0 .7-.056 1.05-.166v2.766c0 2.75-.03 3.9-.62 4.49-.59.6-1.73.62-4.48.62h-6c-2.75 0-3.89-.03-4.48-.62-.6-.59-.62-1.73-.62-4.49v-2.776c.323.092.644.15.94.176 1.11.02 2.06-.35 2.81-1.08.2-.19.37-.41.53-.64 1.59 1.86 4.05 1.85 5.37 1.48.84-.23 1.65-.77 2.27-1.47.42.63 1.03 1.09 1.9 1.45ZM5.07 4.09c.19-.17.46-.26.84-.26l.02-.01h.13l11.65-.03h.06c.15-.01.73.08 1.11.45.142.132.185.512.232.915l.008.075c.14 1.24.57 2.3 1.38 3.33.8 1.04.49 1.81.18 2.1-.84.79-1.63 1.03-2.36.73-1-.41-1.35-.91-1.48-2.12a.899.899 0 0 0-.84-.8.922.922 0 0 0-.93.7c-.19.82-1.08 1.89-2.09 2.17l-.012.003c-.245.06-3.229.783-4.218-2.253a.902.902 0 0 0-1.76.28c0 .41-.18 1.07-.69 1.57-.4.39-.91.59-1.45.57-.55-.05-1.44-.35-1.72-.87-.45-.83-.52-.96.34-2.26 1.14-1.71 1.29-2.75 1.29-3.54 0-.16.06-.51.31-.75Z" clip-rule="evenodd"/>
</svg>
