<svg width="24" height="24" viewBox="0 0 24 24" fill="none" xmlns="http://www.w3.org/2000/svg">
<path d="M10.9003 19.28H6.90031C6.40031 19.28 6.00031 18.88 6.00031 18.38C6.00031 17.88 6.40031 17.48 6.90031 17.48H10.9003C11.4003 17.48 11.8003 17.88 11.8003 18.38C11.8003 18.88 11.4003 19.28 10.9003 19.28Z" fill="#181D27"/>
<path fill-rule="evenodd" clip-rule="evenodd" d="M2.00031 12.1195C1.82172 11.9368 1.66552 11.7308 1.54031 11.5C0.780313 10.09 0.720313 9.24999 1.97031 7.37999C2.96031 5.88999 2.96031 5.19999 2.96031 4.83999C2.96031 4.24999 3.19031 3.39999 3.84031 2.78999C4.23031 2.40999 4.97031 1.97999 6.09031 2.02999L17.6703 1.99999C18.3503 1.95999 19.4003 2.24999 20.1303 2.94999C20.7403 3.53999 20.8303 4.33999 20.9003 4.96999C21.0103 5.92999 21.3203 6.67999 21.9203 7.44999C23.3203 9.23999 22.9003 11.05 21.9203 11.97C21.8804 12.0069 21.8404 12.0431 21.8003 12.0786V15.91C21.8003 18.89 21.8003 20.53 20.6603 21.67C19.5203 22.81 17.8803 22.81 14.9003 22.81H8.90031C5.92032 22.81 4.28031 22.81 3.14031 21.67C2.00031 20.53 2.00031 18.89 2.00031 15.91V12.1195ZM17.6203 13.05C18.0403 13.22 18.4803 13.31 18.9203 13.31H18.9503C19.2992 13.31 19.6504 13.254 20.0003 13.1438V15.91C20.0003 18.66 19.9703 19.81 19.3803 20.4C18.7903 21 17.6503 21.02 14.9003 21.02H8.90031C6.15031 21.02 5.01031 20.99 4.42031 20.4C3.82031 19.81 3.80031 18.67 3.80031 15.91V13.1337C4.12329 13.2259 4.44392 13.2833 4.74031 13.31C5.85031 13.33 6.80031 12.96 7.55031 12.23C7.75031 12.04 7.92031 11.82 8.08031 11.59C9.67031 13.45 12.1303 13.44 13.4503 13.07C14.2903 12.84 15.1003 12.3 15.7203 11.6C16.1403 12.23 16.7503 12.69 17.6203 13.05ZM5.07031 4.08999C5.26031 3.91999 5.53031 3.82999 5.91031 3.82999L5.93031 3.81999H6.06031L17.7103 3.78999H17.7703C17.9203 3.77999 18.5003 3.86999 18.8803 4.23999C19.0215 4.37179 19.0653 4.75176 19.1116 5.15461C19.1145 5.17966 19.1174 5.20481 19.1203 5.22999C19.2603 6.46999 19.6903 7.52999 20.5003 8.55999C21.3003 9.59999 20.9903 10.37 20.6803 10.66C19.8403 11.45 19.0503 11.69 18.3203 11.39C17.3203 10.98 16.9703 10.48 16.8403 9.26999C16.7903 8.82999 16.4403 8.49999 16.0003 8.46999C15.5803 8.44999 15.1703 8.73999 15.0703 9.16999C14.8803 9.98999 13.9903 11.06 12.9803 11.34C12.9776 11.3406 12.9736 11.3416 12.9684 11.3428C12.7227 11.4024 9.7393 12.1255 8.75031 9.08999C8.61031 8.66999 8.18031 8.40999 7.75031 8.47999C7.31031 8.54999 6.99031 8.92999 6.99031 9.36999C6.99031 9.77999 6.81031 10.44 6.30031 10.94C5.90031 11.33 5.39031 11.53 4.85031 11.51C4.30031 11.46 3.41031 11.16 3.13031 10.64C2.68031 9.80999 2.61031 9.67999 3.47031 8.37999C4.61031 6.66999 4.76031 5.62999 4.76031 4.83999C4.76031 4.67999 4.82031 4.32999 5.07031 4.08999Z" fill="#181D27"/>
</svg>
