<svg width="24" height="24" viewBox="0 0 24 24" fill="none" xmlns="http://www.w3.org/2000/svg">
<path d="M12.0098 17.75C12.7001 17.75 13.2598 18.3096 13.2598 19C13.2598 19.6904 12.7001 20.25 12.0098 20.25H12C11.3096 20.25 10.75 19.6904 10.75 19C10.75 18.3096 11.3096 17.75 12 17.75H12.0098Z" fill="#181D27"/>
<path fill-rule="evenodd" clip-rule="evenodd" d="M14.5 1.09961C15.8888 1.09961 17.0213 1.098 17.9121 1.21777C18.8287 1.34105 19.6235 1.60785 20.2578 2.24219C20.8922 2.87654 21.159 3.6713 21.2822 4.58789C21.402 5.47874 21.4004 6.61123 21.4004 8V16C21.4004 17.3888 21.402 18.5213 21.2822 19.4121C21.1589 20.3287 20.8922 21.1235 20.2578 21.7578C19.6235 22.3922 18.8287 22.6589 17.9121 22.7822C17.0213 22.902 15.8888 22.9004 14.5 22.9004H9.5C8.11123 22.9004 6.97874 22.902 6.08789 22.7822C5.1713 22.659 4.37654 22.3922 3.74219 21.7578C3.10785 21.1235 2.84105 20.3287 2.71777 19.4121C2.598 18.5213 2.59961 17.3888 2.59961 16V8C2.59961 6.61123 2.598 5.47874 2.71777 4.58789C2.84105 3.6713 3.10784 2.87654 3.74219 2.24219C4.37654 1.60784 5.1713 1.34105 6.08789 1.21777C6.97874 1.098 8.11123 1.09961 9.5 1.09961H14.5ZM9.5 2.90039C8.06034 2.90039 7.07116 2.90206 6.32813 3.00195C5.61099 3.09837 5.2589 3.2704 5.01465 3.51465C4.7704 3.7589 4.59837 4.11099 4.50195 4.82813C4.40206 5.57116 4.40039 6.56034 4.40039 8V16C4.40039 17.4396 4.40206 18.4289 4.50195 19.1719C4.59837 19.889 4.7704 20.2411 5.01465 20.4854C5.2589 20.7296 5.611 20.9016 6.32813 20.998C7.07116 21.0979 8.06034 21.0996 9.5 21.0996H14.5C15.9396 21.0996 16.9289 21.0979 17.6719 20.998C18.389 20.9016 18.7411 20.7296 18.9854 20.4854C19.2296 20.2411 19.4016 19.889 19.498 19.1719C19.5979 18.4289 19.5996 17.4396 19.5996 16V8C19.5996 6.56034 19.5979 5.57116 19.498 4.82813C19.4016 4.111 19.2296 3.7589 18.9854 3.51465C18.7411 3.2704 18.389 3.09837 17.6719 3.00195C16.9288 2.90206 15.9396 2.90039 14.5 2.90039H9.5Z" fill="#181D27"/>
</svg>
