<svg width="24" height="24" viewBox="0 0 24 24" fill="none" xmlns="http://www.w3.org/2000/svg">
<path fill-rule="evenodd" clip-rule="evenodd" d="M7.49976 7.4C7.49976 9.83 9.46976 11.8 11.8998 11.8C14.3298 11.8 16.2998 9.83 16.2998 7.4C16.2998 4.97 14.3298 3 11.8998 3C9.46976 3 7.49976 4.97 7.49976 7.4ZM9.29976 7.4C9.29976 5.97 10.4698 4.8 11.8998 4.8C13.3298 4.8 14.4998 5.97 14.4998 7.4C14.4998 8.83 13.3298 10 11.8998 10C10.4698 10 9.29976 8.83 9.29976 7.4Z" fill="#181D27"/>
<path d="M0.566393 17.36C0.881698 17.7389 1.76458 18.8 3.12976 18.8L3.11976 18.81C3.61976 18.81 4.01976 18.41 4.01976 17.91C4.01976 17.41 3.61976 17.01 3.11976 17.01C2.88976 17.01 2.51976 16.93 1.93976 16.21C1.79307 16.0266 1.79768 15.9273 1.79946 15.889L1.79976 15.88C1.8481 15.5223 2.53192 15.0151 2.89359 14.7468L2.92976 14.72L3.17976 14.53C3.72976 14.11 4.34976 13.86 4.97976 13.8C5.47976 13.75 5.83976 13.32 5.79976 12.82C5.74976 12.32 5.31976 11.97 4.81976 12C3.84976 12.09 2.90976 12.47 2.08976 13.1L1.86976 13.26L1.83734 13.2842C1.20374 13.7566 0.167219 14.5293 0.0197626 15.65C-0.0402374 16.05 0.00976259 16.68 0.549763 17.34L0.566393 17.36Z" fill="#181D27"/>
<path d="M1.99976 8.4C1.99976 10.27 3.51976 11.8 5.39976 11.8C5.89976 11.8 6.29976 11.4 6.29976 10.9C6.29976 10.4 5.89976 10 5.39976 10C4.51976 10 3.79976 9.28 3.79976 8.4C3.79976 7.52 4.51976 6.8 5.39976 6.8C5.89976 6.8 6.29976 6.4 6.29976 5.9C6.29976 5.4 5.89976 5 5.39976 5C3.51976 5 1.99976 6.53 1.99976 8.4Z" fill="#181D27"/>
<path d="M19.7698 17.9C19.7698 18.4 20.1698 18.8 20.6698 18.8L20.6498 18.79C22.0398 18.79 22.9398 17.69 23.2298 17.33C23.7598 16.67 23.8098 16.05 23.7598 15.64C23.6205 14.5063 22.5615 13.7286 21.9203 13.2578L21.9098 13.25L21.6998 13.09C20.8898 12.46 19.9398 12.08 18.9698 11.99C18.4598 11.95 18.0298 12.31 17.9898 12.81C17.9498 13.31 18.3098 13.75 18.8098 13.79C19.4398 13.85 20.0598 14.1 20.6098 14.52L20.8598 14.71C21.2098 14.96 21.9398 15.5 21.9898 15.87C21.9998 15.91 22.0098 16 21.8498 16.2C21.2698 16.92 20.8998 17 20.6698 17C20.1698 17 19.7698 17.4 19.7698 17.9Z" fill="#181D27"/>
<path d="M16.9998 10.9C16.9998 11.4 17.3998 11.8 17.8998 11.8C19.7798 11.8 21.2998 10.27 21.2998 8.4C21.2998 6.53 19.7798 5 17.8998 5C17.3998 5 16.9998 5.4 16.9998 5.9C16.9998 6.4 17.3998 6.8 17.8998 6.8C18.7798 6.8 19.4998 7.52 19.4998 8.4C19.4998 9.28 18.7798 10 17.8998 10C17.3998 10 16.9998 10.4 16.9998 10.9Z" fill="#181D27"/>
<path fill-rule="evenodd" clip-rule="evenodd" d="M15.0698 20.8H8.70976C7.08976 20.8 5.97976 19.88 5.27976 19.19C4.53976 18.46 4.44976 17.74 4.50976 17.27C4.67793 15.9247 6.14759 15.049 7.13758 14.4592L7.16976 14.44L7.49976 14.24C10.1698 12.59 13.6098 12.59 16.2798 14.24L16.6098 14.44C17.5998 15.02 19.0998 15.91 19.2698 17.27C19.3298 17.74 19.2398 18.46 18.4998 19.19C17.7998 19.88 16.6798 20.8 15.0698 20.8ZM8.45976 15.78L8.0575 16.0192C7.56471 16.3125 6.35844 17.0306 6.29976 17.5C6.27976 17.64 6.46976 17.83 6.54976 17.91C7.30976 18.67 7.97976 19 8.71976 19H15.0898C15.8298 19 16.4898 18.66 17.2598 17.91C17.3398 17.83 17.5198 17.63 17.5098 17.5C17.4511 17.0306 16.2448 16.3125 15.752 16.0192L15.3498 15.78C13.2598 14.49 10.5598 14.49 8.46976 15.78H8.45976Z" fill="#181D27"/>
</svg>
