<svg width="24" height="24" viewBox="0 0 24 24" fill="none" xmlns="http://www.w3.org/2000/svg">
<path fill-rule="evenodd" clip-rule="evenodd" d="M13.5762 2.59961C14.7388 2.59961 15.6746 2.59953 16.4365 2.67285C17.2163 2.74792 17.8885 2.90525 18.5156 3.26465L18.6826 3.36524C18.7376 3.39968 18.7921 3.43508 18.8457 3.47168L19.0625 3.63086C19.5513 4.01636 19.9227 4.49958 20.2686 5.08301C20.6536 5.7325 21.0409 6.56701 21.5205 7.59961L21.8916 8.40235C22.2427 9.16906 22.5289 9.82987 22.7012 10.3936C22.9195 11.108 23.0144 11.8488 22.6885 12.5508L22.6182 12.6904C22.5792 12.7612 22.537 12.8302 22.4922 12.8975L22.3486 13.0938C21.827 13.7475 21.0667 13.9851 20.2686 14.0908C19.4771 14.1956 18.4413 14.1934 17.1826 14.1934H16.7793C16.3831 14.1934 16.1455 14.1947 15.9736 14.21C15.9084 14.2158 15.8699 14.2233 15.8506 14.2275C15.8485 14.2296 15.8464 14.2314 15.8447 14.2334C15.847 14.2523 15.8499 14.2815 15.8584 14.3223C15.8917 14.4817 15.958 14.6982 16.0723 15.0674L16.3389 15.9277C16.4058 16.1437 16.4496 16.2862 16.4844 16.4277L16.5352 16.6572C16.7572 17.8036 16.5448 18.9913 15.9355 19.998L15.6455 20.4346C15.6106 20.4854 15.5719 20.5407 15.5322 20.5957L15.4092 20.7539C14.7539 21.4952 13.6427 21.6062 12.8535 21.0488L12.7002 20.9287C12.6517 20.8865 12.6042 20.8374 12.5576 20.7881L12.4238 20.6426L8.33301 16.1123C7.39869 15.0777 6.76371 14.395 6.42871 13.5498C5.76216 14.0813 4.91868 14.4004 4 14.4004C2.39838 14.4004 1.09961 13.1017 1.09961 11.5V5.5C1.09961 3.89838 2.39837 2.59961 4 2.59961C5.20476 2.59961 6.28157 3.14641 6.99707 4.00488C7.07755 3.90443 7.16535 3.80724 7.26172 3.71387C7.90183 3.0937 8.7007 2.83475 9.62109 2.71485C10.5184 2.59795 11.6598 2.59961 13.0645 2.59961H13.5762ZM13.0645 4.40039C11.6105 4.40039 10.6075 4.40178 9.85352 4.5C9.12276 4.59521 8.76263 4.76664 8.51465 5.00684C8.27065 5.24327 8.09936 5.58143 8.00293 6.27637C7.90254 7.00017 7.90039 7.96503 7.90039 9.37598V10.3496C7.90039 11.873 7.91427 12.4011 8.09766 12.874C8.28203 13.3494 8.63404 13.7593 9.66895 14.9053L13.7598 19.4365L13.8691 19.5557C13.8924 19.5804 13.8927 19.5797 13.8818 19.5703L13.9229 19.5938C13.9384 19.5989 13.9562 19.6008 13.9756 19.5996C14.0146 19.5971 14.0433 19.5811 14.0605 19.5615L14.0703 19.5469C14.0904 19.5188 14.1169 19.4798 14.1621 19.4141L14.3955 19.0664L14.5342 18.8105C14.7843 18.2881 14.8731 17.7084 14.792 17.1406L14.7373 16.8574L14.6191 16.46L14.3525 15.5996C14.2488 15.2646 14.1515 14.9527 14.0967 14.6904C14.0406 14.4219 14.0017 14.0891 14.1074 13.7383L14.1641 13.5771C14.3128 13.21 14.5751 12.9002 14.9102 12.6895L15.0244 12.624C15.2936 12.4849 15.5725 12.4385 15.8135 12.417C16.084 12.3929 16.4164 12.3936 16.7793 12.3936H17.1826C18.4939 12.3936 19.3869 12.3921 20.0322 12.3066C20.6701 12.2222 20.8559 12.0787 20.9414 11.9717L20.9951 11.8984C21.0116 11.8737 21.0268 11.8482 21.041 11.8223L21.0811 11.7197C21.1143 11.59 21.1153 11.3643 20.9795 10.9199C20.8412 10.4673 20.6018 9.90934 20.2617 9.16602L19.8877 8.3584C19.3931 7.29343 19.0489 6.55467 18.7207 6.00098C18.4028 5.46475 18.1364 5.16649 17.8311 4.95801L17.6211 4.82715C17.2961 4.6409 16.9015 4.52526 16.2637 4.46387C15.6078 4.40077 14.773 4.40039 13.5762 4.40039H13.0645ZM4 4.40039C3.39249 4.40039 2.90039 4.89249 2.90039 5.5V11.5C2.90039 12.1075 3.39248 12.5996 4 12.5996C5.1598 12.5996 6.09961 11.6598 6.09961 10.5V6.5C6.09961 5.34021 5.15979 4.40039 4 4.40039Z" fill="#181D27"/>
</svg>
