<svg width="24" height="24" viewBox="0 0 24 24" fill="none" xmlns="http://www.w3.org/2000/svg">
<path fill-rule="evenodd" clip-rule="evenodd" d="M12.3863 1.12662C12.897 1.07376 13.4154 1.09934 13.9234 1.20279L14.1255 1.24967C15.1272 1.50917 15.9854 2.15032 16.9566 3.04068L17.0611 3.14713C17.5115 3.66132 17.4387 4.38245 17.0689 4.83463L16.9859 4.9274C16.4949 5.41834 16.4682 6.30983 17.0787 6.92056C17.6893 7.53126 18.5809 7.50433 19.0718 7.01334L19.1646 6.93033C19.6165 6.56077 20.3378 6.48777 20.8521 6.93814L20.9585 7.04263L21.3013 7.42545C22.0679 8.30787 22.602 9.12233 22.7964 10.0758L22.8355 10.2936C22.9053 10.7314 22.9179 11.1751 22.8726 11.6129L22.8453 11.8317C22.7172 12.6932 22.305 13.4208 21.7105 14.1647C21.1279 14.8937 20.3055 15.7152 19.2798 16.7409L16.7408 19.2799C15.7151 20.3057 14.8936 21.128 14.1646 21.7106C13.5134 22.231 12.875 22.6121 12.148 22.7848L11.8316 22.8454C11.3232 22.9209 10.8043 22.9171 10.2935 22.8356L10.0757 22.7965C8.98602 22.5744 8.07823 21.9082 7.04253 20.9587C6.47863 20.4416 6.53388 19.648 6.93023 19.1637L7.01421 19.071C7.47409 18.6105 7.52621 17.7987 7.02788 17.196L6.92046 17.0778C6.31001 16.4681 5.41925 16.4946 4.92827 16.985C4.45842 17.4548 3.59108 17.5585 3.0396 16.9567C2.14974 15.986 1.50898 15.1269 1.24956 14.1256L1.20269 13.9235C1.08449 13.343 1.06757 12.7484 1.15386 12.1676L1.21441 11.8512C1.38713 11.1244 1.76826 10.4857 2.28863 9.83463C2.87126 9.10567 3.69361 8.28413 4.71929 7.25845L7.25835 4.71939L7.99077 3.98892C8.68864 3.2974 9.28774 2.72574 9.83452 2.28873C10.5784 1.69422 11.306 1.2821 12.1675 1.15396L12.3863 1.12662ZM8.53081 5.99283L5.99273 8.53092C4.93783 9.58581 4.19937 10.3253 3.6939 10.9577C3.26221 11.4978 3.05229 11.8986 2.96441 12.2731L2.93413 12.4323C2.87927 12.8015 2.88918 13.185 2.96636 13.5641L3.023 13.7829C3.16139 14.2244 3.46075 14.7045 4.04644 15.3815C5.30697 14.484 7.07137 14.6831 8.1939 15.8053L8.30718 15.9245C9.32866 17.0496 9.48296 18.7349 8.61675 19.9518C9.40734 20.6359 9.92939 20.9297 10.4351 21.0329L10.7203 21.0778C11.0051 21.1107 11.29 21.1062 11.5669 21.0651L11.7261 21.0348C12.1007 20.947 12.5013 20.7371 13.0416 20.3053C13.674 19.7999 14.4134 19.0615 15.4683 18.0065L18.0064 15.4684C18.0381 15.4367 18.069 15.4048 18.1001 15.3737L8.62456 5.8981L8.53081 5.99283ZM12.7115 2.90494L12.4322 2.93424C12.0099 2.99708 11.5749 3.20066 10.9576 3.694C10.6425 3.94586 10.3008 4.25567 9.90679 4.63345L19.3658 14.0924C19.7436 13.6985 20.0534 13.3568 20.3052 13.0417C20.7986 12.4243 21.0022 11.9894 21.065 11.567L21.0943 11.2878C21.1054 11.1003 21.0996 10.9103 21.0777 10.7204L21.0328 10.4352C20.9296 9.92956 20.6358 9.40736 19.9517 8.61685C18.6911 9.514 16.9285 9.31536 15.8062 8.19303C14.6841 7.07064 14.4842 5.30709 15.3814 4.04654C14.7044 3.46086 14.2243 3.16149 13.7828 3.0231L13.564 2.96646C13.2796 2.90855 12.9928 2.8883 12.7115 2.90494Z" fill="#181D27"/>
</svg>
