<svg width="24" height="24" viewBox="0 0 24 24" fill="none" xmlns="http://www.w3.org/2000/svg">
<path d="M13.26 14.54C13.44 14.71 13.67 14.8 13.9 14.8C14.13 14.8 14.36 14.72 14.54 14.54C14.89 14.19 14.89 13.62 14.54 13.27L12.8 11.53V7.9C12.8 7.4 12.4 7 11.9 7C11.4 7 11 7.4 11 7.9V11.9C11 12.14 11.09 12.37 11.26 12.54L13.26 14.54Z" fill="#181D27"/>
<path fill-rule="evenodd" clip-rule="evenodd" d="M1 11.9C1 17.91 5.89 22.8 11.9 22.8C17.91 22.8 22.8 17.91 22.8 11.9C22.8 5.89 17.91 1 11.9 1C5.89 1 1 5.89 1 11.9ZM2.8 11.9C2.8 6.88 6.88 2.8 11.9 2.8C16.92 2.8 21 6.88 21 11.9C21 16.92 16.92 21 11.9 21C6.88 21 2.8 16.92 2.8 11.9Z" fill="#181D27"/>
</svg>
