<svg width="24" height="24" viewBox="0 0 24 24" fill="none" xmlns="http://www.w3.org/2000/svg">
<path d="M9.4 9.49999C8.9 9.49999 8.5 9.89999 8.5 10.4V16.4C8.5 16.9 8.9 17.3 9.4 17.3C9.9 17.3 10.3 16.9 10.3 16.4V10.4C10.3 9.89999 9.9 9.49999 9.4 9.49999Z" fill="#181D27"/>
<path d="M13.5 10.4C13.5 9.89999 13.9 9.49999 14.4 9.49999C14.9 9.49999 15.3 9.89999 15.3 10.4V16.4C15.3 16.9 14.9 17.3 14.4 17.3C13.9 17.3 13.5 16.9 13.5 16.4V10.4Z" fill="#181D27"/>
<path fill-rule="evenodd" clip-rule="evenodd" d="M20.89 4.49999H16.52L16.08 3.58999L16.0535 3.53545C15.5703 2.53976 15.2999 1.98252 14.74 1.56999C14.61 1.47999 14.48 1.38999 14.34 1.31999C13.71 0.98999 13.08 0.98999 11.93 0.98999C10.78 0.98999 10.11 0.98999 9.46 1.32999C9.32 1.40999 9.19 1.48999 9.06 1.58999C8.49029 2.02977 8.22027 2.61939 7.73075 3.68836L7.73 3.68999L7.36 4.48999H2.9C2.4 4.48999 2 4.88999 2 5.38999C2 5.88999 2.4 6.28999 2.9 6.28999H3.55L4.1 15.46C4.26 18.19 4.35 19.56 5.13 20.69C5.52 21.25 6.01 21.72 6.6 22.08C7.77 22.8 9.15 22.8 11.88 22.8C14.61 22.8 15.98 22.8 17.16 22.08C17.74 21.72 18.24 21.26 18.63 20.7C19.4139 19.5787 19.4987 18.2212 19.6661 15.5428L20.24 6.29999H20.89C21.39 6.29999 21.79 5.89999 21.79 5.39999C21.79 4.89999 21.39 4.49999 20.89 4.49999ZM9.38 4.43999L9.43553 4.31982C9.77054 3.59466 9.96127 3.1818 10.17 3.02999C10.22 2.98999 10.27 2.95999 10.32 2.92999C10.56 2.79999 11.05 2.79999 11.94 2.79999C12.83 2.79999 13.28 2.79999 13.52 2.91999L13.67 3.00999C13.88 3.16999 14.09 3.59999 14.47 4.37999L14.53 4.49999H9.36L9.39 4.43999H9.38ZM17.88 15.37L17.8749 15.4517C17.7283 17.7874 17.6543 18.9681 17.16 19.67C16.91 20.02 16.6 20.32 16.23 20.54C15.49 20.99 14.28 20.99 11.89 20.99C9.50005 20.99 8.29 20.99 7.55 20.54C7.18 20.31 6.87 20.02 6.62 19.66C6.12032 18.9405 6.05009 17.7415 5.91027 15.3546L5.91 15.35L5.36 6.28999H18.45L17.89 15.36L17.88 15.37Z" fill="#181D27"/>
</svg>
