<svg width="24" height="24" viewBox="0 0 24 24" fill="none" xmlns="http://www.w3.org/2000/svg">
<path fill-rule="evenodd" clip-rule="evenodd" d="M8.44487 2.24543C9.92169 1.56199 10.92 1.10001 11.9996 1.10001C13.0792 1.10001 14.0775 1.562 15.5544 2.24544L17.5086 3.14886C18.7621 3.72821 19.7951 4.20562 20.5066 4.66946C21.2184 5.13351 21.8996 5.76891 21.8996 6.75001C21.8996 7.7311 21.2184 8.3665 20.5066 8.83056C19.7951 9.29439 18.7622 9.77179 17.5087 10.3511L15.5539 11.2548C14.0774 11.9381 13.0791 12.4 11.9996 12.4C10.9201 12.4 9.92187 11.9381 8.44533 11.2548L6.49039 10.3511C5.23698 9.77176 4.20411 9.29437 3.49264 8.83056C2.78082 8.3665 2.09961 7.73111 2.09961 6.75001C2.09961 5.76891 2.78081 5.13351 3.49264 4.66946C4.20411 4.20564 5.23697 3.72825 6.49037 3.14893L8.44487 2.24543ZM11.9996 2.90001C11.3653 2.90001 10.7478 3.16397 9.02022 3.96254L7.31539 4.75057C5.97481 5.37024 5.06375 5.79394 4.47566 6.17733C3.89238 6.55758 3.89869 6.72514 3.89956 6.7483L3.89961 6.75001L3.89956 6.75171C3.89869 6.77487 3.89238 6.94243 4.47566 7.32268C5.06375 7.70607 5.97481 8.12977 7.3154 8.74944L9.02021 9.53746C10.7478 10.336 11.3653 10.6 11.9996 10.6C12.6339 10.6 13.2514 10.336 14.979 9.53746L16.6838 8.74944C18.0244 8.12978 18.9355 7.70607 19.5236 7.32268C20.1068 6.94244 20.1005 6.77487 20.0997 6.75171L20.0996 6.75001L20.0997 6.7483C20.1005 6.72514 20.1068 6.55757 19.5236 6.17733C18.9355 5.79394 18.0244 5.37024 16.6838 4.75058L14.979 3.96254C13.2514 3.16397 12.6339 2.90001 11.9996 2.90001Z" fill="#181D27"/>
<path d="M20.266 10.3637C20.6711 10.0757 21.233 10.1705 21.5211 10.5756C21.7593 10.9106 21.8996 11.2974 21.8996 11.7309C21.8996 12.711 21.21 13.3405 20.5016 13.7957C19.7903 14.2529 18.7575 14.7234 17.5038 15.2946L15.5509 16.1845C14.0726 16.8588 13.0764 17.3133 11.9996 17.3133C10.9228 17.3133 9.9266 16.8589 8.44836 16.1846L6.49535 15.2946C5.24164 14.7234 4.20893 14.2529 3.49758 13.7957C2.78927 13.3405 2.09961 12.711 2.09961 11.7309C2.09961 11.2975 2.23984 10.9107 2.47821 10.5755C2.76631 10.1705 3.32821 10.0757 3.73326 10.3638C4.13831 10.6519 4.23311 11.2138 3.94501 11.6188C3.90072 11.6811 3.89961 11.7087 3.89961 11.7309C3.89865 11.7381 3.87717 11.9 4.47072 12.2815C5.05904 12.6596 5.97046 13.0774 7.31096 13.6882L9.01575 14.465C10.7422 15.2516 11.3621 15.5133 11.9996 15.5133C12.6372 15.5133 13.257 15.2516 14.9834 14.465L16.6882 13.6882C18.0288 13.0774 18.9402 12.6595 19.5285 12.2815C20.122 11.9 20.1006 11.7384 20.0996 11.7311C20.0996 11.709 20.0985 11.6811 20.0542 11.6188C19.7661 11.2137 19.861 10.6518 20.266 10.3637Z" fill="#181D27"/>
<path d="M4.18368 16.9701C4.57247 16.6604 4.63661 16.0942 4.32693 15.7054C4.01724 15.3166 3.45102 15.2525 3.06222 15.5621C2.53781 15.9798 2.09961 16.5417 2.09961 17.3176C2.09961 18.2978 2.78925 18.9273 3.49759 19.3825C4.20881 19.8396 5.24128 20.31 6.49467 20.881L8.44706 21.7707C9.92609 22.4454 10.9225 22.9 11.9996 22.9C13.0767 22.9 14.0731 22.4454 15.5522 21.7707L17.5044 20.8811C18.7579 20.31 19.7904 19.8396 20.5016 19.3825C21.21 18.9273 21.8996 18.2978 21.8996 17.3176C21.8996 16.5417 21.4614 15.9799 20.9371 15.5622C20.5483 15.2525 19.9821 15.3166 19.6724 15.7053C19.3627 16.0941 19.4268 16.6604 19.8155 16.9701C19.9709 17.0938 20.0415 17.1818 20.0726 17.2335C20.0968 17.2738 20.0996 17.2948 20.0996 17.3179C20.1006 17.3253 20.1219 17.4869 19.5285 17.8682C18.9402 18.2463 18.0288 18.6641 16.6882 19.2749L14.9834 20.0518C13.257 20.8384 12.6372 21.1 11.9996 21.1C11.3621 21.1 10.7421 20.8384 9.01576 20.0517L7.31096 19.2749C5.97044 18.6641 5.05903 18.2463 4.47071 17.8682C3.87734 17.4869 3.89864 17.325 3.89961 17.3176C3.89961 17.2946 3.90239 17.2738 3.92663 17.2335C3.9577 17.1819 4.02829 17.0939 4.18368 16.9701Z" fill="#181D27"/>
</svg>
