<svg width="24" height="24" viewBox="0 0 24 24" fill="none" xmlns="http://www.w3.org/2000/svg">
<path d="M11.8905 14.8C11.8938 14.8 11.8971 14.8 11.9005 14.8H11.8805C11.8838 14.8 11.8871 14.8 11.8905 14.8Z" fill="#181D27"/>
<path d="M11.0005 13.9C11.0005 14.3967 11.3951 14.7947 11.8905 14.8C12.3858 14.7947 12.7805 14.3967 12.7805 13.9V5.86001C12.8605 5.95715 12.9339 6.05103 12.999 6.13418C13.0478 6.19654 13.0919 6.25287 13.1305 6.30001C13.1754 6.35566 13.2189 6.41003 13.2611 6.46264C13.4539 6.70309 13.6174 6.90694 13.7405 7.03001C14.0805 7.39001 14.6505 7.40001 15.0105 7.05001C15.3705 6.71001 15.3805 6.14001 15.0305 5.78001C14.947 5.69652 14.8441 5.56461 14.7219 5.40788C14.6685 5.33935 14.6113 5.26607 14.5505 5.19001C13.5205 3.88001 12.7705 3.01001 11.8905 3.01001C11.0105 3.01001 10.2705 3.87001 9.23047 5.19001C9.16962 5.26606 9.11248 5.33934 9.05904 5.40787C8.93682 5.56461 8.83396 5.69652 8.75047 5.78001C8.40047 6.13001 8.41047 6.70001 8.77047 7.05001C9.12047 7.40001 9.69047 7.39001 10.0405 7.03001C10.1635 6.90694 10.327 6.70309 10.5198 6.46264C10.562 6.41003 10.6056 6.35566 10.6505 6.30001C10.7405 6.18001 10.8605 6.03001 11.0005 5.86001V13.9Z" fill="#181D27"/>
<path d="M10.6805 20.8H13.1205C15.9505 20.8 17.5105 20.8 18.7805 19.9C20.0505 19 20.5705 17.53 21.5105 14.86L21.7405 14.2C21.9005 13.73 21.6605 13.22 21.1905 13.05C20.7205 12.88 20.2105 13.13 20.0405 13.6L19.8005 14.27C18.9605 16.66 18.5305 17.86 17.7305 18.43C16.9305 19 15.6505 19 13.1105 19H10.6705C8.13047 19 6.86047 19 6.05047 18.43C5.25707 17.8647 4.83743 16.6798 4.00143 14.3192L3.98047 14.26L3.75047 13.6C3.58047 13.13 3.07047 12.88 2.60047 13.05C2.13047 13.22 1.88047 13.73 2.05047 14.2L2.29047 14.87C3.23047 17.53 3.75047 19 5.02047 19.9C6.29047 20.8 7.85047 20.8 10.6805 20.8Z" fill="#181D27"/>
</svg>
