<svg width="24" height="24" viewBox="0 0 24 24" fill="none" xmlns="http://www.w3.org/2000/svg">
<path d="M16.3101 22.8H7.49013C5.89013 22.8 4.46013 22.15 2.99013 20.75C2.06013 19.86 1.95013 19 2.02013 18.44C2.23013 16.76 4.23013 15.63 5.56013 14.88C5.73013 14.78 5.89013 14.69 6.02013 14.61C9.59013 12.48 14.2101 12.48 17.7801 14.61C17.9201 14.69 18.0701 14.78 18.2401 14.88C19.5701 15.63 21.5701 16.76 21.7801 18.44C21.8501 19 21.7401 19.86 20.8001 20.75C19.3301 22.15 17.9001 22.8 16.3001 22.8H16.3101ZM11.9001 14.81C10.1701 14.81 8.45013 15.26 6.94013 16.16C6.79013 16.25 6.63013 16.34 6.44013 16.45C5.62013 16.92 3.90013 17.89 3.80013 18.67C3.77013 18.89 3.92013 19.16 4.23013 19.45C5.36013 20.53 6.36013 21.01 7.49013 21.01H16.3101C17.4301 21.01 18.4401 20.53 19.5701 19.46C19.8801 19.16 20.0301 18.9 20.0001 18.68C19.9001 17.9 18.1901 16.93 17.3601 16.46C17.1801 16.36 17.0101 16.26 16.8601 16.17C15.3501 15.27 13.6301 14.82 11.9001 14.82V14.81Z" fill="#181D27"/>
<path d="M11.9001 11.8C8.92013 11.8 6.50013 9.38 6.50013 6.4C6.50013 3.42 8.92013 1 11.9001 1C14.8801 1 17.3001 3.42 17.3001 6.4C17.3001 9.38 14.8801 11.8 11.9001 11.8ZM11.9001 2.8C9.92013 2.8 8.30013 4.42 8.30013 6.4C8.30013 8.38 9.92013 10 11.9001 10C13.8801 10 15.5001 8.38 15.5001 6.4C15.5001 4.42 13.8801 2.8 11.9001 2.8Z" fill="#181D27"/>
</svg>
