<svg width="24" height="24" viewBox="0 0 24 24" fill="none" xmlns="http://www.w3.org/2000/svg">
<path fill-rule="evenodd" clip-rule="evenodd" d="M10.9001 11.8C7.92013 11.8 5.50013 9.38 5.50013 6.4C5.50013 3.42 7.92013 1 10.9001 1C13.8801 1 16.3001 3.42 16.3001 6.4C16.3001 9.38 13.8801 11.8 10.9001 11.8ZM10.9001 2.8C8.92013 2.8 7.30013 4.42 7.30013 6.4C7.30013 8.38 8.92013 10 10.9001 10C12.8801 10 14.5001 8.38 14.5001 6.4C14.5001 4.42 12.8801 2.8 10.9001 2.8Z" fill="#181D27"/>
<path d="M12.3901 22.8H6.49013C4.89013 22.8 3.46013 22.15 1.99013 20.75C1.06013 19.86 0.950127 19 1.02013 18.44C1.23013 16.76 3.23013 15.63 4.56013 14.88C4.62183 14.8437 4.68222 14.8087 4.74033 14.7751C4.84228 14.716 4.93734 14.6609 5.02013 14.61C7.26013 13.28 9.92013 12.75 12.5301 13.12C13.4601 13.25 14.3701 13.5 15.2401 13.85C15.7001 14.04 15.9201 14.56 15.7301 15.02C15.5401 15.48 15.0201 15.7 14.5601 15.51C13.8301 15.21 13.0601 15 12.2701 14.89C10.0701 14.58 7.82013 15.03 5.93013 16.15C5.82904 16.2107 5.7234 16.2713 5.60711 16.3381C5.55092 16.3703 5.49199 16.4042 5.43013 16.44L5.37839 16.4696C4.54003 16.9498 2.88807 17.8961 2.79013 18.66C2.76013 18.88 2.91013 19.15 3.22013 19.44C4.35013 20.52 5.35013 21 6.48013 21H12.3901C12.8901 21 13.2901 21.4 13.2901 21.9C13.2901 22.4 12.8901 22.8 12.3901 22.8Z" fill="#181D27"/>
<path d="M14.9001 19.3H21.9001C22.4001 19.3 22.8001 18.9 22.8001 18.4C22.8001 17.9 22.4001 17.5 21.9001 17.5H14.9001C14.4001 17.5 14.0001 17.9 14.0001 18.4C14.0001 18.9 14.4001 19.3 14.9001 19.3Z" fill="#181D27"/>
</svg>
