<svg width="24" height="24" viewBox="0 0 24 24" fill="none" xmlns="http://www.w3.org/2000/svg">
<path fill-rule="evenodd" clip-rule="evenodd" d="M10.9001 11.8C7.92013 11.8 5.50013 9.38 5.50013 6.4C5.50013 3.42 7.92013 1 10.9001 1C13.8801 1 16.3001 3.42 16.3001 6.4C16.3001 9.38 13.8801 11.8 10.9001 11.8ZM10.9001 2.8C8.92013 2.8 7.30013 4.42 7.30013 6.4C7.30013 8.38 8.92013 10 10.9001 10C12.8801 10 14.5001 8.38 14.5001 6.4C14.5001 4.42 12.8801 2.8 10.9001 2.8Z" fill="#181D27"/>
<path d="M12.8901 22.8H6.49013C4.89013 22.8 3.46013 22.15 1.99013 20.75C1.06013 19.86 0.950127 19 1.02013 18.44C1.22928 16.7668 3.21401 15.6391 4.53411 14.8891L4.55013 14.88C4.61186 14.8437 4.67227 14.8087 4.73041 14.775C4.83236 14.716 4.92734 14.6609 5.01013 14.61C7.08013 13.38 9.56013 12.83 11.9801 13.05C12.4701 13.1 12.8401 13.53 12.7901 14.03C12.7401 14.52 12.3201 14.9 11.8101 14.84C9.76013 14.65 7.67013 15.11 5.93013 16.15C5.82899 16.2107 5.72331 16.2714 5.60695 16.3382C5.55073 16.3705 5.49202 16.4042 5.43013 16.44L5.37838 16.4696C4.54002 16.9498 2.88807 17.896 2.79013 18.66C2.76013 18.88 2.91013 19.15 3.22013 19.44C4.35013 20.52 5.35013 21 6.48013 21H12.8901C13.3901 21 13.7901 21.4 13.7901 21.9C13.7901 22.4 13.3901 22.8 12.8901 22.8Z" fill="#181D27"/>
<path d="M21.8953 22.8C21.8969 22.8 21.8985 22.8 21.9001 22.8H21.8901C21.8918 22.8 21.8936 22.8 21.8953 22.8Z" fill="#181D27"/>
<path fill-rule="evenodd" clip-rule="evenodd" d="M21.2601 22.54C21.4389 22.7088 21.6669 22.7987 21.8953 22.8C22.1236 22.7988 22.3515 22.7187 22.5301 22.54C22.8801 22.19 22.8801 21.62 22.5301 21.27L21.2501 19.99C21.7301 19.28 22.0001 18.43 22.0001 17.51C22.0001 15.03 19.9801 13.01 17.5001 13.01C15.0201 13.01 13.0001 15.03 13.0001 17.51C13.0001 19.99 15.0201 22.01 17.5001 22.01C18.4201 22.01 19.2701 21.73 19.9801 21.26L21.2601 22.54ZM14.8001 17.5C14.8001 16.01 16.0101 14.8 17.5001 14.8C18.9901 14.8 20.2001 16.01 20.2001 17.5C20.2001 18.99 18.9901 20.2 17.5001 20.2C16.0101 20.2 14.8001 18.99 14.8001 17.5Z" fill="#181D27"/>
</svg>
