<svg width="24" height="24" viewBox="0 0 24 24" fill="none" xmlns="http://www.w3.org/2000/svg">
<path fill-rule="evenodd" clip-rule="evenodd" d="M11.9001 11.8C8.92013 11.8 6.50013 9.38 6.50013 6.4C6.50013 3.42 8.92013 1 11.9001 1C14.8801 1 17.3001 3.42 17.3001 6.4C17.3001 9.38 14.8801 11.8 11.9001 11.8ZM11.9001 2.8C9.92013 2.8 8.30013 4.42 8.30013 6.4C8.30013 8.38 9.92013 10 11.9001 10C13.8801 10 15.5001 8.38 15.5001 6.4C15.5001 4.42 13.8801 2.8 11.9001 2.8Z" fill="#181D27"/>
<path d="M6.49013 22.8C4.89013 22.8 3.46013 22.15 1.99013 20.75C1.06013 19.86 0.950127 19 1.02013 18.44C1.23013 16.76 3.23013 15.63 4.56013 14.88C4.62183 14.8437 4.68222 14.8087 4.74033 14.7751C4.84228 14.716 4.93734 14.6609 5.02013 14.61C7.57013 13.09 10.7001 12.62 13.6101 13.32C14.0901 13.44 14.3901 13.92 14.2801 14.4C14.1601 14.88 13.6701 15.18 13.2001 15.07C10.7401 14.48 8.10013 14.87 5.95013 16.15C5.84904 16.2107 5.7434 16.2713 5.62711 16.3381C5.57092 16.3703 5.51199 16.4042 5.45013 16.44L5.39839 16.4696C4.56003 16.9498 2.90807 17.8961 2.81013 18.66C2.78013 18.88 2.93013 19.15 3.24013 19.44C4.37013 20.52 5.37013 21 6.50013 21H12.9101C13.4101 21 13.8101 21.4 13.8101 21.9C13.8101 22.4 13.4101 22.8 12.9101 22.8H6.49013Z" fill="#181D27"/>
<path fill-rule="evenodd" clip-rule="evenodd" d="M14.0001 18.4C14.0001 20.83 15.9701 22.8 18.4001 22.8C20.8301 22.8 22.8001 20.83 22.8001 18.4C22.8001 15.97 20.8301 14 18.4001 14C15.9701 14 14.0001 15.97 14.0001 18.4ZM15.8001 18.4C15.8001 18.01 15.8901 17.64 16.0401 17.31L19.4901 20.76C19.1601 20.91 18.7901 21 18.4001 21C16.9701 21 15.8001 19.83 15.8001 18.4ZM20.7601 19.49L17.3101 16.04C17.6401 15.89 18.0101 15.8 18.4001 15.8C19.8301 15.8 21.0001 16.97 21.0001 18.4C21.0001 18.79 20.9101 19.16 20.7601 19.49Z" fill="#181D27"/>
</svg>
