<svg width="24" height="24" viewBox="0 0 24 24" fill="none" xmlns="http://www.w3.org/2000/svg">
<path fill-rule="evenodd" clip-rule="evenodd" d="M15.8 8.00134V4.51C15.8 3.13 14.67 2 13.29 2C12.89 2 12.49 2.1 12.14 2.28L3.25 6.85C2.48 7.25 2 8.03 2 8.9V15.9C2 18.88 2 20.52 3.14 21.66C4.28 22.8 5.92 22.8 8.9 22.8H14.9C17.88 22.8 19.52 22.8 20.66 21.66C21.8 20.52 21.8 18.88 21.8 15.9V14.9C21.8 11.92 21.8 10.28 20.66 9.14C19.6404 8.12035 18.2207 8.01271 15.8 8.00134ZM14.9 9.8H3.8V15.9C3.8 18.65 3.82 19.79 4.42 20.38C5.01 20.97 6.15 21 8.9 21H14.9C17.65 21 18.79 20.98 19.38 20.39C19.97 19.8 20 18.66 20 15.9V14.9C20 12.15 19.98 11.01 19.38 10.42C18.79 9.83 17.65 9.8 14.9 9.8ZM14 4.51V8H4.94637L12.97 3.88C13.4 3.65 14 4.01 14 4.51Z" fill="#181D27"/>
</svg>
